<svg id="Capa_2" data-name="Capa 2" xmlns="http://www.w3.org/2000/svg" viewBox="0 0 4314.87 4000"><defs><style>.cls-1,.cls-6{fill:#fff;}.cls-2,.cls-7{fill:#371a45;}.cls-3{opacity:0.35;}.cls-4{opacity:0.7;}.cls-5{fill:#111a28;}.cls-6{stroke:#3d46f2;stroke-width:27px;}.cls-6,.cls-9{stroke-miterlimit:10;}.cls-7{opacity:0.3;}.cls-8{fill:#3d46f2;}.cls-9{fill:#121c75;stroke:#121c75;stroke-width:11px;}</style></defs><path class="cls-1" d="M2702.58,1652.9v529a113.73,113.73,0,0,1-113.72,113.72H1851.58a113.73,113.73,0,0,1-113.72-113.72v-529a113.67,113.67,0,0,1,105.8-113.4c2.6-.24,5.24-.32,7.92-.32h737.28a113.78,113.78,0,0,1,113.72,113.72Z"/><path class="cls-2" d="M2588.85,2310.43H1851.6a128.67,128.67,0,0,1-128.53-128.53v-529a128.67,128.67,0,0,1,128.53-128.53h737.25a128.68,128.68,0,0,1,128.53,128.53v529A128.68,128.68,0,0,1,2588.85,2310.43ZM1851.6,1554a99,99,0,0,0-98.91,98.9v529a99,99,0,0,0,98.91,98.9h737.25a99,99,0,0,0,98.9-98.9v-529a99,99,0,0,0-98.9-98.9Z"/><path class="cls-1" d="M2786,1902c-2,27.72-10.36,55.72-26.28,83.6H1686.82c-15.92-27.88-24.28-55.88-26.32-83.6-4.92-66.44,26.52-131.4,77.36-190.6,39.24-45.72,90.08-88,144.76-124.76,25.36-17.08,51.52-33,77.8-47.48,100.6-55.64,201.88-91,259.8-94.6h6.08c57.92,3.64,159.16,39,259.76,94.6,42.48,23.48,84.84,50.56,123.76,80.44,34.32,26.32,66,54.8,92.76,84.8C2757,1765.46,2791.1,1833,2786,1902Z"/><path class="cls-2" d="M2759.7,2001.62a16,16,0,0,1-13.89-23.92c33.88-59.44,32.78-123.42-3.25-190.18-93.25-172.77-398.76-319.17-516.77-327h-5.05c-118,7.79-423.52,154.19-516.78,327-36,66.76-37.13,130.74-3.25,190.18a16,16,0,0,1-27.8,15.85c-39.71-69.67-38.74-144.1,2.89-221.23,99.91-185.1,416.6-335.74,543.42-343.73l1,0,7.08,0c126.83,8,443.51,158.63,543.42,343.73,41.63,77.13,42.6,151.56,2.89,221.23A16,16,0,0,1,2759.7,2001.62Z"/><path class="cls-1" d="M2012,2120.15c-63.59,25.74-162,20.36-229.08,12.24a72,72,0,0,1-62.56-82.1h0a72,72,0,0,1,74.56-61.46c62.76,2.94,156.88,4.32,216.49-8.9"/><path class="cls-1" d="M2498.41,2120.15c63.58,25.74,162,20.36,229.08,12.24a72,72,0,0,0,62.55-82.1h0a72,72,0,0,0-74.56-61.46c-62.75,2.94-156.87,4.32-216.48-8.9"/><path class="cls-1" d="M2523,1933.58v224.73a76.06,76.06,0,0,1-75.82,75.82H2033.3a76,76,0,0,1-75.77-75.82V1933.58a76,76,0,0,1,75.77-75.76h413.86a76,76,0,0,1,75.82,75.76Z"/><path class="cls-1" d="M1424.79,2295.9l161.5-299.46H2801.36a116.52,116.52,0,0,1,98.15,53.72l132.32,206.75,21,39a26.14,26.14,0,0,0,13.24-36.63l-34.26-63.53-140.48-260.47H1586.29l-174.73,324A26.14,26.14,0,0,0,1424.79,2295.9Z"/><path class="cls-1" d="M1686.81,1929.15C1859,1729.75,2063,1874.81,2063,1874.81l.05-.11c-32.38-62.37-116-134.79-236.19-99.59C1735.25,1802,1696.7,1871.08,1686.81,1929.15Z"/><path class="cls-2" d="M2751.7,2020c-42.4,59.12-123.08,48.2-149.68,48.16s-83.16-5.36-115.24-22.64c-38.24-20.68-27.32-111.32-27.32-111.32s-78.72,5-79.76-.2c-1.76-8.88-.52-20.56,3.48-33.64,15.36,2.6,76.28-1.28,76.28-1.28s22.71,72.9,49.36,94.36c20.5,16.51,68.36,28.8,95,28.88s105.88-2.92,148.28-62c8-11.24,14.64-26.4,18-43.68C2777,1958.9,2766.9,1998.78,2751.7,2020Z"/><path class="cls-2" d="M1707.91,2020c42.4,59.12,123.08,48.2,149.68,48.16s83.16-5.36,115.24-22.64c38.24-20.68,27.32-111.32,27.32-111.32s78.72,5,79.76-.2c1.76-8.88.52-20.56-3.48-33.64-15.36,2.6-76.28-1.28-76.28-1.28s-22.71,72.9-49.36,94.36c-20.5,16.51-68.36,28.8-95,28.88s-105.88-2.92-148.28-62c-8-11.24-14.64-26.4-18-43.68C1682.59,1958.9,1692.71,1998.78,1707.91,2020Z"/><path class="cls-1" d="M2772.81,1929.15c-172.22-199.4-376.19-54.34-376.19-54.34l0-.11c32.38-62.37,116-134.79,236.19-99.59C2724.37,1802,2762.92,1871.08,2772.81,1929.15Z"/><path class="cls-1" d="M2776.6,1252.46h0a10.59,10.59,0,0,1-11.34-9.76L2742.5,938.83a10.57,10.57,0,0,1,9.76-11.34h0a111,111,0,0,1,119,102.38l7.77,103.62A111,111,0,0,1,2776.6,1252.46Z"/><path class="cls-2" d="M2775.8,1255.36a13.47,13.47,0,0,1-13.4-12.44l-22.77-303.87A13.49,13.49,0,0,1,2752,924.62a113.86,113.86,0,0,1,122.05,105l7.76,103.62a114,114,0,0,1-105,122h0Zm-15.08-325.31q-4.11,0-8.25.31a7.7,7.7,0,0,0-7.1,8.26l22.76,303.86a7.67,7.67,0,0,0,8.26,7.11h0a108.23,108.23,0,0,0,99.73-115.88l-7.76-103.62a108.12,108.12,0,0,0-107.64-100Z"/><g class="cls-3"><path class="cls-2" d="M2875.35,1084.9l3.65,48.6a111,111,0,0,1-102.4,119,10.6,10.6,0,0,1-11.34-9.78l-6.08-80.78a10.6,10.6,0,0,0,10.07,5.54l7.2-.56A110.91,110.91,0,0,0,2875.35,1084.9Z"/></g><path class="cls-2" d="M2775.79,1268.49a26.62,26.62,0,0,1-26.48-24.59L2726.54,940a26.61,26.61,0,0,1,24.52-28.49,127,127,0,0,1,136.12,117.14L2895,1132.3a127.14,127.14,0,0,1-117.15,136.11h0C2777.13,1268.46,2776.46,1268.49,2775.79,1268.49Zm-.37-32h0Zm-16.55-293.31L2780.8,1236A95.11,95.11,0,0,0,2863,1134.69l-7.76-103.62a95,95,0,0,0-96.4-87.88Z"/><path class="cls-1" d="M1749.26,1002.63h0a10.59,10.59,0,0,1,11.34,9.76l22.76,303.87a10.57,10.57,0,0,1-9.76,11.34h0a111,111,0,0,1-119-102.38l-7.77-103.62A111,111,0,0,1,1749.26,1002.63Z"/><path class="cls-2" d="M1765.13,1330.79a113.86,113.86,0,0,1-113.36-105.36L1644,1121.81a114,114,0,0,1,105-122h0a13.46,13.46,0,0,1,14.42,12.41l22.77,303.87a13.48,13.48,0,0,1-12.41,14.42C1770.91,1330.69,1768,1330.79,1765.13,1330.79Zm-15.07-325.31-.59,0h0a108.23,108.23,0,0,0-99.73,115.88L1657.5,1225a108.12,108.12,0,0,0,115.89,99.73,7.72,7.72,0,0,0,7.11-8.26l-22.77-303.87a7.7,7.7,0,0,0-7.67-7.13Z"/><g class="cls-3"><path class="cls-2" d="M1777.07,1232l6.31,84.3a10.61,10.61,0,0,1-9.78,11.35,110.94,110.94,0,0,1-118.95-102.37l-3.27-43.66A111.06,111.06,0,0,0,1757.07,1239l11.09-.84A10.67,10.67,0,0,0,1777.07,1232Z"/></g><path class="cls-2" d="M1765.22,1343.92a127.16,127.16,0,0,1-126.54-117.5l-7.76-103.62a127.13,127.13,0,0,1,117.14-136.12h0a26.57,26.57,0,0,1,28.49,24.52l22.77,303.87a26.62,26.62,0,0,1-24.52,28.49C1771.59,1343.8,1768.39,1343.92,1765.22,1343.92Zm-20.16-324.77a95,95,0,0,0-82.23,101.25l7.76,103.62c3.78,50.42,46.45,89,96.4,87.88Zm5.39-.56Z"/><g class="cls-3"><path class="cls-2" d="M2661.82,1565.7a519.33,519.33,0,0,1-396.88,186.72c-150.92.56-287-63.32-382.32-165.76a524.25,524.25,0,0,1-39-47.16c2.6-.24,5.24-.32,7.92-.32h108.84c100.6-55.64,201.88-91,259.8-94.6h6.08c57.92,3.64,159.16,39,259.76,94.6h102.8A113.11,113.11,0,0,1,2661.82,1565.7Z"/></g><circle class="cls-1" cx="2262.99" cy="1127.54" r="519.27"/><path class="cls-2" d="M2262.94,1649.69c-138.72,0-269.24-53.77-367.76-151.54-99-98.25-153.8-229.16-154.33-368.63s53.29-270.79,151.54-369.79S2121.55,605.93,2261,605.4h2c287,0,521,232.92,522.12,520.16h0c1.08,287.91-232.26,523-520.17,524.12ZM2263,611.15h-2c-137.93.52-267.4,54.73-364.57,152.63s-150.38,227.79-149.85,365.72,54.72,267.4,152.62,364.57c97.43,96.69,226.53,149.87,363.71,149.87h2c284.74-1.08,515.51-233.6,514.43-518.35h0C2778.3,841.52,2546.83,611.15,2263,611.15Z"/><g class="cls-3"><path class="cls-2" d="M2777,1053.71a515.81,515.81,0,0,1,5.26,71.87c1.05,286.77-230.54,520.13-517.31,521.25s-520.14-230.55-521.25-517.32c0-8.24.12-16.5.49-24.63,36,252.64,253.59,446.43,516,445.45C2538.71,1549.25,2765.14,1329.11,2777,1053.71Z"/></g><path class="cls-2" d="M2262.93,1662.81c-142.2,0-276-55.11-377-155.34-101.48-100.72-157.67-234.93-158.21-377.9s54.62-277.6,155.34-379.08S2118,592.82,2261,592.28H2263c294.21,0,534.11,238.78,535.23,533.24h0c1.11,295.15-238.09,536.18-533.24,537.3ZM2263,624.27h-1.94c-134.42.51-260.6,53.33-355.3,148.75s-146.56,222-146,356.42,53.34,260.61,148.75,355.3c95,94.23,220.77,146.06,354.46,146.06h2c277.5-1,502.41-227.67,501.36-505.17h0C2765.21,848.79,2539.62,624.27,2263,624.27Z"/><path class="cls-2" d="M2780.65,1138.92c1.92,101.59-29.28,196.54-84.2,275.64-41.18,59.31-213.07,165-427.68,171-199,5.55-382.07-97.14-425.46-154.84-57.88-77-92.64-170.68-94.56-272.27-5.08-268.85,223.8-384.67,508.76-390.06S2775.57,870.07,2780.65,1138.92Z"/><path class="cls-2" d="M2252.92,1601.75c-200.43,0-377.76-102.08-422.4-161.45-62-82.5-95.84-179.87-97.77-281.58-2.51-132.78,48.83-236.18,152.57-307.32,90.25-61.9,218.84-96.14,371.89-99s282.84,26.46,375.37,84.9c106.35,67.18,161.55,168.57,164.06,301.34h0c1.93,101.71-28.18,200.29-87,285.08-40.88,58.86-212,171.47-440.38,177.84C2263.77,1601.68,2258.33,1601.75,2252.92,1601.75ZM2276,784.19q-9.52,0-18.22.17c-150.33,2.84-499.29,44.95-493.07,373.76,1.79,94.93,33.38,185.86,91.35,263,41.11,54.68,218.93,153.88,412.22,148.47,214.29-6,378.5-111.56,415-164.11,55-79.22,83.14-171.28,81.35-266.21h0C2758.68,823.07,2434.6,784.19,2276,784.19Z"/><g class="cls-4"><ellipse class="cls-1" cx="2612.27" cy="1105.56" rx="91.89" ry="66.59" transform="translate(1103.79 3507.79) rotate(-80.81)"/></g><g class="cls-4"><ellipse class="cls-1" cx="2534.16" cy="1289.11" rx="42.18" ry="36.2" transform="translate(555.82 3331.15) rotate(-72.87)"/></g><g class="cls-3"><path class="cls-5" d="M2675.56,890c64.21,59,103,140.92,105.08,248.9,1.92,101.62-29.29,196.56-84.18,275.66-41.19,59.31-213.1,165-427.7,171-75.77,2.13-149.22-11.45-213.56-32.3,263.64-13,473-142.68,524.08-216.24,69.72-100.4,109.3-220.92,106.85-349.83A525.51,525.51,0,0,0,2675.56,890Z"/></g><path class="cls-2" d="M1783.29,944.38a16,16,0,0,1-13.09-25.16c89.09-136.22,265.13-216.7,483.09-220.83,216.49-4.14,395.2,67.11,490.8,195.33A16,16,0,0,1,2722,916.6l-1.69-1.26-1.39-1.87c-89.24-120.25-258.6-187-465-183.08-207.41,3.92-374,79.26-457.15,206.71l-.91,1.25A16,16,0,0,1,1783.29,944.38Z"/><g class="cls-4"><path class="cls-1" d="M1867.65,1316.17s-88.28-263.65,52.65-372,346.6-111.86,342-98.58c0,0-226.62,59.42-312.3,241.09C1884,1226.72,1867.65,1316.17,1867.65,1316.17Z"/></g><path class="cls-2" d="M2443.92,1930.44c1.9-5.25,3.69-11.46,5.21-17.31s2.82-11.93,3.78-17.9a109.29,109.29,0,0,0,1.65-17.7c0-5.73-.46-11.4-2.1-16l-.2-.57a7.93,7.93,0,0,1,14.22-6.83c4.31,6.94,6.34,14.18,7.85,21.25a131.2,131.2,0,0,1,2.48,21c.34,6.95.32,13.85,0,20.7s-.79,13.49-1.78,20.84l0,.15a16.1,16.1,0,0,1-31.91-4.33A17.23,17.23,0,0,1,2443.92,1930.44Z"/><path class="cls-2" d="M1982.53,1937.93c-1-7.35-1.44-13.89-1.78-20.84s-.34-13.75,0-20.7a131.2,131.2,0,0,1,2.48-21c1.51-7.07,3.54-14.31,7.85-21.25a7.93,7.93,0,0,1,14.22,6.82l-.2.58c-1.64,4.63-2.13,10.3-2.1,16a109.29,109.29,0,0,0,1.65,17.7c1,6,2.24,12,3.78,17.9s3.31,12.06,5.21,17.31a16.09,16.09,0,1,1-30.27,10.94,16.24,16.24,0,0,1-.81-3.21Z"/><rect class="cls-6" x="281.79" y="1942.6" width="3827.52" height="1331.35" rx="99.75"/><path class="cls-7" d="M1711.47,2039.26c7,14.13,20.61,36.31,45.54,51.86,27.84,17.36,55.38,16.71,109.34,14.7,65-2.42,97.49-3.63,131.2-25.94,10.3-6.82,40-26.48,54-62.64,6-15.58,7.62-32,10.8-64.76,2.93-30.18,4.39-45.27,1.72-49.26C2052.35,1885.68,1974.84,1903.85,1711.47,2039.26Z"/><path class="cls-8" d="M1801.49,930s72.92-143.36,336.45-189.4S2568.08,792,2568.08,792,2658,831.88,2709,900.76c0,0-108.82-150.06-434.26-148.59S1801.49,930,1801.49,930Z"/><path class="cls-9" d="M1971.64,1538s275.52,221.56,593.87-8.54C2565.51,1529.5,2279.1,1681.63,1971.64,1538Z"/><path class="cls-1" d="M2079.91,1934c-1,5.22-79.76.2-79.76.2s10.94,90.65-27.32,111.3c-32,17.29-88.64,22.57-115.22,22.63s-107.29,11-149.69-48.14c-35-48.77-43-196.63,121.69-244.89S2090.41,1880.8,2079.91,1934Z"/><path class="cls-2" d="M1825.59,2085c-38.74,0-95.45-6.55-130.68-55.67-20.7-28.87-33.82-86.53-13.7-144.93,14.42-41.85,51.09-97.44,143.91-124.63,103.4-30.3,174.11,15.67,207.05,45.77,43.19,39.46,70.46,96,63.44,131.59h0c-3.28,16.56-21.07,16-56.45,14.94-7.65-.23-15.22-.56-21.69-.87,1.25,31-1.47,89.2-37,108.4s-95.93,24.49-122.78,24.56c-2.85,0-6.34.14-10.35.3C1841.11,2084.68,1833.74,2085,1825.59,2085Zm65.4-303a201.82,201.82,0,0,0-56.88,8.51c-79.69,23.35-110.68,69.64-122.64,104.36-15.53,45-6.72,93.31,9.45,115.85,32.6,45.46,92.79,43.1,125.12,41.81,4.47-.18,8.36-.33,11.53-.34,26.91-.06,79.93-5.75,107.66-20.71,21.66-11.69,22.18-69.26,19-95.3L1982,1917l19.21,1.22c22.53,1.44,48.9,2.43,63.28,2.11-2.28-22.2-19.45-59.75-53.87-91.2C1989.1,1809.5,1948.64,1781.93,1891,1781.93ZM2079.91,1934h0Z"/><path class="cls-7" d="M2742.52,2038.65c-7,14.14-20.62,36.32-45.54,51.86-27.84,17.36-55.39,16.71-109.34,14.71-65-2.42-97.5-3.63-131.2-25.95-10.3-6.81-40-26.48-54-62.64-6-15.58-7.63-32-10.8-64.76-2.93-30.18-4.4-45.27-1.73-49.26C2401.63,1885.07,2479.15,1903.25,2742.52,2038.65Z"/><path class="cls-1" d="M2379.71,1934c1,5.22,79.76.2,79.76.2s-10.93,90.65,27.32,111.3c32.05,17.29,88.64,22.57,115.23,22.63s107.28,11,149.69-48.14c35-48.77,43-196.63-121.7-244.89S2369.21,1880.8,2379.71,1934Z"/><path class="cls-2" d="M2634,2085c-8.15,0-15.51-.29-21.71-.54-4-.16-7.5-.3-10.34-.3-26.86-.07-87.08-5.3-122.78-24.56s-38.3-77.44-37-108.4c-6.47.31-14,.64-21.68.87-35.43,1.07-53.18,1.61-56.45-14.94h0c-7-35.56,20.25-92.12,63.43-131.59,32.94-30.1,103.65-76.07,207.06-45.77,92.81,27.19,129.48,82.78,143.9,124.63,20.12,58.4,7,116.06-13.7,144.93C2729.48,2078.42,2672.77,2085,2634,2085Zm-156.37-168-2.3,19.1c-3.11,26.06-2.54,83.66,19,95.31,27.73,15,80.76,20.65,107.66,20.71,3.17,0,7.06.16,11.53.34,32.34,1.29,92.53,3.65,125.13-41.81,16.16-22.54,25-70.81,9.44-115.85-12-34.72-43-81-122.64-104.36-88.37-25.88-148.49,13.13-176.47,38.7-34.42,31.45-51.59,69-53.87,91.19,14.4.31,40.76-.67,63.29-2.11Zm-82.25,13.87v0h0Z"/></svg>