<svg xmlns="http://www.w3.org/2000/svg" xmlns:xlink="http://www.w3.org/1999/xlink" viewBox="0 0 219.65 261.18"><defs><style>.cls-1{fill:url(#Degradado_sin_nombre_20);}.cls-2{fill:url(#Degradado_sin_nombre_20-2);}</style><linearGradient id="Degradado_sin_nombre_20" x1="109.24" y1="211.03" x2="46.14" y2="101.73" gradientUnits="userSpaceOnUse"><stop offset="0" stop-color="#041c64"/><stop offset="0.48" stop-color="#3d46f2"/><stop offset="1" stop-color="#1fb4e6"/></linearGradient><linearGradient id="Degradado_sin_nombre_20-2" x1="128.47" y1="95.22" x2="70.86" y2="-4.56" xlink:href="#Degradado_sin_nombre_20"/></defs><g id="Capa_2" data-name="Capa 2"><g id="Capa_1-2" data-name="Capa 1"><path class="cls-1" d="M71.39,147.68c-.12,6.53-1.35,70.44-5.6,73.66a.55.55,0,0,0-.2.29c-1.06,2.85-13.3,33.55-54.78,39.54a.65.65,0,0,1-.75-.62V147.21a.49.49,0,0,1,0-.12c.28-1.33,5.67-26.49,24.64-38.71C53.9,96,94.78,99.53,96,99.64h.06l76-.54a.63.63,0,0,1,.65.72c-.76,4.43-5.37,27.91-19.33,35.84a.18.18,0,0,0-.07.05,62.44,62.44,0,0,1-42.11,11.71c-22.34-1.93-36.37-.65-39.27-.34A.62.62,0,0,0,71.39,147.68Z"/><path class="cls-2" d="M0,125.62s17.07-34.15,33.54-43.9,53-11,53-11h71.34s33.54-1.83,48.78-29.27S219.51,0,219.51,0H104.27S68.9-.6,50,7.94A116.79,116.79,0,0,0,27.52,22,53.13,53.13,0,0,0,8.67,50.62L5.49,62.81Z"/></g></g></svg>