<svg id="Layer_1" data-name="Layer 1" xmlns="http://www.w3.org/2000/svg" viewBox="0 0 4314.87 4000"><defs><style>.cls-1{fill:none;stroke:#bcbec0;stroke-miterlimit:10;stroke-width:20px;}.cls-2{fill:#371a45;}.cls-3{fill:#fff;}.cls-4{opacity:0.35;}.cls-5{opacity:0.3;}.cls-6{fill:#293856;}.cls-7{fill:#21102b;}.cls-8{opacity:0.5;}.cls-9{fill:#3d46f2;}.cls-10{fill:#121c75;}.cls-11{fill:#d1d3d4;}</style></defs><path class="cls-1" d="M2176.35,2197.38s578.88,411.31,1131.84,175.94-172.8-530.88-172.8-530.88-838.08-222.88-198.72,926.24,1378.2,0,1378.2,0"/><path class="cls-2" d="M315.56,1455.21c2.12,2.12,4.38,4.09,6.66,6,1.13,1,2.36,1.86,3.57,2.75s2.44,1.75,3.66,2.63c2.44,1.77,5.08,3.21,7.65,4.77s5.27,2.84,7.94,4.17c10.75,5.24,21.95,8.61,32.61,11.61s20.93,5.64,31.08,9,20.22,7.29,30.57,11.78h0a2.21,2.21,0,0,0,2.63-3.38,129.4,129.4,0,0,0-24.86-24.21c-9.33-7-19.46-12.91-29.2-18.25s-19-10.41-27.77-15.42c-2.17-1.31-4.44-2.45-6.55-3.79l-3.25-1.91-1.65-.92c-.53-.33-1.05-.67-1.59-1-2.14-1.33-4.35-2.52-6.51-3.84s-4.35-2.6-6.68-3.74l-1-.5a15.09,15.09,0,0,0-17.33,24.23Z"/><path class="cls-3" d="M1786.81,2485.66c.64,65.52,48.25,98.84,152.78,94.35s137,44.47,142.45,53.77c18.51,31.44,142.45,321.85-25.72,373.06-118.62,36.11-207.5-155-207.5-155s-287.35,134.75-587.89-318"/><path class="cls-2" d="M1563.76,2807.05c31,4.75,61.4,4,90.29-2.23,92.93-20.18,170.73-95.53,231.27-223.94a16.92,16.92,0,1,0-30.62-14.43c-55.81,118.39-125.74,187.46-207.83,205.29-114.5,24.87-215.38-59.12-216.39-60a16.93,16.93,0,1,0-21.87,25.84c1.16,1,29,24.37,72.87,44.37A313,313,0,0,0,1563.76,2807.05Z"/><g class="cls-4"><path class="cls-2" d="M2056.31,3006.85c-118.62,36.1-207.49-155-207.49-155s-287.34,134.72-587.89-318L1605,2502.31c84.28,234,272.48,254.3,272.48,254.3s30.87,223.85,204.34,196.82c46.7-7.28,48-63.21,61.45-80.59C2141.78,2933.77,2120,2987.45,2056.31,3006.85Z"/></g><path class="cls-2" d="M2008.4,3026.91a118.18,118.18,0,0,0,52.85-3.88c41.6-12.67,70.57-39.29,86.1-79.14,18.54-47.57,17.31-112.31-3.64-192.42-15.4-58.87-38.26-111.29-47.09-126.28-9.27-15.76-48.07-66.81-157.76-62.1-55.92,2.41-94.83-6.39-115.65-26.13-12.88-12.22-19.26-29.06-19.48-51.47a16.93,16.93,0,1,0-33.85.34c.31,31.62,10.42,57.08,30,75.69,28.12,26.67,74,38.25,140.41,35.4,93.18-4,122.25,37.16,127.13,45.45,11.51,19.55,86.66,190.93,48.35,289.23-11.73,30.11-32.8,49.42-64.41,59-103.14,31.41-186.4-144.19-187.23-146L1857,2829.3l-15.36,7.2c-.64.29-69.76,31.34-173,9-96.12-20.78-242.44-93.35-393.58-321a16.93,16.93,0,0,0-28.21,18.72c69.65,104.92,144.57,187.33,222.7,244.94,63.2,46.6,128.66,77.23,194.58,91q11,2.31,21.57,3.91c74.28,11.4,129.49-1.68,154.91-10.06,9.59,18,28.48,50.32,54.64,80.86C1931.63,2996.4,1970,3021,2008.4,3026.91Z"/><path class="cls-3" d="M1423.39,1766.76c10.86-.22,249.48-70.77,398.43-45.73,124.2,20.87,296.86,477.54,238.17,581.6-54.39,96.43-284,156.46-284,156.46Z"/><path class="cls-3" d="M1423.4,1766.77l57.3,112.52L1776,2459.09s111.34-29.1,197.32-79.37c37.5-21.87,70.14-47.79,86.68-77.09,58.7-104-114-560.74-238.17-581.61C1672.86,1696,1434.26,1766.54,1423.4,1766.77Z"/><g class="cls-4"><path class="cls-2" d="M1480.7,1879.29,1776,2459.09a.51.51,0,0,0,.17,0l4.79-1.31c.52-.15,1.11-.3,1.73-.49.1,0,.2-.05.34-.08.55-.16,1.17-.35,1.79-.5,1.49-.46,3.17-.92,5-1.46.44-.15.93-.27,1.41-.42s.86-.26,1.31-.38,1.13-.34,1.72-.53c6-1.76,13.23-4,21.45-6.66,1-.3,2-.64,3.07-1,3.09-1,6.33-2.08,9.67-3.21,1.1-.38,2.23-.76,3.37-1.13,1.31-.42,2.65-.91,4-1.36,1.65-.6,3.33-1.17,5.05-1.77.52-.15,1-.34,1.48-.53,1.24-.45,2.48-.86,3.75-1.31,3.54-1.28,7.16-2.56,10.84-3.9a2.59,2.59,0,0,1,.37-.15c2.55-.94,5.16-1.91,7.77-2.92a.46.46,0,0,0,.21-.08c1.89-.71,3.78-1.42,5.7-2.16,1.21-.45,2.41-.94,3.65-1.42,4.57-1.79,9.24-3.62,14-5.55,3-1.23,6.07-2.52,9.16-3.82,2.79-1.15,5.6-2.38,8.41-3.6s5.63-2.47,8.48-3.73l8.51-3.88c2.85-1.32,5.66-2.65,8.47-4s5.65-2.72,8.46-4.15c0,0,0,0,0,0,2.81-1.4,5.62-2.83,8.39-4.25l8.36-4.4c.44-.22.89-.47,1.3-.69l6.94-3.83c2.74-1.54,5.44-3.1,8.14-4.67,37.5-21.87,70.14-47.79,86.68-77.09,30.63-54.29-1.75-204.61-57.37-338.92,21.12,83.12,27,156.15,7.62,190.6-6.79,12.06-16.31,23.53-27.79,34.4a216.83,216.83,0,0,1-43.07,31.78c-61-162.64-189.78-360.75-274.38-365.25-48.92-2.57-106.06,5.87-161.31,18.54C1496,1875.55,1488.29,1877.39,1480.7,1879.29Z"/></g><path class="cls-2" d="M1767.06,2478.91l13.18-3.44a1015.55,1015.55,0,0,0,123.91-42.85c88.75-37.4,146.14-78.34,170.58-121.67,23.34-41.37,13.09-118.79.39-176.45-16.09-73-45.49-157.14-80.67-230.83-33.1-69.35-99.18-187.46-169.82-199.33-54.82-9.23-127.31-7-215.45,6.47-71,10.88-133.45,26.14-167,34.34-8.87,2.17-17.27,4.22-19.94,4.7l-26.19.52ZM1814.73,1737q2.16.33,4.29.69c39.37,6.62,94.89,75.79,144.88,180.53,34.11,71.46,62.6,152.93,78.16,223.53,15.93,72.29,17.09,127.89,3.19,152.54-20.35,36.07-73.55,73-153.87,106.95A1024.37,1024.37,0,0,1,1784.75,2439l-336.39-660.55,1.86-.46C1510.84,1763.22,1693.87,1718.49,1814.73,1737Zm-392.91,12.89Z"/><path class="cls-2" d="M1831.29,1715.15c-6.38,5.1-12.49,10.14-18.65,15.28s-12.24,10.29-18.3,15.52c-12.12,10.43-24.1,21-35.85,31.93s-23.36,22-34.55,33.59c-1.4,1.45-2.82,2.87-4.21,4.34l-4.12,4.45c-2.73,3-5.54,5.87-8.17,9s-5.36,6.11-8,9.28l-7.66,9.69a9.67,9.67,0,0,0,15,12.26l.22-.27c9.8-11.58,20.93-22.46,32.31-33s23.32-20.78,35.38-30.78,24.39-19.75,36.84-29.32q9.33-7.18,18.79-14.21c6.28-4.68,12.67-9.38,18.92-13.83l0,0a14.95,14.95,0,0,0-17.35-24.35Z"/><path class="cls-3" d="M2014.64,1981.11l-117.83,66.23a26.47,26.47,0,0,0-12.67,29.82c11.28,42.73,42.46,140.06,94.95,152.48,43.56,10.32,93.83-16.77,112.12-56.52,20.46-44.46-18.32-136.08-39.7-180.42A26.5,26.5,0,0,0,2014.64,1981.11Z"/><g class="cls-4"><path class="cls-2" d="M1884.16,2077.17c11.25,42.73,42.45,140,94.93,152.46,43.58,10.32,93.83-16.76,112.14-56.52,12.56-27.36,2.73-72.54-11.67-113.58,3.65,22.16,2.45,42.1-3.42,57.56-33.61,88.56-112.49,39.51-112.49,39.51s0,20.85-5.88,24.79c-24.68,16.47-58-69.28-74.29-114.06A25.56,25.56,0,0,0,1884.16,2077.17Z"/></g><path class="cls-2" d="M1982.75,2247.59c48.47,7.43,102.74-21.55,123.84-67.39,21.85-47.48-9.6-132.17-39.83-194.86a43.43,43.43,0,0,0-60.41-19h0l-117.84,66.22a43.42,43.42,0,0,0-20.73,48.91c6.31,23.9,17.21,59.08,33.27,90.91,21.37,42.33,46.32,67.13,74.14,73.71Q1978.94,2247,1982.75,2247.59Zm46.33-252.85a10.77,10.77,0,0,1,1.44.33,9.51,9.51,0,0,1,5.74,5c37.16,77,52,139.1,39.57,166-14.8,32.17-54.08,53.27-87.83,48.1-1.69-.26-3.36-.59-5-1-35.73-8.46-66-78-82.48-140.33a9.54,9.54,0,0,1,4.59-10.75l117.83-66.22A9.5,9.5,0,0,1,2029.08,1994.74Z"/><path class="cls-2" d="M2048.07,2203.57l.16,0h-.05a.35.35,0,0,1-.13,0h-.4c-.31,0-.62,0-1,0-.68,0-1.42-.09-2.16-.17-1.49-.14-3-.39-4.61-.68a75.82,75.82,0,0,1-9.46-2.47,83.11,83.11,0,0,1-9.36-3.71,90.58,90.58,0,0,1-9.07-4.8,125.23,125.23,0,0,1-31.9-27.93,180.45,180.45,0,0,1-12.91-17.83l-2.94-4.72-2.86-4.91c-1-1.63-1.89-3.29-2.81-4.94s-1.87-3.3-2.73-5c-3.6-6.66-7-13.43-9.95-20.32-1.47-3.45-2.9-6.92-4.13-10.42-.61-1.74-1.19-3.5-1.72-5.25-.24-.86-.51-1.75-.71-2.6-.11-.43-.23-.86-.31-1.27l-.24-1.09-.12-.55a4.45,4.45,0,0,0-8.79,1.28l.07,1,.08.81c0,.55.13,1.06.2,1.58.13,1,.31,2,.47,3.05.36,2,.78,4,1.22,5.93.9,3.91,2,7.73,3.12,11.54,2.32,7.59,5,15,8,22.33.71,1.85,1.5,3.64,2.25,5.46s1.51,3.64,2.31,5.43l2.38,5.4,2.58,5.44a200.2,200.2,0,0,0,11.94,21.15,147.2,147.2,0,0,0,33.61,36.77,115.88,115.88,0,0,0,10.63,7.28,110.58,110.58,0,0,0,11.53,6.19,105.27,105.27,0,0,0,12.47,4.83c2.17.67,4.37,1.3,6.68,1.81,1.15.26,2.32.5,3.55.71.6.11,1.26.21,1.9.3l1,.13.6.06.31,0,.52,0a14.94,14.94,0,1,0,.76-29.88Z"/><path class="cls-3" d="M1113.78,2082.16s-52.37-.74-131.51-19c-158.32-36.49-424-142.77-593.13-452.5-22.06-40.36-153.38-75.66-107-145.57,14.07-21.21,42.53-21.79,42.53-21.79s-38.06-22.86-22.15-63.68c25.17-64.5,142.2-17.25,142.2-17.25s-34.08-49-36.92-90.66c-1.95-29.18,21.66-51.68,40.21-55.73,52.6-11.48,143.17,79.17,198.83,130.62,52.45,48.45,82.26,105.33,113.06,163.75,48.07,91.06,98.63,185.88,241.46,258.4,47.84,24.27,106,46.07,177.94,64.37l-44.2,167.93Z"/><g class="cls-4"><path class="cls-2" d="M1113.78,2082.16s-52.37-.74-131.51-19c-158.32-36.49-424-142.77-593.13-452.5-18.67-34.13-115.5-64.65-116.8-115.56,14.56-21.74,96.27,59.1,119.78,69.8,45.59,20.75,60.5-6.67,64.42-19,14.93-47.08-160.18-99.82-155.94-142.39,5.42-54.35,48.25,49.39,183,72.76,42.6,7.4,61.31-43.74,62.39-39.77,31.68,116.71-62.89,178.71-25.3,257.61,112.33,235.8,336.67,236.07,470.68,267,79.15,18.21,131.52,19,131.52,19l21.36-81.08,18.48-70.18c5.47,1.51,11,3,16.66,4.4l-44.2,167.93Z"/></g><path class="cls-2" d="M1041.85,2092c42.85,6.57,69.4,7.1,71.69,7.13a16.93,16.93,0,0,0,.48-33.85c-1.14,0-117.37-2.51-262.41-60.8-133.35-53.58-319.25-166.8-447.63-401.87-9.45-17.29-31.11-31.52-54-46.59-26.27-17.26-56.06-36.83-60.2-57.1-1.53-7.47.61-15.44,6.53-24.36,8.66-13,27.66-14.19,28.86-14.25a16.83,16.83,0,0,0,8.36-31.41c-2.95-1.86-25.31-17-15.14-43,3.39-8.69,9.06-14.51,17.86-18.3,30.11-13,84,3.25,102.23,10.61a16.93,16.93,0,0,0,20.23-25.36c-.31-.44-31.45-45.77-33.92-82.15-1.42-20.83,16.76-35.85,26.9-38.06,11-2.4,32.89,1.15,75,31.62,31.93,23.13,65.72,54.7,92.87,80.07,5.55,5.19,10.87,10.16,15.91,14.82,49.88,46.08,78.51,100.35,108.81,157.79,32.76,62.09,66.63,126.3,129.76,184.91,71.07,66,169.59,114.32,301.18,147.8a16.93,16.93,0,0,0,8.35-32.81c-280.45-71.35-346-195.57-409.34-315.69-30.31-57.45-61.64-116.85-115.79-166.87-5-4.61-10.27-9.54-15.77-14.68-27.84-26-62.48-58.39-96.13-82.76-43.1-31.21-75.52-43.06-102-37.28-27.82,6.06-55.94,37-53.47,73.44,1.43,21,9.65,43.2,18.26,61.25l-2.4-.52c-34.57-7.3-62.85-6.36-84,2.78-17.18,7.42-29.28,19.89-36,37.09-9.74,25-4.12,45.93,5.72,61.15a61.78,61.78,0,0,0-24.46,21.13c-11,16.58-14.88,33.36-11.5,49.87,7,34.06,43,57.73,74.78,78.61,18.45,12.12,37.53,24.66,42.92,34.53,58.92,107.89,134.41,200.29,224.36,274.64a908.16,908.16,0,0,0,241.7,143C921.07,2068.7,992.34,2084.36,1041.85,2092Z"/><path class="cls-3" d="M2468.86,2607.46c-89,77.19-182.42-45.69-182.42-45.69S2167.28,2781,1984.33,2802.22c-153.73,17.83-321.8-107.24-321.8-107.24s-651.17,77.54-680.26-631.78a1353.49,1353.49,0,0,1,3.21-157.29q4.9-65,15.92-137.12,5.85-37.74,13.44-77.53l525,32.69,60.51,3.81,15.1.93c.33,3.46.67,6.87,1,10.3,11.26,97.79,50.85,176.62,96.28,241.52,57.61,82.4,124.58,142.38,154.86,190.21a494.06,494.06,0,0,1,38,72.6c16,37.93,21.32,63.92,21.32,63.92,20,21.49,84.21,84.62,149.79,54.83,22.74-10.35,40.27-31.15,56.42-54.26,28.62-40.88,53-89,94.81-99.39,60.35-15.07,122.15,16.45,170.24,64.56,30,30,54.69,66.58,70.31,102.31C2495.49,2436.84,2533.91,2551.12,2468.86,2607.46Z"/><g class="cls-4"><path class="cls-2" d="M2484.56,2590.13a96.05,96.05,0,0,1-15.7,17.33c-89,77.19-182.42-45.69-182.42-45.69S2167.28,2781,1984.33,2802.22c-153.73,17.83-321.8-107.24-321.8-107.24s-633.7,75.47-678.74-603.52c76.25,482.68,484.46,518.83,622.93,516.95a158.76,158.76,0,0,1,84.63,23c58.55,35.55,174.43,94.4,283.14,81.79,183-21.24,261.13-241.62,339.81-249.2C2332.69,2462.23,2338.59,2658.46,2484.56,2590.13Z"/></g><path class="cls-2" d="M1901.73,2816.78c29.77,4.56,58.08,5.33,84.52,2.26,44.3-5.14,88.56-21.65,131.56-49.07,33.89-21.61,67.08-50,98.66-84.49a680.39,680.39,0,0,0,72.63-95.1c19.89,20.47,56.38,51.52,99.83,58.19q2.75.42,5.5.71c30.87,3.2,59.65-6.57,85.54-29,32.94-28.57,46.42-71.91,40.05-128.83-4.07-36.32-16.18-77.69-36-123-22.55-51.5-60.42-100.36-103.91-134-24.13-18.69-49-32-74-39.54-28.18-8.51-55.84-9.49-82.21-2.91-40.9,10.19-65.92,48-90.11,84.62-19,28.77-38.69,58.52-64.06,70-22.92,10.42-48.76,7.86-76.79-7.59-16.75-9.23-34.14-23.06-50.51-40.12-4.07-16.66-19.89-73.15-60.49-137.27-15-23.64-37.62-49.17-63.85-78.72-72-81.11-170.56-192.18-185.77-355.84a16.93,16.93,0,0,0-33.71,3.14c16.24,174.7,119.07,290.56,194.16,375.17,25.25,28.46,47.07,53,60.56,74.35,43.94,69.4,56.93,130.27,57,130.87l1,4.63,3.22,3.48c19.67,21.15,41.12,38.43,62,49.95,37.38,20.61,74.43,23.64,107.15,8.77,34.23-15.56,56.63-49.44,78.29-82.2s41.94-63.43,70-70.44c84.72-21.12,180.66,65.17,221,157.22,18.44,42.14,29.67,80.21,33.35,113.15,5.06,45.18-4.55,78.65-28.58,99.48-18.77,16.27-38.32,23.12-59.76,20.93-52.64-5.38-97.67-63.51-98.12-64.1l-15.85-20.72-12.48,22.9c-.28.53-29.77,54.18-80.59,109.48-46,50.06-119.55,111.9-208.64,122.23-75.2,8.73-155-19.72-208.7-45.13-59.16-28-100.6-58.59-101-58.9l-5.41-4-6.7.8c-.76.09-78.52,8.89-179.26-8.34-92.11-15.77-223-57.28-323.67-165.42-154.77-166.33-197.21-438.84-126.15-809.95a16.93,16.93,0,1,0-33.25-6.37c-39.23,204.85-44.33,383-15.16,529.63,25,125.72,75.49,230,150,310,47.48,51,105,92.36,171.11,123,52.61,24.43,110.69,42.15,172.6,52.65,4.06.69,8.1,1.34,12.08,2,83.4,12.8,148.49,8.89,169,7.1a713.58,713.58,0,0,0,100.68,58.14c36.57,17.35,72.44,30.42,106.6,38.85Q1883.76,2814,1901.73,2816.78Z"/><path class="cls-3" d="M662.81,1388.87c-31.49-71.24-117.27-100.4-135.1-99.73-13.59.5-51.38,37.92-23.07,68.37s55.2,34,52.79,46.66S526.18,1459,554.5,1509"/><path class="cls-2" d="M668,1386.59c-5.26-18.69-15.46-36.1-28.21-51.07a191.64,191.64,0,0,0-44.83-38.08,209,209,0,0,0-26.16-13.82c-4.54-2-9.18-3.86-14-5.54a133.1,133.1,0,0,0-15.15-4.29l-2.07-.43c-.69-.14-1.48-.25-2.21-.37-1.41-.26-3.2-.42-4.88-.58-1.06,0-2.11-.06-3.16-.06a30.19,30.19,0,0,0-4.55.52,34.23,34.23,0,0,0-6.59,2.09,48.81,48.81,0,0,0-9.06,5.11,67.56,67.56,0,0,0-7.1,5.78,74.58,74.58,0,0,0-11.45,13.43,66.65,66.65,0,0,0-8.11,16.44,52.6,52.6,0,0,0-2.71,19.66,50,50,0,0,0,5.36,19.83,46.85,46.85,0,0,0,2.46,4.34,43.32,43.32,0,0,0,2.79,4c.95,1.33,2,2.45,3,3.63l.78.87c.25.28.53.61.74.81l1.35,1.36c3.6,3.62,7.37,7.08,11.29,10.34a186.3,186.3,0,0,0,24.61,17c4.08,2.39,8.18,4.67,11.23,6.61,1.49.93,2.67,1.87,2.89,2a8.54,8.54,0,0,0-.38-1,6.11,6.11,0,0,1-.32-2.89,2,2,0,0,1,.08-.55l.05-.13s0,0,0,0v.13a.33.33,0,0,1,0,.13l-.1.45c-.14.63-.41,1.54-.71,2.48-.62,1.93-1.4,4.06-2.17,6.28-1.53,4.44-3.09,9.15-4.43,14a118.25,118.25,0,0,0-4.58,30.07,92.46,92.46,0,0,0,17.85,56.71,5.68,5.68,0,0,0,9.88-5.41l-.06-.15a100.55,100.55,0,0,1-6.69-24.76,86.17,86.17,0,0,1-.69-12.4,94.55,94.55,0,0,1,1.14-12.25,102.46,102.46,0,0,1,2.77-12c1.16-4,2.61-7.88,4.19-11.8s3.37-7.82,5.31-11.9c1-2,1.95-4.17,3-6.54.51-1.2,1-2.46,1.59-4l.41-1.21c.06-.18.14-.45.21-.7l.2-.77.2-.78c0-.14.06-.23.09-.41l.1-.56c.12-.75.22-1.51.3-2.26a22.23,22.23,0,0,0-1.5-9.64,26.34,26.34,0,0,0-4.1-6.8,46.85,46.85,0,0,0-7.56-7c-4.48-3.37-8.29-5.82-12-8.4s-7.13-5-10.43-7.55-6.45-5.27-9.5-8-5.94-5.68-8.7-8.72l-1-1.14a4.37,4.37,0,0,1-.4-.48l-.34-.44a15.65,15.65,0,0,1-1.32-1.74,22.5,22.5,0,0,1-2-3.4,16.63,16.63,0,0,1-1.59-6.69c0-.57.05-1.18,0-1.76s.12-1.22.26-1.85.2-1.25.41-1.91l.25-1,.34-1c1.75-5.37,5.87-11.25,10.65-15.71a33.21,33.21,0,0,1,3.59-3,16.71,16.71,0,0,1,2.88-1.77c.29-.15.37-.14,0-.07h-.06l-.16,0a3.43,3.43,0,0,1-.34.06l-.35,0h-.22a.61.61,0,0,0,.3,0c.6.06,1.12,0,2,.18.4.05.76.07,1.2.15l1.32.23a103.91,103.91,0,0,1,11.51,2.87c4,1.15,8,2.5,12,4s7.92,3.12,11.86,4.8,7.8,3.57,11.63,5.52a218.6,218.6,0,0,1,43.12,28.25,175.91,175.91,0,0,1,34.43,39.23l0,.07a5.7,5.7,0,0,0,10.28-4.63Z"/><path class="cls-2" d="M2026.79,2807.72a15,15,0,0,0,11.23-2.79c37.14-27.62,62.22-68.79,74.54-122.35,9.58-41.62,11.47-90.84,5.63-146.31-9.83-93.42-37.87-171.67-39.06-174.95a15,15,0,1,0-28.2,10.21c.35,1,28.12,78.68,37.49,168.43,8.39,80.48,3.36,187.6-68.3,240.89a15,15,0,0,0,6.67,26.87Z"/><path class="cls-2" d="M652.75,1930.44c.34.06.69.1,1,.13,82.65,6.87,148.44-36.41,190.24-125.15,30.47-64.71,37.34-130.3,37.61-133.06a15,15,0,0,0-29.85-3c-.11,1.08-6.85,64-35.2,123.9-36.51,77.08-90.45,113.22-160.32,107.41a15,15,0,0,0-3.53,29.77Z"/><path class="cls-2" d="M431.72,1369.81l.78,1.9c.23.53.46,1.07.7,1.6.48,1,1,2,1.49,3,1,2,2.13,3.79,3.26,5.61a106.24,106.24,0,0,0,7.47,10.25,163.85,163.85,0,0,0,17.5,17.94c6.17,5.61,12.64,10.88,19.34,15.89,3.39,2.46,6.81,4.89,10.33,7.2,1.77,1.15,3.56,2.27,5.39,3.36s3.65,2.17,5.55,3.19a2.27,2.27,0,0,0,3.19-2.84l0,0c-.8-2-1.66-3.93-2.55-5.84s-1.78-3.81-2.7-5.68c-1.82-3.76-3.72-7.43-5.66-11C492,1407,488,1400,484,1393s-8-13.85-12.38-20.3c-2.17-3.25-4.39-6.41-6.73-9.44-1.16-1.51-2.33-3-3.53-4.44-.61-.72-1.18-1.41-1.81-2.1-.29-.33-.59-.65-.89-1l-.43-.43-.22-.21a.3.3,0,0,0-.13-.06l-6.76-3.32a14.16,14.16,0,0,0-19.35,18.09Z"/><path class="cls-3" d="M1921.69,2275.05c-103.87,214.39-469.41,195.49-486,74.57-5.63-40.91,29.79-60.59,29.79-60.59s304.67,48,414-131.2C1879.45,2157.83,1957.69,2200.73,1921.69,2275.05Z"/><g class="cls-5"><path class="cls-2" d="M1882.26,2243c-116.52,216.93-807.46,171-882.51,43.23-10.07-17.14-6.82-30.35.73-40,145.58,135.37,820.85,132.59,840.25-80.29.3-3.25,2.9-5.9,3.88-8.77C1876.37,2178.79,1900.87,2208.24,1882.26,2243Z"/></g><path class="cls-2" d="M1221.87,2399.57c132.19,20.28,278.36,23,401.64,7.41,148.59-18.79,255.22-62.12,308.36-125.32,36.87-43.85,2.17-82.79-33.42-107.74-36.63-25.67-81.43-41.39-83.32-42.05-16.13-5.6-35.17-4.34-43.24,2.86-72.64,64.84-220.77,96.19-440.28,93.19-167.68-2.3-315.54-24.92-317-25.17l-.1,0a57.19,57.19,0,0,0-20.81.4c-3.48.78-85,19.83-63.52,73.83,20.48,51.48,128.24,97.12,288.25,122.08Zm591.86-228.7a243.67,243.67,0,0,1,36.09,20.78c33.47,23.91,40.14,47,20.38,70.46-98.22,116.82-403.94,140.7-643.17,104l-3.15-.49c-127.37-19.87-215.07-53.78-228.88-88.48-8.94-22.46,14.63-34.34,27.58-39,41.29,5.83,171.61,22.58,320.08,24.72,104.54,1.51,196.28-4.63,272.68-18.23C1701.24,2229.33,1767.83,2204.56,1813.73,2170.87Z"/><path class="cls-3" d="M2510.17,2175.39s-.13,28.91-19.51,47.91c-9.71,9.5-24.47,18.89-41.84,27.71a515.69,515.69,0,0,1-50.63,22c-39.18,14.76-79.88,26.06-103.61,30.89-49.91,10.17-105.07,10.79-161.44,3.94-77-9.36-156.29-32.65-227.53-64.49-67-29.92-126.82-67.44-170.94-108l-27.05-57.11-37-78L1539.83,1724l-29.72-62.73c1.53,1.21,35.57,28.21,90.23,66.54q7.83,5.48,16.15,11.23c62.21,42.91,146.49,97.06,238.45,144.94,143.17,74.62,305,134.14,431.47,112.72,147.25-25,218.65-48.8,248-6.37,29.82,43-20.73,86.61-20.73,86.61s27.57,26.73,22.88,58.6C2532.92,2160.76,2510.17,2175.39,2510.17,2175.39Z"/><g class="cls-4"><path class="cls-2" d="M2324.54,2109.82s-2.54,7.86-10.82,19.37C2319.69,2117.42,2324.54,2109.82,2324.54,2109.82Z"/></g><g class="cls-4"><path class="cls-2" d="M2448.82,2251a515.69,515.69,0,0,1-50.63,22c-39.18,14.76-79.88,26.06-103.61,30.89-49.91,10.17-105.07,10.79-161.44,3.94-77-9.36-156.29-32.65-227.53-64.49-67-29.92-126.82-67.44-170.94-108h0c-8.5-17.94,10.66-36.39,28.26-27.21,90.54,47.27,240,117.14,323.59,112.11,147.95-8.93,206.12-61.81,227.2-91-17.32,33.9-44.07,102.48,8.72,123.54C2342.64,2260.8,2407.89,2261.31,2448.82,2251Z"/></g><path class="cls-2" d="M1506.57,1665.59c4.24,5,8.61,9.77,13.12,14.41s9.08,9.16,13.75,13.58q14,13.26,28.8,25.55c19.68,16.41,40.34,31.52,61.23,46.3,41.78,29.56,85.69,56,130,81.65,22.19,12.78,44.44,25.48,67,37.69s45.33,24,68.42,35.24c46.19,22.42,93.56,42.79,142.48,59.58,24.45,8.38,49.29,15.86,74.6,21.94a617.57,617.57,0,0,0,77.14,13.77l9.83.92,4.92.45c1.64.13,3.29.21,4.94.31l9.88.59c3.3.16,6.61.18,9.92.27,6.61.26,13.26.05,19.9,0,1.66,0,3.32-.09,5-.19l5-.28,5-.27c.84-.06,1.67-.09,2.5-.15l2.5-.25,10-1c.83-.09,1.66-.16,2.5-.27l2.49-.36,5-.72c6.8-.92,12.92-2.06,19.24-3.13q18.87-3.3,37.67-6.75c25.06-4.57,50-9.39,74.75-13.56,12.35-2.06,24.66-4,36.76-5.29,3-.32,6.05-.65,9-.87s5.95-.42,8.9-.59a157.68,157.68,0,0,1,17.14.06,77,77,0,0,1,15.27,2.45,37,37,0,0,1,11.83,5.51,32.82,32.82,0,0,1,8.47,9.23,35.05,35.05,0,0,1,4.87,11.76,34.06,34.06,0,0,1,0,12.61,52.37,52.37,0,0,1-4.66,13.48,82.51,82.51,0,0,1-8.44,13.26c-1.65,2.13-3.4,4.22-5.23,6.22-.91,1-1.84,2-2.78,2.91-.46.46-.93.93-1.39,1.36l-1.13,1.05-13,12.11,12.31,12.87.67.7.92,1c.63.71,1.26,1.44,1.88,2.19,1.23,1.51,2.43,3.09,3.56,4.7a74,74,0,0,1,6,10c3.34,6.79,5.26,13.72,5.3,20.15,0,.8,0,1.61-.06,2.39s-.13,1.58-.22,2.37a7.26,7.26,0,0,1-.19,1.15l-.23,1.14-.21,1.14c-.09.38-.23.75-.34,1.13-.25.75-.39,1.52-.7,2.27s-.6,1.49-.88,2.25A45.89,45.89,0,0,1,2515,2146a50.28,50.28,0,0,1-6.42,8.43l-.94,1-1,1c-.64.66-1.33,1.24-2,1.86s-1.37,1.18-2,1.7c-.34.27-.68.53-1,.75l-.45.32c-.1.08-.33.23-.17.13l-7.77,14.16v0s0,0,0,0v.25q0,.22,0,.54c0,.41,0,.8-.09,1.24-.06.85-.17,1.74-.28,2.62s-.27,1.79-.4,2.68l-.52,2.68a61.31,61.31,0,0,1-3.1,10.26c-.59,1.66-1.39,3.16-2.1,4.71s-1.59,3-2.53,4.3a45.4,45.4,0,0,1-2.85,3.9c-.5.61-1.07,1.14-1.59,1.73l-.79.86c-.25.3-.65.61-1,.91a118.33,118.33,0,0,1-19,14c-7.11,4.35-14.67,8.4-22.43,12.2a525.66,525.66,0,0,1-48.46,20.42c-16.58,6.14-33.48,11.68-50.49,16.71q-12.76,3.75-25.59,7.06-6.4,1.64-12.78,3.1c-4.25,1-8.42,1.86-12.71,2.59s-8.51,1.57-12.79,2.27l-12.92,1.74-3.22.43-3.26.3-6.51.61-6.5.6c-2.17.2-4.36.26-6.54.39-34.88,2.18-70.19.26-105.2-4.17-8.74-1.29-17.5-2.38-26.21-4l-6.53-1.12c-2.18-.37-4.36-.73-6.53-1.19l-13-2.59c-17.32-3.69-34.58-7.76-51.63-12.65a831.74,831.74,0,0,1-100.38-35.27c-16.29-7-32.33-14.62-47.89-23.08l-2.94-1.55-2.9-1.61-5.79-3.24c-3.85-2.17-7.75-4.26-11.54-6.52s-7.65-4.41-11.5-6.57-7.58-4.5-11.42-6.67c-1.91-1.11-3.84-2.18-5.73-3.31l-5.68-3.38-5.71-3.33-2.87-1.65-2.82-1.71c-3.76-2.29-7.55-4.56-11.38-6.76s-7.55-4.56-11.4-6.77-7.62-4.5-11.5-6.69c-1.93-1.11-3.86-2.22-5.84-3.29-1-.53-1.93-1.11-2.89-1.68l-2.91-1.66c-1.93-1.13-3.92-2.2-5.89-3.29-1-.55-2-1.07-3-1.61s-2-1.11-3-1.65c-4-2.21-8-4.34-12.27-6.32l-.22-.1a5.85,5.85,0,0,0-7.77,2.84,5.93,5.93,0,0,0,.35,5.57c2.52,4,5.24,7.9,8.07,11.7,1.38,1.93,2.89,3.72,4.39,5.53s3,3.6,4.59,5.35c3.06,3.6,6.33,6.95,9.65,10.23s6.66,6.63,10.19,9.66,7.06,6.12,10.67,9.08,7.38,5.68,11.12,8.47l2.8,2.09c.94.68,1.91,1.33,2.86,2l5.75,4,5.78,3.9c1.92,1.32,3.93,2.49,5.89,3.73,15.67,10,32.25,18.46,48.89,26.57l12.55,5.94c4.18,2,8.43,3.82,12.64,5.73l6.31,2.88c2.1.95,4.24,1.85,6.35,2.78l12.69,5.57a865.39,865.39,0,0,0,104.51,36.73c17.77,5.09,35.79,9.35,53.89,13.19l13.62,2.71c2.27.48,4.55.86,6.84,1.25l6.85,1.18c9.11,1.67,18.32,2.84,27.5,4.18,36.82,4.66,74.17,6.72,111.63,4.39,2.34-.14,4.68-.21,7-.42l7-.65,7-.65,3.51-.33,3.5-.47,14-1.89c4.66-.75,9.3-1.64,14-2.47s9.34-1.78,13.91-2.84,9.11-2.15,13.62-3.3q13.5-3.46,26.78-7.39c17.72-5.24,35.26-11,52.65-17.42s34.63-13.47,51.62-21.77c8.5-4.18,16.94-8.67,25.28-13.78a151,151,0,0,0,24.55-18.33c.5-.48,1-.88,1.49-1.42l1.53-1.62c1-1.09,2-2.16,3-3.29a76.74,76.74,0,0,0,5.18-7,81.89,81.89,0,0,0,4.35-7.41c1.22-2.54,2.48-5.08,3.45-7.67a96.94,96.94,0,0,0,4.75-15.71l.77-4c.2-1.34.43-2.67.6-4s.33-2.72.45-4.12c.06-.69.11-1.43.15-2.15,0-.35.05-.74.06-1.15l0-.61,0-.83-7.78,14.16c.66-.43.92-.62,1.3-.88l1-.73c.65-.47,1.26-.94,1.85-1.4,1.21-.93,2.32-1.88,3.45-2.85s2.2-2,3.24-3l1.57-1.53,1.52-1.6a84,84,0,0,0,10.83-14.25,81.87,81.87,0,0,0,4.28-8.22l1.73-4.39c.57-1.46,1-3,1.44-4.54.21-.77.46-1.53.64-2.3l.48-2.36.46-2.37c.16-.79.29-1.58.37-2.37.19-1.58.38-3.16.44-4.74s.13-3.16.12-4.74a73.77,73.77,0,0,0-2.55-18.27,89,89,0,0,0-6.22-16.44,106.86,106.86,0,0,0-8.66-14.54c-1.61-2.28-3.29-4.5-5.07-6.67-.89-1.09-1.81-2.16-2.76-3.24l-1.49-1.62-.79-.84-1-1-.74,25,1.3-1.17,1.07-1c.7-.66,1.36-1.31,2-2,1.31-1.31,2.57-2.63,3.8-4q3.69-4,7-8.36a117.07,117.07,0,0,0,11.95-18.87,86.37,86.37,0,0,0,7.66-22.46,68,68,0,0,0-.06-25.27,68.79,68.79,0,0,0-9.46-23.31,66.85,66.85,0,0,0-17.22-18.55,70.54,70.54,0,0,0-22.45-10.66,109.93,109.93,0,0,0-22.26-3.67c-14.37-.89-27.85.12-41,1.53s-26,3.43-38.68,5.55c-25.38,4.28-50.31,9.11-75.25,13.66q-18.69,3.43-37.36,6.69c-6.2,1.05-12.57,2.22-18.37,3l-4.45.64-2.22.33c-.75.1-1.5.15-2.25.23l-9,.89-2.24.22c-.75.06-1.51.09-2.26.13l-4.52.25-4.53.26c-1.5.09-3,.17-4.53.17-6.06.06-12.12.28-18.21,0-3-.09-6.08-.1-9.12-.25l-9.15-.55c-1.52-.09-3-.16-4.57-.28l-4.57-.43-9.15-.84a585,585,0,0,1-72.81-13c-24.11-5.79-48-13-71.6-21.06-47.24-16.21-93.42-36-138.63-58q-33.92-16.5-67.1-34.56c-22.14-12-44.09-24.4-65.65-37.47l-16.15-9.84-16-10c-10.65-6.76-21.27-13.55-31.83-20.46l-63.36-41.39c-21.17-13.75-42.15-27.78-63.68-41.11q-16.12-10-32.63-19.58c-5.51-3.18-11-6.33-16.65-9.39s-11.28-6.1-17-8.94l-.06,0a5.76,5.76,0,0,0-7,8.86Z"/><path class="cls-3" d="M714.75,1446.61c263.46,857.39,1467,534.08,1303.57-314.14C1769.45,248.4,525.74,583.77,714.75,1446.61Z"/><path class="cls-3" d="M714.75,1446.61c263.46,857.39,1467,534.08,1303.57-314.14C1769.45,248.4,525.74,583.77,714.75,1446.61Z"/><g class="cls-4"><path class="cls-2" d="M1875.45,1883A685.81,685.81,0,0,1,1731,1981.18q-21.06,10.63-42.79,19.94c-171.21,73-370.92,78.55-544.16,1A620.39,620.39,0,0,1,992,1905.37q5-66,16.17-139.33,6-38.36,13.66-78.78l533.47,33.22-30.2-63.75c1.56,1.23,36.14,28.67,91.68,67.62l15.35.94c.33,3.51.68,7,1.07,10.47C1696.36,1779.36,1782,1834.38,1875.45,1883Z"/></g><path class="cls-3" d="M714.75,1446.61c263.46,857.39,1467,534.08,1303.57-314.14C1769.45,248.4,525.74,583.77,714.75,1446.61Z"/><path class="cls-2" d="M1249.5,1955.47c90.08,13.82,184.13,9.49,276.76-13.59a715.52,715.52,0,0,0,225.56-99.57c70.8-47.35,130.65-105.87,177.88-173.92,104.64-150.76,139.45-336.89,100.66-538.24l-.24-1c-58.41-207.52-175.9-363.79-339.74-451.89-73.64-39.6-154.36-64.27-239.94-73.34-82.3-8.72-165.69-2.73-247.85,17.82A720.27,720.27,0,0,0,973.74,723.36C902,771.77,841.68,831.49,794.51,900.89c-104.82,154.2-136.54,343.82-91.74,548.34l.25,1C765,1651.72,883.3,1803.3,1045.29,1888.55A649.43,649.43,0,0,0,1249.5,1955.47Zm756.88-820.17c83.33,433.86-193.49,709.88-486.05,782.78-87.15,21.72-179.61,27.13-270.11,13.25-220.43-33.82-429.46-182-523.6-487.84-96.43-441.35,182.16-723,481.92-798C1505.39,571.3,1881.6,692.92,2006.38,1135.3ZM714.75,1446.61h0Z"/><g class="cls-4"><path class="cls-2" d="M714.75,1446.58c214.67,744.52,1245.62,628.08,1318.33-113.09C1933.43,1555,1851,1544.74,1699.87,1633.07c-469.93,296.17-989.94-132.31-950.26-619.24C689.26,1152.22,678.79,1304.75,714.75,1446.58Z"/></g><path class="cls-6" d="M1248.75,1960.35c90.72,13.92,185.44,9.56,278.71-13.68a720.73,720.73,0,0,0,227.11-100.25c71.31-47.7,131.6-106.65,179.18-175.21,105.42-151.89,140.5-339.3,101.46-542l-.14-.71-.19-.7c-58.79-208.84-177.11-366.14-342.16-454.9C1618.51,633,1537.17,608.14,1451,599c-82.88-8.78-166.85-2.75-249.57,17.94A725.16,725.16,0,0,0,971,719.27C898.7,768,838,828.2,790.42,898.11c-105.6,155.36-137.57,346.3-92.48,552.18l.16.69.2.68C760.62,1654.45,879.81,1807,1043,1892.92A654.21,654.21,0,0,0,1248.75,1960.35Zm752.82-823.92c82.57,430.58-192.11,704.52-482.43,776.86-297.13,74-655.84-43-787.74-471.06-95.58-438,180.87-717.53,478.33-791.91C1504.29,576.67,1877.61,697.42,2001.57,1136.43ZM714.75,1446.61h0Z"/><path class="cls-2" d="M1248.75,1960.35c90.72,13.92,185.44,9.56,278.71-13.68a720.73,720.73,0,0,0,227.11-100.25c71.31-47.7,131.6-106.65,179.18-175.21,105.42-151.89,140.5-339.3,101.46-542l-.14-.71-.19-.7c-58.79-208.84-177.11-366.14-342.16-454.9C1618.51,633,1537.17,608.14,1451,599c-82.88-8.78-166.85-2.75-249.57,17.94A725.16,725.16,0,0,0,971,719.27C898.7,768,838,828.2,790.42,898.11c-105.6,155.36-137.57,346.3-92.48,552.18l.16.69.2.68C760.62,1654.45,879.81,1807,1043,1892.92A654.21,654.21,0,0,0,1248.75,1960.35Zm752.82-823.92c82.57,430.58-192.11,704.52-482.43,776.86-297.13,74-655.84-43-787.74-471.06-95.58-438,180.87-717.53,478.33-791.91C1504.29,576.67,1877.61,697.42,2001.57,1136.43ZM714.75,1446.61h0Z"/><path class="cls-2" d="M778,1606.36c532.29,580.39,1313.62-9,955.17-598C1291.56,373,421.71,888.84,778,1606.36Z"/><path class="cls-7" d="M740.35,1107.4c-210.14,680,746.38,1033.23,1040.54,443C1357.31,1822,822.54,1492.45,740.35,1107.4Z"/><path class="cls-2" d="M1187.85,1924.74a612.35,612.35,0,0,0,195.41-2,647,647,0,0,0,207.09-72.84,629.42,629.42,0,0,0,172.57-140.45,602.38,602.38,0,0,0,114.17-200.93c26.61-79.1,37.25-164.32,31.65-253.28l0-.44c-8.12-91.39-36.54-179.7-84.47-262.49-45.21-78.08-107.79-149.54-181-206.64C1569.88,728.42,1485,685,1397.92,660c-92.54-26.48-185.85-32.58-277.34-18.11l-1.45.23-1.39.47c-158.85,53.83-289.52,171.6-367.92,331.63-74.05,151.15-92.89,325-51.67,476.85l0,.12c25.66,91.82,63.68,172.94,113,241.11,46.14,63.79,102,116.12,166.06,155.54a561,561,0,0,0,197.83,74.76C1179.32,1923.38,1183.58,1924.09,1187.85,1924.74Zm686.57-667.1c22.3,355.39-233.07,586.53-496.9,631.2-229.61,38.88-536.6-54.79-646.18-446.78-75.73-279.22,65.37-653.41,396.05-766.38,169.06-26.28,349.3,23.65,494.71,137.13C1767.34,926.15,1859.29,1088.27,1874.42,1257.64Zm-1159.67,189h0Z"/><path class="cls-2" d="M1181,1855.05q16.54,2.55,33.2,4.14a581.87,581.87,0,0,0,406.21-114.26c107.72-81,182-195.27,209.23-321.89,30.06-139.86,1.78-286.37-81.78-423.67l-.57-.88c-104.42-150.23-240-247.61-392.09-281.6-136.73-30.56-279.17-7.68-401.06,64.41-124.73,73.77-215.2,191.3-254.74,330.94-44.18,156-22.33,329.53,63.18,501.77l1.09,2.19,1.64,1.79C886.73,1750.41,1029.83,1831.87,1181,1855.05Zm537.74-837.35c175.88,289.44,67,560-119,699.72-204.84,153.94-533.7,176-807.42-120.89C614,1235.1,760.06,936,971.62,810.91,1184.37,685.08,1497.82,700.25,1718.71,1017.7ZM778,1606.36h0Z"/><path class="cls-3" d="M2051.7,1634.48c-132.25,287.29-431.32,178.93-332.71-108.07C1846.55,1220.21,2166.25,1336,2051.7,1634.48Z"/><g class="cls-4"><path class="cls-2" d="M1795.29,1795.68c-89.89-31.83-123.55-162.81-70.33-284,18.63,148.9,221.42-28.22,249.51-87.8C2191.67,1551.94,1959.13,1857.67,1795.29,1795.68Z"/></g><path class="cls-2" d="M1820.19,1818.73c37.15,5.7,76.68-1.89,114.35-22.39,53.75-29.25,99.67-82.73,132.78-154.67l.44-1c27.29-71.12,32.79-137.93,15.89-193.21-15.6-51-49.23-89.13-94.71-107.33a159.48,159.48,0,0,0-74.54-10.48c-26.66,2.45-53,11-78.35,25.44-55.17,31.43-101.14,88.4-132.94,164.73l-.39,1c-23.56,68.58-26.88,132.72-9.59,185.47,16,48.92,49,85.52,92.78,103.08A155.42,155.42,0,0,0,1820.19,1818.73Zm215.65-190.94c-65.5,141.87-168.8,177-237.13,149.65-34.2-13.71-60.09-42.78-72.89-81.86-14.9-45.45-11.69-101.82,9.26-163.07,28.83-69,69.63-120,118-147.56,41.32-23.55,85-28.13,123.08-12.91,35.61,14.25,62.1,44.6,74.59,85.45C2065.34,1505.23,2060.19,1564.11,2035.84,1627.79Z"/><path class="cls-3" d="M2058.59,1654.67c-107.42,232.71-332.84,155.31-253.12-76.83C1908.83,1326.44,2153.71,1410.82,2058.59,1654.67Z"/><path class="cls-2" d="M1874.53,1811.21c29.91,4.58,62.12-2.45,93-20.68,42.47-25,79.34-69.52,106.64-128.65l.4-1c22.69-58.16,28.5-112.45,16.8-157-11-41.89-36.72-72.84-72.42-87.15-37.5-15-82.13-9.26-122.47,15.8-43.87,27.26-80.85,75.23-107,138.72l-.36,1c-19.08,55.57-22.75,107.16-10.61,149.18,11.49,39.76,36.58,69.19,70.67,82.87A114.48,114.48,0,0,0,1874.53,1811.21Zm168.22-163.27c-24.32,52.5-56.35,91.56-92.65,113-30.46,18-61.72,22-88,11.48-46-18.45-76.26-83.86-40.5-188.47,48.62-117.83,129.64-157.22,184.63-135.19,25.33,10.15,43.77,32.86,51.94,64C2068,1550,2062.63,1596.78,2042.75,1647.94Z"/><g class="cls-8"><path class="cls-3" d="M1698,1383.32c-70.61,112.88-200.15,34.61-155.55-73.26C1606.35,1177.2,1760.51,1267,1698,1383.32Z"/></g><g class="cls-8"><path class="cls-3" d="M1566.92,1554.66c-29.51,41.61-86.82,8.47-59-39.71C1537.46,1473.35,1594.78,1506.49,1566.92,1554.66Z"/></g><g class="cls-8"><path class="cls-3" d="M792.43,1180.38c55.25-505.75,573.32-426.51,695.93-281.06C1161.45,830.4,963.32,988.13,792.43,1180.38Z"/></g><g class="cls-4"><path class="cls-2" d="M1777.49,1629.58c5.38-35.65,20.55-69.95,41.94-99.18-3.38,177.13,183.06,151.54,255.1,44.25C2041.85,1828.76,1761.75,1872.23,1777.49,1629.58Z"/></g><path class="cls-2" d="M1792.66,1349.9c7.8,1.19,17.7.27,30.13-4.69a17.2,17.2,0,0,0-12.73-32c-8,3.18-11.46,2.81-12.25,2.65-.92-1.3-2.81-6.83-1.71-18.92a117.6,117.6,0,0,1,3.26-18.3,17.2,17.2,0,0,0-33.1-9.36,150.24,150.24,0,0,0-4.5,25.52c-1.8,21.55,2.61,37.28,13.12,46.76A33.75,33.75,0,0,0,1792.66,1349.9Z"/><path class="cls-3" d="M2260.31,2008c108.07-13.62,187.79,4,193.65,33.1,4.29,21.33-7,53.1-51.52,60.66-30.41,5.17-71.7-3-71.7-3s-31.5,61.48-70.19,82.37"/><path class="cls-2" d="M2262.43,2024.76c29.6-3.26,59.36-5.13,88.7-3.93a308.68,308.68,0,0,1,43.18,4.42,181.33,181.33,0,0,1,20.24,4.86,75.08,75.08,0,0,1,17.15,7.41,33.48,33.48,0,0,1,3.11,2.19,18.75,18.75,0,0,1,2.24,2.08,10.21,10.21,0,0,1,1.19,1.59,1.25,1.25,0,0,1,.15.27,1.17,1.17,0,0,1,.11.23.56.56,0,0,1,.07.19s0,0,0,.11l.09.44a31.4,31.4,0,0,1-.71,15.14,33.73,33.73,0,0,1-7.91,13.67,45,45,0,0,1-14.18,9.9c-11.25,5.19-25,7-39.36,7.18-7.19.11-14.5-.12-21.82-.66-3.67-.25-7.34-.59-11-1-1.83-.2-3.66-.41-5.47-.65l-2.71-.36-2.59-.38-8.87-1.3-3.58,7.33-1.37,2.8-1.47,2.92q-1.5,2.93-3.08,5.84-3.1,5.85-6.42,11.61-6.57,11.53-13.89,22.64a252,252,0,0,1-15.67,21.42c-.68.87-1.4,1.71-2.13,2.55s-1.43,1.7-2.18,2.51l-2.23,2.48-2.3,2.41c-3.13,3.18-6.39,6.26-9.9,9.18l0,0a1.42,1.42,0,0,0-.19,2,1.44,1.44,0,0,0,1.55.45c9-3,17.36-7.9,25-13.55a161.65,161.65,0,0,0,21.14-19.07c1.63-1.72,3.21-3.48,4.79-5.24s3.08-3.58,4.58-5.4c3-3.63,5.88-7.39,8.7-11.17s5.45-7.69,8-11.64c1.28-2,2.54-4,3.78-6l1.85-3.06c.63-1,1.2-2,1.86-3.23l-12.44,6,3.06.64,3,.59c2,.38,3.91.73,5.87,1.07q5.88,1,11.79,1.81c7.9,1,15.87,1.85,24,2.17a165.31,165.31,0,0,0,24.94-.72,107.27,107.27,0,0,0,12.88-2.18,97,97,0,0,0,12.87-4,73.73,73.73,0,0,0,24-15.15,63.16,63.16,0,0,0,19.21-39.77,59.56,59.56,0,0,0-.55-15.4l-.16-1c-.08-.38-.19-.86-.28-1.28-.2-.88-.43-1.74-.7-2.57s-.56-1.68-.88-2.47-.66-1.59-1-2.33a40,40,0,0,0-5.13-8,47.89,47.89,0,0,0-5.88-6,62.56,62.56,0,0,0-6.1-4.66,105.61,105.61,0,0,0-24.42-11.76,183.43,183.43,0,0,0-24.2-6.53,331.41,331.41,0,0,0-48-5.86,509.82,509.82,0,0,0-94.52,4.53,16.93,16.93,0,0,0,4.16,33.6Z"/><path class="cls-2" d="M1995,2292.83a15,15,0,0,0,14-24.23c-39.11-48.56-42.94-111.7-11.4-187.67,24.43-58.85,61.83-103.35,62.21-103.79a15,15,0,0,0-22.87-19.41c-1.64,1.93-40.46,48-66.76,111-15.7,37.6-23.63,73.45-23.56,106.54.08,42.37,13.2,80.1,39,112.15A14.94,14.94,0,0,0,1995,2292.83Z"/><path class="cls-2" d="M2505,2064.66c-2.88,1.45-5.68,3-8.42,4.63s-5.5,3-8.19,4.64c-1.34.82-2.7,1.52-4.06,2.23l-4,2.21c-1.33.8-2.7,1.39-4.05,2.09s-2.7,1.4-4,2.1c-5.48,2.56-11,5.11-16.83,7.41-2.88,1.19-5.93,2.33-9,3.48l-9.34,3.43a403.73,403.73,0,0,0-38.3,15.66c-3.12,1.53-6.22,3.1-9.3,4.66s-6.09,3.32-9.09,5l-4.5,2.56c-1.49.88-2.94,1.83-4.41,2.74-2.93,1.83-5.84,3.7-8.7,5.63a2.18,2.18,0,0,0,1.57,4h.07c6.82-1.11,13.42-2.64,20.08-3.84l9.93-1.92c3.31-.59,6.6-1.18,9.88-1.81,13.17-2.37,26.16-4.3,39.58-6.44,3.41-.57,6.76-1.1,10.22-1.79l5.2-1c1.72-.31,3.5-.81,5.25-1.22l2.64-.64c.89-.21,1.77-.42,2.65-.71l5.29-1.6c1.78-.51,3.5-1.2,5.25-1.85s3.49-1.31,5.22-2,3.39-1.51,5.06-2.32l2.53-1.18c.84-.39,1.67-.8,2.47-1.26,3.19-1.8,6.5-3.51,9.52-5.5,1.51-1,3-2,4.53-3s3-2,4.41-3.13c2.83-2.19,5.61-4.43,8.3-6.79a15.07,15.07,0,0,0-16.69-24.8Z"/><path class="cls-2" d="M2500,2164.37a61.66,61.66,0,0,1-9.77,4.69,81,81,0,0,1-11.77,3.26c-8.83,1.77-19.36,3.08-30.39,4.94a247.18,247.18,0,0,0-32.67,8,217,217,0,0,0-31.1,12.28,2.21,2.21,0,0,0,.84,4.19h.05c11,.66,21.95,1,32.7,1.38s21.37.75,31.72,1.43,21.62,1.67,34.13,0a67.89,67.89,0,0,0,19.33-5.37,50,50,0,0,0,17.31-12.75,15.07,15.07,0,0,0-19-22.83Z"/><path class="cls-2" d="M2315.1,2399.75a264,264,0,0,1-3.2,41.38c-.58,3.4-1,6.8-1.69,10.17l-2,10.08-2.35,10c-.37,1.66-.83,3.3-1.29,4.94l-1.38,4.92-1.36,4.89-1.58,4.84c-1.08,3.21-2.05,6.44-3.2,9.61-2.44,6.3-4.64,12.63-7.48,18.7-5.16,12.32-11.69,23.91-18.36,35.16l-.27.45a17,17,0,1,0,29.3,17.39,17.69,17.69,0,0,0,1.44-3.1c4.86-14,9.28-28,12.1-42.25,1.67-7.07,2.65-14.26,3.83-21.36.52-3.56.85-7.16,1.28-10.72l.6-5.34.38-5.36.37-5.35c.13-1.78.25-3.55.28-5.34l.31-10.67-.09-10.65c0-3.54-.27-7.08-.4-10.6A269,269,0,0,0,2315.1,2399.75Z"/><path class="cls-9" d="M2462.73,2592.05c2.23-2.93,14.95-15.72,22.57-39,12.58-38.42,2.59-75.29-8.13-114.83-6.71-24.77-15.73-57-39.56-93.48a285,285,0,0,0-43.8-52.13,527.73,527.73,0,0,1-82.39,24.76,535.06,535.06,0,0,1-173.87,7.92,114,114,0,0,1-53.83,52.18c5.58,17.23,10.87,35.58,15.66,55a803.88,803.88,0,0,1,19.56,114.34s15.07,129.08-31.61,204c0,0,65.16-29.21,135.44-123.13s77.41-134.62,77.41-134.62,12.12-28.76,14.85-91.2a342,342,0,0,1,4.82,45.74,347.69,347.69,0,0,1-14.51,112.61s60.16,73.66,123.82,53.86C2429.16,2614.08,2453,2604.89,2462.73,2592.05Z"/><path class="cls-10" d="M2445.2,2606.24a78,78,0,0,1-16,7.84,83,83,0,0,1-44.27,2.69c-35.59-7.38-63.15-38.13-63.15-38.13h0l-16.52-17c2.7-9.88,5.26-20.29,7.58-31.21,4-19,6.83-37,8.7-53.72,0,7.38.69,62.76,43.13,99.07,29.56,25.29,65.49,29.47,69,29.83A115.87,115.87,0,0,0,2445.2,2606.24Z"/><path class="cls-10" d="M2306.69,2471.81s-12.66,59.68-49.58,111.29c-7.75,10.85-32.77,53.32-76.5,97-23.41,23.39-53,44.55-69,56.58-12.28,9.23-22.74,16.68-30.21,21.9a169.2,169.2,0,0,0,18.2-31.7c4.85-11.08,7.3-19.9,9.83-29.18A310.94,310.94,0,0,0,2118,2654c7.67-6.19,18.53-15.49,31.1-27.28,17.54-16.46,39.07-38.56,55-61.1,31.87-45.09,58.94-69.59,58.94-69.59S2285.18,2473.49,2306.69,2471.81Z"/><path class="cls-9" d="M2114.09,2772.31s26.55,96.14,1.71,159.29c0,0-18.77,44.25-112.21,15.62s-111.07-131.86-111.07-131.86,65.8,14.28,126.93-2.3S2114.09,2772.31,2114.09,2772.31Z"/><path class="cls-10" d="M2115.22,2933.16s-9.2,29.16-38.08,46.1-48.93,15.12-48.93,15.12-43.42,4-86.6-40.62-57.41-72.9-57.41-72.9-25.3-43.63-27.21-51.56c0,0-29.64,19.41-81.49,22.61s-69.1,2.15-108.56-6.76c0,0-82.54-18.91-103.18-38.1,0,0,72.91,14.13,142.72-20.22,0,0,15.47-6.35,38.65-22.78,0,0,53.9,24.54,68.19,29.51s79.2,21.8,79.2,21.8"/><path class="cls-9" d="M1877.8,1336.87s-26.82,9.59-38,16.12c0,0,6.82-110.33-17.72-183s-43-126.52-80.94-180.28S1630.22,855.9,1578.9,821.29s-74.65-48-74.65-48-55.11-34.38-143.18-55-177.83-11.6-177.83-11.6-69.19,7.06-134,29.8S914,807.39,914,807.39s65.13-64.84,144.34-99.89l69.1-31.82s104.08-12.79,161.09-3,72.67,10.58,155.94,39.22,186.07,107.54,186.07,107.54,94.08,74.29,146.12,161.12,58.53,107.25,79.12,164.8S1877.8,1336.87,1877.8,1336.87Z"/><path class="cls-10" d="M1700.3,1724.58s-12-24.42-12.63-38.31c0,0-60.84,63.63-110.6,89.65s-87.34,44-108.34,51.16a633.74,633.74,0,0,1-133.5,31.2c-65.45,8-154.26-3.23-154.26-3.23s-61.81-9.39-121.69-31.86-173.34-95.56-173.34-95.56,53.29,60.18,95.86,82.57c0,0,62.48,42.21,111.33,55,0,0,49.26,19.47,99.41,25,0,0,76.08,12.82,152.71,3.19s111.57-23.67,111.57-23.67S1623.11,1819.57,1700.3,1724.58Z"/><path class="cls-3" d="M1105.06,2248.18l-82.48-10s-12.84-1.73-22.1,8c0,0,23.61,22.24,55.58,35.12S1105.06,2248.18,1105.06,2248.18Z"/><path class="cls-11" d="M1074.62,2289.16s-45.71-16.32-74.14-43c0,0-17.81,18.68-2.63,36.54,0,0,18.38,23.13,47.71,35.19s36.57,14.62,36.57,14.62Z"/><path class="cls-9" d="M2058.4,1595.3s26-115.09-52.2-146.58-140.43,58-140.43,58-30.49,38-41.81,71.57c0,0-.09,24.94,23,48s29.33,22.76,29.33,22.76,46.52,24.56,105.47-1S2058.4,1595.3,2058.4,1595.3Z"/><path class="cls-10" d="M1943.1,1764.83s40.43-16.62,73.14-68.42,42.36-90.17,42.16-101.11c0,0-28.7,30.14-67.33,48.83s-79.92,14.5-79.92,14.5-49.19-2-78.83-52c0,0-6.67-20.12-8.36-28.41,0,0-28.89,72.09-14.71,125.26s45.09,65.23,45.09,65.23S1889.58,1794,1943.1,1764.83Z"/></svg>