<svg id="Capa_2" data-name="Capa 2" xmlns="http://www.w3.org/2000/svg" viewBox="0 0 4314.87 4000"><defs><style>.cls-1,.cls-10{fill:#bcbec0;}.cls-2{opacity:0.35;}.cls-3{fill:#371a45;}.cls-4{opacity:0.4;}.cls-5{fill:#fff;}.cls-6{fill:#a7a9ac;}.cls-7{fill:#73befd;}.cls-8{fill:#ddd;}.cls-10,.cls-8{stroke:#371a45;stroke-width:25px;}.cls-10,.cls-15,.cls-8{stroke-miterlimit:10;}.cls-9{opacity:0.7;}.cls-11{fill:#293856;}.cls-12{fill:#371a46;}.cls-13{fill:#111a28;}.cls-14{fill:#3d46f2;}.cls-15,.cls-16{fill:#121c75;}.cls-15{stroke:#121c75;stroke-width:11px;}</style></defs><path class="cls-1" d="M2442.09,3590.78c-460.75,172.63-974.15-60.88-1146.83-521.63a889.6,889.6,0,0,1-54-242.26,878.1,878.1,0,0,1-2.14-105.26c13.33-335.52,216.89-647.33,542.5-785.12,11.62-5,23.38-9.68,35.31-14.14a891.83,891.83,0,0,1,467.23-43.26c7.62,1.34,15.22,2.82,22.81,4.35a894.3,894.3,0,0,1,346,152.14c136.85,99.12,247,238.26,310.78,408.36a889.31,889.31,0,0,1,56.42,284.85C3031.75,3099.79,2809,3453.31,2442.09,3590.78Z"/><g class="cls-2"><path class="cls-3" d="M1279.26,2613q-6,43-7.78,86.76a878,878,0,0,0,2.13,105.25,889.91,889.91,0,0,0,54.05,242.26c172.67,460.75,686.08,694.26,1146.82,521.64,309.69-116.08,516.67-386.1,566.65-690.62,4-27.5,6.8-55.22,8.18-83.15-69.25,273.55-267,509.76-551.24,616.28-460.74,172.63-974.15-60.88-1146.82-521.63a889.25,889.25,0,0,1-54-242.26,878,878,0,0,1-2.13-105.25c.13-2.84.25-5.67.38-8.5a893.27,893.27,0,0,0-19.82,104.44Q1277.28,2625.59,1279.26,2613Z"/></g><g class="cls-4"><path class="cls-5" d="M2985.68,2442.5c-64.47-163.93-172.24-298.39-305.43-394.86a894.24,894.24,0,0,0-346-152.14c-7.59-1.53-15.18-3-22.8-4.35a891.54,891.54,0,0,0-467.23,43.27c-11.93,4.46-23.7,9.14-35.31,14.13-325.61,137.8-529.17,449.6-542.5,785.13a880,880,0,0,0,2.13,105.25c.64,8,1.47,16,2.32,24-1.79-369.2,223.46-717.33,589.45-854.49a904.27,904.27,0,0,1,104.85-32.26,61.3,61.3,0,0,0,.3,7.41c5.16,52.79,75.76,89.08,157.75,81.06s144.23-57.3,139.07-110.09l0-.17C2564.23,1982.43,2841.25,2161.55,2985.68,2442.5Z"/></g><path class="cls-3" d="M1933,3661.38a927.45,927.45,0,0,1-440.84-259.15c-84.91-89.58-150.1-194.08-193.76-310.6s-63.2-238.14-58.07-361.45a925.11,925.11,0,0,1,287.24-631.52c89.58-84.91,194.08-150.1,310.61-193.76s238.13-63.2,361.44-58.06a925,925,0,0,1,631.52,287.24c84.91,89.57,150.1,194.07,193.76,310.6s63.2,238.13,58.06,361.45a925,925,0,0,1-287.24,631.51c-89.57,84.91-194.07,150.1-310.6,193.76s-238.13,63.2-361.45,58.07A919,919,0,0,1,1933,3661.38Zm441-1726.66c-169.1-43.47-347.13-34.28-514,28.27-215.06,80.59-385.88,240.1-481,449.16s-103.07,442.64-22.48,657.71,240.1,385.88,449.16,481a871,871,0,0,0,143.65,50.76c169.11,43.47,347.14,34.27,514.05-28.28,215.07-80.58,385.88-240.1,481-449.16s103.08-442.64,22.49-657.7-240.1-385.88-449.16-481A870.48,870.48,0,0,0,2373.94,1934.72Z"/><g class="cls-2"><ellipse class="cls-3" cx="2036.9" cy="2196.85" rx="123.85" ry="197.71" transform="translate(-186.63 4204.59) rotate(-89.24)"/></g><ellipse class="cls-6" cx="2034.4" cy="2236.08" rx="77.74" ry="172.89" transform="translate(-228.33 4240.8) rotate(-89.24)"/><path class="cls-3" d="M2215.06,2129.74a111.61,111.61,0,0,1,18,21.74,101.6,101.6,0,0,1,6.69,12.86,99.07,99.07,0,0,1,4.7,14,88.07,88.07,0,0,1,2.31,14.76l.19,3.76c0,1.25,0,2.5,0,3.76l-.08,3.77c-.08,1.25-.22,2.5-.34,3.76a97.07,97.07,0,0,1-7.72,29,120.09,120.09,0,0,1-15.31,25.32,156.35,156.35,0,0,1-20.1,20.94,186.4,186.4,0,0,1-23,16.86c-4,2.57-8.11,4.87-12.23,7.16l-6.28,3.22c-2.09,1.09-4.24,2-6.36,3a242.18,242.18,0,0,1-26.06,10.34c-4.41,1.56-8.89,2.78-13.35,4.13-4.5,1.16-9,2.45-13.52,3.42a315.21,315.21,0,0,1-55,7.48c-4.63.23-9.25.27-13.88.34s-9.26,0-13.89-.25c-9.26-.25-18.52-1.14-27.74-2.23a290,290,0,0,1-54.63-12.31,229.76,229.76,0,0,1-51.52-24.19c-16.17-10.49-31.43-23.42-43.33-40a112.28,112.28,0,0,1-14.54-27.41,97.61,97.61,0,0,1-5.7-31.22,94.84,94.84,0,0,1,4.75-31.21,108.71,108.71,0,0,1,13.68-27.47,135.17,135.17,0,0,1,19.42-22.27c1.81-1.6,3.57-3.27,5.42-4.81l5.6-4.52,5.78-4.21c1.93-1.39,3.94-2.63,5.9-3.95a206.39,206.39,0,0,1,24.6-13.52,252.56,252.56,0,0,1,25.77-10.07c8.74-2.77,17.56-5.18,26.46-7.07s17.84-3.38,26.83-4.27a288.68,288.68,0,0,1,53.77-1,5.68,5.68,0,0,1,.13,11.32h-.14c-8.59.83-17.14,1.55-25.59,3-4.24.57-8.44,1.38-12.64,2.08-2.1.39-4.18.85-6.26,1.27s-4.17.85-6.23,1.37l-6.19,1.49-6.13,1.66-3.06.82-3,.92c-2,.62-4,1.2-6,1.84-8,2.65-15.88,5.53-23.55,8.81s-15.1,7-22.27,11a201.1,201.1,0,0,0-20.42,13.38c-12.88,9.66-24,21.13-31.72,33.9a76.25,76.25,0,0,0-8.62,19.84,65.06,65.06,0,0,0-2.15,20.56c.79,13.67,6.3,26.84,15.18,38.45s20.88,21.59,34.18,29.84a205.4,205.4,0,0,0,43.53,19.72,271.74,271.74,0,0,0,47.64,10.69,313.52,313.52,0,0,0,49.23,2.49c4.12-.16,8.24-.24,12.34-.57s8.21-.66,12.3-1c8.17-.92,16.32-2.09,24.37-3.67,4-.7,8-1.69,12-2.55,4-1,8-2,11.85-3.18a233,233,0,0,0,23.11-7.92,202.1,202.1,0,0,0,21.92-10.31,162.46,162.46,0,0,0,20.14-12.87,125.73,125.73,0,0,0,17.41-15.65,92.54,92.54,0,0,0,13.43-18.42,72.89,72.89,0,0,0,7.79-20.88l.57-2.74.34-2.78c.11-.92.26-1.85.34-2.79l.16-2.8a80.78,80.78,0,0,0-.45-11.3,78.4,78.4,0,0,0-2.31-11.28,84.8,84.8,0,0,0-4.11-11,95.23,95.23,0,0,0-5.62-10.65c-2.13-3.46-4.5-6.81-7-10.13l-.1-.13a7.05,7.05,0,0,1,10.48-9.36Z"/><path class="cls-3" d="M2051.81,2395.37a141.49,141.49,0,0,1-23.42,8.27,175.43,175.43,0,0,1-24.6,4.61,198.83,198.83,0,0,1-50.24-.75,232.11,232.11,0,0,1-48.81-12.32,247.84,247.84,0,0,1-45.13-22.37,235,235,0,0,1-39.67-31.26c-3-3-6-6-8.81-9.16s-5.58-6.4-8.23-9.73a184.7,184.7,0,0,1-14.54-21c-8.65-14.76-15.35-31-18.27-48.1s-2.06-35,3.89-50.81a5.75,5.75,0,0,1,11.12,2.12v.11c-.56,30,11.8,56.63,29.4,79.12s40.33,41.4,65.1,56.57a295.56,295.56,0,0,0,80.27,33.86,263.2,263.2,0,0,0,43.36,7.32c7.36.63,14.79.9,22.28.9s15-.38,22.71-.93h.12a7.13,7.13,0,0,1,3.48,13.6Z"/><g class="cls-2"><ellipse class="cls-3" cx="1553.15" cy="2750.05" rx="198.12" ry="124.08" transform="translate(-1348.81 3996.51) rotate(-83.79)"/></g><ellipse class="cls-6" cx="1591.82" cy="2755.84" rx="172.89" ry="77.74" transform="translate(-1320.08 4040.13) rotate(-83.79)"/><path class="cls-3" d="M1503.14,2565.88a111.77,111.77,0,0,1,23.34-15.81,102.75,102.75,0,0,1,13.45-5.44,99.74,99.74,0,0,1,14.37-3.36,89.34,89.34,0,0,1,14.91-.89l3.76.17c1.25.09,2.49.26,3.74.39l3.75.43c1.24.21,2.47.47,3.7.7a97,97,0,0,1,28.15,10.45,119.92,119.92,0,0,1,23.75,17.65,156.23,156.23,0,0,1,18.93,22,185.89,185.89,0,0,1,14.6,24.55c2.18,4.21,4.07,8.53,6,12.85l2.61,6.56c.89,2.18,1.61,4.41,2.41,6.61a241.82,241.82,0,0,1,7.82,26.93c1.13,4.54,1.92,9.12,2.84,13.69.73,4.59,1.58,9.17,2.12,13.78a315.23,315.23,0,0,1,2.21,55.51c-.21,4.63-.61,9.24-1,13.85-.52,4.6-.89,9.21-1.58,13.8-1.13,9.2-2.89,18.33-4.86,27.41a289.65,289.65,0,0,1-17.44,53.2,229.76,229.76,0,0,1-29,49c-12,15.1-26.3,29.07-44,39.33a112.66,112.66,0,0,1-28.67,11.87,97.65,97.65,0,0,1-31.62,2.7,94.75,94.75,0,0,1-30.62-7.7,108.77,108.77,0,0,1-26-16.22,135.55,135.55,0,0,1-20.32-21.45c-1.43-2-2.92-3.87-4.27-5.86l-4-6-3.63-6.15c-1.2-2.06-2.25-4.17-3.38-6.26a204.5,204.5,0,0,1-11.11-25.77,252.64,252.64,0,0,1-7.59-26.61c-1.92-9-3.47-18-4.51-27s-1.67-18.08-1.71-27.11a288.72,288.72,0,0,1,4.13-53.62,5.68,5.68,0,0,1,11.28.94v.14c0,8.63-.09,17.21.51,25.76.16,4.27.56,8.53.87,12.78.18,2.12.45,4.24.67,6.35s.44,4.23.77,6.33l.89,6.3,1.07,6.27.52,3.12.63,3.11c.42,2.07.81,4.14,1.26,6.2,1.88,8.21,4,16.33,6.53,24.27s5.51,15.7,8.85,23.22a200.38,200.38,0,0,0,11.37,21.6c8.4,13.73,18.75,25.93,30.73,34.8a76.92,76.92,0,0,0,18.93,10.47,65.48,65.48,0,0,0,20.26,4.09c13.68.51,27.32-3.72,39.72-11.46s23.48-18.73,33-31.19a205.1,205.1,0,0,0,23.77-41.45,273.51,273.51,0,0,0,15.17-46.41,314.42,314.42,0,0,0,7.16-48.77c.23-4.12.54-8.23.6-12.34s.13-8.23.13-12.35c-.14-8.22-.53-16.44-1.34-24.6-.31-4.1-.92-8.15-1.39-12.22-.67-4-1.2-8.11-2-12.1a232.06,232.06,0,0,0-5.69-23.76,199.69,199.69,0,0,0-8.18-22.79,163.22,163.22,0,0,0-10.89-21.28,126,126,0,0,0-13.93-18.82,93,93,0,0,0-17.06-15.12,72.87,72.87,0,0,0-20-9.74l-2.67-.83-2.73-.6c-.91-.2-1.82-.44-2.74-.6l-2.78-.43a70.19,70.19,0,0,0-22.74.6,84.85,84.85,0,0,0-11.36,3.05,93.57,93.57,0,0,0-11.14,4.58c-3.64,1.79-7.21,3.83-10.75,6l-.13.09a7.06,7.06,0,0,1-8.32-11.33Z"/><path class="cls-3" d="M1752,2753.65a142.3,142.3,0,0,1,6,24.1,175.79,175.79,0,0,1,2.25,24.93,199.28,199.28,0,0,1-5.52,49.94,232.76,232.76,0,0,1-16.91,47.42,247.73,247.73,0,0,1-26.56,42.79,234,234,0,0,1-34.89,36.52q-4.87,4.08-10,7.91c-3.42,2.51-6.91,4.94-10.48,7.26a187.18,187.18,0,0,1-22.33,12.48c-15.51,7.2-32.3,12.33-49.63,13.61s-35-1.27-50.2-8.71A5.74,5.74,0,0,1,1537,3001h.11c29.83,3.42,57.49-6.36,81.55-21.74s45-36.21,62.51-59.43a295.65,295.65,0,0,0,41.34-76.68,264,264,0,0,0,11.4-42.47c1.33-7.27,2.31-14.63,3-22.09s1-15,1.24-22.69v-.12a7.14,7.14,0,0,1,13.87-2.18Z"/><g class="cls-2"><ellipse class="cls-3" cx="2252.03" cy="2755.68" rx="166.84" ry="142.31" transform="translate(-19.97 16.44) rotate(-0.42)"/></g><ellipse class="cls-6" cx="2218.52" cy="2806.01" rx="101.15" ry="125.36" transform="translate(-1095.71 4151.89) rotate(-73.77)"/><path class="cls-3" d="M2257.62,2897.32l6.31-.9c2.1-.31,4.2-.51,6.28-.9l6.21-1.21c2.07-.42,4.15-.73,6.17-1.32l6.11-1.5,3.05-.75,3-.94c4-1.24,8-2.38,11.85-4l5.82-2.19,5.69-2.48,2.84-1.24a28.43,28.43,0,0,0,2.79-1.32l5.5-2.81,2.74-1.4,2.66-1.55,5.3-3.09c1.76-1,3.41-2.25,5.12-3.36s3.42-2.2,5-3.43l4.85-3.66c.81-.61,1.63-1.2,2.42-1.83l2.3-2,4.59-3.92c1.49-1.35,2.89-2.8,4.34-4.18,3-2.69,5.56-5.73,8.26-8.66,1.4-1.42,2.54-3,3.8-4.58s2.5-3.07,3.65-4.67l3.36-4.86c.56-.81,1.15-1.59,1.68-2.42l1.5-2.52,3-5c.89-1.73,1.87-3.43,2.68-5.19a123.88,123.88,0,0,0,8.24-21.55,113.16,113.16,0,0,0,3-45.11,114.45,114.45,0,0,0-14.68-42.58c-7.47-13.26-17.8-24.95-29.51-35.09a145.9,145.9,0,0,0-18.89-13.75l-2.49-1.55-2.56-1.45c-1.73-.93-3.39-2-5.16-2.83l-5.25-2.69-5.37-2.45c-57.67-25.41-130.76-19.08-181.69,19.59a153.66,153.66,0,0,0-17.82,15.79,137.73,137.73,0,0,0-14.89,18.49,122.35,122.35,0,0,0-18.53,43.49,122.44,122.44,0,0,0,6.64,71.7,144.78,144.78,0,0,0,11.38,22.41l0,0a5.69,5.69,0,0,1-9.14,6.7,142,142,0,0,1-15.85-22.55,137.67,137.67,0,0,1-11.16-25.66,135.16,135.16,0,0,1-5.33-56.35,142.1,142.1,0,0,1,18.08-54.46c9.46-16.83,22.26-31.59,36.8-44.08,29.32-24.87,66.06-40.23,103.91-45.09a235,235,0,0,1,28.55-1.88,238.65,238.65,0,0,1,28.63,1.87,207.26,207.26,0,0,1,55.5,15.24,185.88,185.88,0,0,1,25.75,13.44,183,183,0,0,1,23.56,17.27,172.77,172.77,0,0,1,20.59,21,157.91,157.91,0,0,1,16.7,24.52,153.61,153.61,0,0,1,11.78,27.46,137.31,137.31,0,0,1,6,29.34,142.71,142.71,0,0,1-6.46,59,145.64,145.64,0,0,1-12,26.94c-1.18,2.15-2.5,4.2-3.77,6.28l-4.11,6-2.07,3c-.71,1-1.49,1.92-2.24,2.87l-4.53,5.67a176.81,176.81,0,0,1-43.7,36.64,188.32,188.32,0,0,1-51.84,20.9c-4.47,1.21-9.05,2-13.58,2.77l-3.4.62-3.43.42-6.84.82c-2.27.31-4.58.34-6.86.48l-6.85.34c-4.57.09-9.14-.05-13.67-.13a7,7,0,0,1-.89-14Z"/><path class="cls-3" d="M2042.46,2677.9a204.4,204.4,0,0,0-9.52,22.89,175.5,175.5,0,0,0-6.58,23.56,178.4,178.4,0,0,0-3.38,48c.17,4,.78,7.94,1.19,11.89.17,2,.62,3.92.94,5.88l1,5.86a177,177,0,0,0,6.38,22.82c.69,1.85,1.29,3.72,2,5.56l2.27,5.46,1.12,2.73,1.29,2.66,2.56,5.32c.86,1.77,1.88,3.46,2.81,5.2s1.84,3.48,2.9,5.14l3.1,5c.52.84,1,1.69,1.56,2.51l1.69,2.43,3.35,4.86c1.17,1.59,2.41,3.13,3.6,4.7,2.33,3.18,5,6.13,7.5,9.15,1.24,1.54,2.6,3,4,4.41l4,4.33,4.25,4.15c1.44,1.35,2.78,2.8,4.3,4.08a232.39,232.39,0,0,0,38.28,28.18,243.91,243.91,0,0,0,43.29,20.18,269.94,269.94,0,0,0,46.45,11.92,283.28,283.28,0,0,0,96-1,258.53,258.53,0,0,0,89.64-34.37l2.58-1.57,2.51-1.68,5-3.36c3.3-2.3,6.51-4.74,9.75-7.14,6.26-5,12.49-10.19,18.23-15.84a203.16,203.16,0,0,0,30.67-37.35,190.09,190.09,0,0,0,20.7-44c1.12-3.92,2.46-7.82,3.29-11.84l1.42-6,1.08-6.08c.86-4.05,1.22-8.17,1.76-12.29.32-2.06.36-4.14.52-6.21l.46-6.25,0-.42a5.66,5.66,0,0,1,11.29,0c.34,4.41.9,8.86,1,13.32s.27,9,0,13.42l-.33,6.74-.74,6.7c-.38,4.5-1.3,8.91-2,13.38-.32,2.25-1,4.42-1.42,6.63s-1,4.44-1.58,6.62l-1.94,6.51-1,3.27-1.14,3.2-2.31,6.42c-.81,2.13-1.76,4.19-2.64,6.29-1.71,4.23-3.78,8.29-5.8,12.38-1,2.07-2.1,4-3.22,6l-3.39,5.95-3.67,5.77c-1.24,1.92-2.42,3.88-3.78,5.71-2.67,3.7-5.22,7.51-8.15,11l-4.28,5.36-4.54,5.14a237,237,0,0,1-40.87,36.41,267.69,267.69,0,0,1-47.81,26.75c-2.08,1-4.21,1.79-6.34,2.63l-6.38,2.51c-4.28,1.62-8.63,3-12.95,4.53-4.38,1.33-8.77,2.6-13.17,3.84-4.45,1.07-8.88,2.23-13.34,3.2a300.28,300.28,0,0,1-109.13,3.1c-36.21-5.68-71.59-18.18-103-37.61a256.19,256.19,0,0,1-43.68-34.1,223.36,223.36,0,0,1-34.63-43.55,197.83,197.83,0,0,1-22.17-51.12,205.5,205.5,0,0,1-5.49-27.32c-.24-2.3-.43-4.62-.64-6.92s-.48-4.61-.49-6.93c-.1-4.63-.38-9.24-.19-13.86a184.45,184.45,0,0,1,33.86-102.08,7.06,7.06,0,0,1,12.1,7.16Z"/><g class="cls-2"><ellipse class="cls-3" cx="2635.69" cy="2301.91" rx="75.52" ry="88.54" transform="translate(-170.67 4392.35) rotate(-77.81)"/></g><ellipse class="cls-6" cx="2612.51" cy="2324.09" rx="53.68" ry="66.53" transform="translate(-683.33 3492.02) rotate(-61.17)"/><path class="cls-3" d="M2622.33,2375.17c17.85,1.54,35.68-.76,51.23-7.68,1.9-.94,3.88-1.7,5.7-2.77l2.76-1.5c.91-.53,1.78-1.12,2.66-1.66a75.15,75.15,0,0,0,9.94-7.39c1.45-1.45,3.06-2.72,4.38-4.26l2.07-2.21c.64-.78,1.32-1.53,1.93-2.33a66,66,0,0,0,6.5-10,58.91,58.91,0,0,0,3.74-45.3c-4.67-14.95-15.08-28.24-28.21-37.92-26.28-19.41-64.11-24.65-94.4-11-15.1,6.66-28.09,18.22-35.12,33.28a64.49,64.49,0,0,0-4.19,11.79,68.37,68.37,0,0,0-1.78,12.56,73.11,73.11,0,0,0,3.79,25.76v0a3.64,3.64,0,0,1-6.63,2.91,75.1,75.1,0,0,1-5.83-13.58,72,72,0,0,1,.57-45,76.19,76.19,0,0,1,15.76-26.7,89.34,89.34,0,0,1,24.5-19,107.91,107.91,0,0,1,60-11.73,115.15,115.15,0,0,1,57.59,21.22,103.59,103.59,0,0,1,22.42,22,90.53,90.53,0,0,1,14.32,28.56,80.08,80.08,0,0,1,2.65,32.27,77.94,77.94,0,0,1-20.12,43.29c-.88,1-1.83,1.91-2.75,2.86l-2.9,2.69c-1.89,1.84-4,3.37-6,5a94.74,94.74,0,0,1-27.41,14,103,103,0,0,1-58.82.66,4.51,4.51,0,0,1,1.64-8.83Z"/><path class="cls-3" d="M2536.71,2237.89c-10.7,13.9-17.93,29.84-20.17,46.41a89.88,89.88,0,0,0-.2,24.73,93.88,93.88,0,0,0,6.23,23.76,113.38,113.38,0,0,0,28.18,40.26,136,136,0,0,0,42.12,26.57,149.44,149.44,0,0,0,49.13,10.57,136.25,136.25,0,0,0,49.75-7.07,117,117,0,0,0,22.93-10.58,108.6,108.6,0,0,0,20.1-15.39,98.54,98.54,0,0,0,15.88-20,103.72,103.72,0,0,0,10.33-23.89l0-.05a3.63,3.63,0,0,1,7.1,1.35,94.85,94.85,0,0,1-7,27.83c-.94,2.23-2,4.43-3,6.61l-1.76,3.2c-.57,1.08-1.19,2.13-1.85,3.15l-1.94,3.1c-.66,1-1.39,2-2.08,3-1.37,2-2.91,3.93-4.42,5.85a113,113,0,0,1-21.38,20.11,126.65,126.65,0,0,1-25.61,14.45,146.26,146.26,0,0,1-57.47,11.29,160,160,0,0,1-57.59-11.07,149,149,0,0,1-49.65-31.86,137.61,137.61,0,0,1-18.89-23.09,119.91,119.91,0,0,1-13-27,106.51,106.51,0,0,1-5.5-29.53,110.52,110.52,0,0,1,.42-15c.35-2.48.62-5,1.09-7.41s.92-4.89,1.58-7.29a100.63,100.63,0,0,1,11.55-27.12,105.51,105.51,0,0,1,8.54-11.8,100,100,0,0,1,10.11-10.26,4.51,4.51,0,0,1,6.53,6.16Z"/><path class="cls-3" d="M2796.93,2557.23a167.49,167.49,0,0,0-29.64,13.27,159.66,159.66,0,0,0-25.72,18.56,150.92,150.92,0,0,0-36.56,49.69,173.49,173.49,0,0,0-15.11,59.73,196.44,196.44,0,0,0,5.27,61.93,220.53,220.53,0,0,0,23.57,58.25,239.16,239.16,0,0,0,17.87,26.16l5,6.2,5.32,5.9c3.44,4.07,7.35,7.64,11.15,11.37,1.84,1.93,3.89,3.62,5.9,5.36l6,5.25,6.37,4.83,3.18,2.46c1,.84,2.2,1.5,3.29,2.27l6.67,4.47c1.1.78,2.26,1.44,3.42,2.11l3.47,2,3.48,2a36.66,36.66,0,0,0,3.53,1.94q3.61,1.77,7.21,3.62c2.38,1.31,4.89,2.28,7.37,3.34s5,2.16,7.5,3.15l7.68,2.67c1.28.44,2.56.95,3.86,1.35l3.93,1.08,7.91,2.2,8.06,1.67,4,.87,4.1.56c2.73.36,5.49.76,8.26,1.19l.48.07a5.68,5.68,0,0,1-.32,11.26c-3,.28-5.94.54-8.93.75l-4.49.33h-4.5l-9-.1c-3-.22-6-.53-9-.81l-4.53-.44c-1.5-.19-3-.48-4.47-.74l-9-1.6c-3-.62-5.88-1.45-8.83-2.2s-5.93-1.48-8.78-2.53-5.77-2-8.66-3c-1.46-.47-2.86-1.06-4.26-1.67l-4.22-1.79-4.22-1.79a41.4,41.4,0,0,1-4.16-1.94l-8.16-4.21c-1.35-.73-2.76-1.36-4.05-2.18l-3.94-2.37-7.85-4.83-7.51-5.32c-2.5-1.79-5.06-3.52-7.39-5.53a229.49,229.49,0,0,1-79.11-122.59,214.93,214.93,0,0,1-6.14-36.92,210.55,210.55,0,0,1,.5-37.57c2.68-25,10-49.63,22.33-71.68a160.49,160.49,0,0,1,50.37-55.35c2.53-1.82,5.26-3.36,7.92-5s5.42-3,8.17-4.47,5.59-2.68,8.41-3.92,5.65-2.42,8.56-3.44a145.35,145.35,0,0,1,17.64-5.12,142.06,142.06,0,0,1,18-2.7,7.09,7.09,0,0,1,2.81,13.78Z"/><g class="cls-2"><ellipse class="cls-3" cx="2848.64" cy="2737.54" rx="114.44" ry="138.08" transform="translate(-461.67 580.98) rotate(-10.78)"/></g><path class="cls-6" d="M2854.21,2855.33c-40.7,1-82.44-26.18-104.3-72.47-29.07-61.64-11.86-133.87,38.45-161.34a84.71,84.71,0,0,1,22-8.37c30,11.8,57.15,37,73.84,72.35C2913.74,2748.11,2900,2820.65,2854.21,2855.33Z"/><path class="cls-3" d="M2948.33,2691.23a158.76,158.76,0,0,0-23.75-27.53,133.86,133.86,0,0,0-28.88-20.21c-20.6-10.66-43.78-15.1-65-11.39l-4,.78-2,.37-2,.5c-2.56.69-5.08,1.51-7.56,2.42a78.76,78.76,0,0,0-7.26,3.1c-2.38,1.13-4.65,2.52-6.93,3.82a82.07,82.07,0,0,0-22.94,21.11,92,92,0,0,0-14,28.45,108.54,108.54,0,0,0-4.18,32.26c.41,22,7.35,44.18,19.3,63.37l2.23,3.61c.79,1.17,1.64,2.3,2.45,3.45l2.47,3.45,2.68,3.28,2.66,3.3,2.87,3.11c1,1,1.89,2.11,2.9,3.1l3.07,2.92a122.67,122.67,0,0,0,27.52,19.62,106.75,106.75,0,0,0,31.93,10.66c1.39.21,2.78.48,4.18.65l4.2.34a72,72,0,0,0,8.44.34,90.47,90.47,0,0,0,48.58-14.93,98.38,98.38,0,0,0,25.65-24.82l.06-.07a5.69,5.69,0,0,1,9.81,5.64,99.94,99.94,0,0,1-24.17,33.64,104.11,104.11,0,0,1-36.74,21.58,107.68,107.68,0,0,1-21.17,4.87,87.9,87.9,0,0,1-10.87.81l-5.46.09c-1.81,0-3.62-.18-5.44-.27a129.51,129.51,0,0,1-42.19-9.94,151.5,151.5,0,0,1-65.82-54.79c-1-1.5-2.06-3-3-4.51l-2.76-4.67c-.91-1.57-1.85-3.12-2.73-4.7l-2.47-4.84a163.5,163.5,0,0,1-8.29-20.16,151.94,151.94,0,0,1-5.45-21.23,159.18,159.18,0,0,1-2.28-21.94,131.94,131.94,0,0,1,1.08-22.18,137,137,0,0,1,4.64-21.9,125,125,0,0,1,20.65-40.2,114.88,114.88,0,0,1,34.73-29.59,110.22,110.22,0,0,1,43.19-13.24,119.76,119.76,0,0,1,44,3.9,49.79,49.79,0,0,1,5.21,1.61l5.15,1.77a49.66,49.66,0,0,1,5,2l4.95,2.17a139.86,139.86,0,0,1,70.05,74.53,7.06,7.06,0,0,1-12.39,6.61Z"/><path class="cls-6" d="M2543.53,3253.22c38.19,28,65.78,64.72,77.78,108.08,21.75,78.57-13.67,156.5-84.36,219.18-46.38,41.13-108.36,73.71-180.33,91-181.65,43.75-358.11-26.28-394.13-156.41-13.4-48.42-5.47-98.33,19.13-144.19,41.52-77.37,131.5-138.56,245.56-166"/><path class="cls-3" d="M2629.27,3359.1a171.93,171.93,0,0,1,10.27,59.7,192.21,192.21,0,0,1-10.36,60.5,245,245,0,0,1-26.95,55,290.39,290.39,0,0,1-17.94,24.61c-6.38,7.86-13,15.5-20.07,22.71a366.76,366.76,0,0,1-45.49,39.83,404.69,404.69,0,0,1-51.07,32.15c-4.44,2.37-8.95,4.58-13.44,6.84-4.56,2.09-9.09,4.26-13.68,6.29-9.2,4-18.48,7.83-27.9,11.25a489.59,489.59,0,0,1-57.64,16.83,458.66,458.66,0,0,1-119.34,10.82q-15-.66-30-2.3c-10-1.12-19.9-2.68-29.77-4.53a375.64,375.64,0,0,1-58.17-15.83c-9.48-3.41-18.79-7.32-27.94-11.59a295,295,0,0,1-26.77-14.17,266.12,266.12,0,0,1-48.37-36.56,213.74,213.74,0,0,1-37.5-47.6,190.67,190.67,0,0,1-12.94-27.3,179,179,0,0,1-8.13-28.83,6.68,6.68,0,0,1,12.8-3.62l0,.07a188.06,188.06,0,0,0,11.52,25,176.84,176.84,0,0,0,14.78,22.84,212.15,212.15,0,0,0,37.94,38.33c28.37,22.23,61.56,37.9,96.26,48.1s71.08,15.13,107.43,15.53c9.09.08,18.19-.11,27.28-.52s18.16-1.19,27.21-2.2,18.07-2.23,27.05-3.75,17.92-3.32,26.79-5.36a473.57,473.57,0,0,0,52.42-15.23,425.06,425.06,0,0,0,50.15-21.18,412.31,412.31,0,0,0,46.87-27.35,355.3,355.3,0,0,0,42.4-33.66,315.12,315.12,0,0,0,36.4-39.77,232.92,232.92,0,0,0,27.32-45.75,180.65,180.65,0,0,0,14.4-51,175.4,175.4,0,0,0-1.78-53.83v-.06a8.28,8.28,0,0,1,15.93-4.34Z"/><g class="cls-2"><ellipse class="cls-3" cx="2292.06" cy="3436.67" rx="257" ry="186.78" transform="translate(-363.29 272.28) rotate(-6.3)"/></g><ellipse class="cls-6" cx="2272.2" cy="3486.42" rx="217.85" ry="137.37" transform="translate(-98.73 66.37) rotate(-1.64)"/><path class="cls-3" d="M2095.37,3585.12a174,174,0,0,1-15.36-11c-2.51-1.93-4.88-4-7.3-6.11s-4.74-4.26-7-6.55a162.12,162.12,0,0,1-23.9-30.41,148.45,148.45,0,0,1-21.13-75.54,162.34,162.34,0,0,1,4.85-39.6,182.89,182.89,0,0,1,13.83-37.12,221.09,221.09,0,0,1,20.68-33.33l3-3.89c1-1.3,2-2.59,3-3.82,2.08-2.49,4.15-5,6.28-7.45l6.59-7.14c2.21-2.38,4.56-4.58,6.84-6.88s4.67-4.46,7.06-6.63,4.75-4.37,7.25-6.39,4.93-4.16,7.45-6.16l7.67-5.85a338.28,338.28,0,0,1,32.25-20.91,352.73,352.73,0,0,1,70.31-30c48.66-14.69,100.49-19.93,151.51-13.07a347.8,347.8,0,0,1,37.94,7.45,286.07,286.07,0,0,1,36.9,12.49c24.09,10,47.07,23.85,66.87,42a178.35,178.35,0,0,1,26.67,30.54,163.33,163.33,0,0,1,18.74,36.47,152.82,152.82,0,0,1,8.75,40.1,157.81,157.81,0,0,1-2,40.71,174.86,174.86,0,0,1-11.82,38.27,195.31,195.31,0,0,1-19.39,34.11,234.18,234.18,0,0,1-24.74,29.57,264.6,264.6,0,0,1-28.7,25,275.68,275.68,0,0,1-31.49,20.62c-5.4,3.15-11,5.94-16.53,8.77-2.79,1.38-5.64,2.62-8.46,3.93-1.42.64-2.82,1.3-4.24,1.91l-4.31,1.78a329.48,329.48,0,0,1-34.93,12.36l-8.9,2.46c-3,.76-6,1.44-9,2.16-5.94,1.54-12,2.49-18,3.69a6.66,6.66,0,0,1-3.42-12.84l.3-.1c11.21-3.73,22.36-7.45,33.12-12.11a325,325,0,0,0,31.59-15l3.83-2.06c1.27-.71,2.51-1.46,3.76-2.19l7.49-4.4c4.89-3.09,9.81-6.11,14.5-9.46l3.56-2.44c1.18-.82,2.31-1.71,3.46-2.56,2.3-1.73,4.65-3.38,6.89-5.15l6.69-5.38c2.22-1.8,4.31-3.74,6.47-5.59a255,255,0,0,0,23.88-24.11,219.79,219.79,0,0,0,19.67-26.95,174.18,174.18,0,0,0,14.44-29.29,139.44,139.44,0,0,0,7.73-30.83,120.15,120.15,0,0,0,.17-31,120.33,120.33,0,0,0-22.81-56.55,138.1,138.1,0,0,0-21.24-23,180.8,180.8,0,0,0-26-18.63,197.56,197.56,0,0,0-29.2-14.32,270.54,270.54,0,0,0-31.36-10.15,302,302,0,0,0-32.7-6.16c-44.22-5.67-90-1.45-133.3,10.94a328.69,328.69,0,0,0-31.94,10.83c-10.47,4.09-20.57,9-30.55,14.06a298,298,0,0,0-28.68,17.29,264.29,264.29,0,0,0-26.22,20.53,218.1,218.1,0,0,0-23,23.74,191.81,191.81,0,0,0-18.71,26.79,148,148,0,0,0-13.15,29.46,130.77,130.77,0,0,0-6.16,31.33,122.44,122.44,0,0,0,1.87,31.94l.74,4,1,3.93c.3,1.32.67,2.62,1.07,3.92s.75,2.6,1.18,3.89c.91,2.55,1.75,5.15,2.82,7.65s2.12,5,3.23,7.55a139.21,139.21,0,0,0,17.71,28.1,176.13,176.13,0,0,0,23.77,24.42l.18.16a8.27,8.27,0,0,1-10,13.16Z"/><path class="cls-5" d="M2191.09,2052.54c197.21,67,549.93,158.25,631.39-32.21a677.56,677.56,0,0,0,28.53-82.39c55.54-196.94,59.27-477.17-2.84-562-35.48-48.41-116.24-81-210.24-95.77-186.81-29.43-426.1,10.94-466.92,135.45C2131.65,1535.43,1993.88,1985.53,2191.09,2052.54Z"/><g class="cls-2"><path class="cls-3" d="M2191.09,2052.54c197.21,67,549.93,158.25,631.39-32.21a677.56,677.56,0,0,0,28.53-82.39c-68.16,26.49-133.08-35.32-126.23-91,42.3-343.75-41.11-506-86.85-566.77-186.81-29.43-426.1,10.94-466.92,135.45C2131.65,1535.43,1993.88,1985.53,2191.09,2052.54Z"/></g><path class="cls-3" d="M2334.28,2117.67c-51-13.11-101.67-28.65-150-45.08-196.66-66.83-105.35-444.44-33.42-663.59,24.76-75.44,112.21-128.71,246.22-150,168.74-26.8,395.7,5.5,468.15,104.42h0c81.78,111.66,55.38,481.16-23.3,665.23C2775.11,2185,2551.91,2173.62,2334.28,2117.67Zm355.85-805.54c-82.83-21.29-187.64-27-286.4-11.29-115.84,18.4-193.34,62.63-212.62,121.37-42.11,128.31-166.09,551.53,6.8,610.29,194.46,66.08,531.66,151.28,605.08-20.48,78.48-183.59,94.23-533.25,28.08-623.57h0C2806.74,1355.23,2755.22,1328.86,2690.13,1312.13Z"/><path class="cls-5" d="M2728,1700.53l99.11-8.32a37.36,37.36,0,0,1,40.5,38.73c-3.23,77.27-19.83,234.44-101.16,242.89-98.56,10.24-98.84-99.94-72.05-243A37.33,37.33,0,0,1,2728,1700.53Z"/><g class="cls-2"><path class="cls-3" d="M2694.61,1730.61c-27.13,143-27.09,253.26,71.5,243.21,40.47-4.07,65-45.1,79.83-94.78-11.61,12-25.4,19.79-41.87,21.44-88.25,9-97.56-78.45-79-199.57A37,37,0,0,0,2694.61,1730.61Z"/></g><path class="cls-3" d="M2727.67,1992.49A79.51,79.51,0,0,1,2688.1,1969c-35-38.15-39.28-110.61-14.32-242.27a58.65,58.65,0,0,1,52.75-47.34l99.14-8.1A58.53,58.53,0,0,1,2889,1732.1c-5.07,114.81-30.13,253.59-120.73,262.8Q2745.87,1997.17,2727.67,1992.49Zm106.85-278.6a16.06,16.06,0,0,0-5.4-.44l-99.14,8.1a16.18,16.18,0,0,0-14.59,13c-7.83,41.3-31.65,167,3.92,205.76,9.59,10.44,24.19,14.53,44.64,12.44,54-5.48,78.11-118.55,82.7-222.53a15.88,15.88,0,0,0-4.92-12.28A16.29,16.29,0,0,0,2834.52,1713.89Zm-106.26-13.44h0Z"/><path class="cls-3" d="M2864.24,1422.16c-11.53,2.87-23.35,3.93-35.15,4.47s-23.73,0-35.65-.49-23.89-1.34-35.91-2.4-24.08-2.43-36.35-4.59a3,3,0,0,1-2.43-3.43,3,3,0,0,1,1.66-2.2,303.65,303.65,0,0,1,34.5-13.29c11.64-3.66,23.35-7,35.11-9.72s23.56-5.45,35.46-6.87,23.82-2.27,36-1.09a20.13,20.13,0,0,1,3,39.56Z"/><path class="cls-5" d="M2325,1996.26l-68.37-41.59c-77.17-47-169.15-66.08-257.88-50.18-30.73,5.51-61.57,15.23-89.15,31.38-100.83,59-144.21,218.45-106.33,297.32,14.94,31.1,30.78,65.44,30.78,65.44-20.92,18-171.86,168.56-105.29,261,58.29,80.91,197.82,106,295,27.24,64.21-52,93-123.72,104.81-181.1,13.87-67.09,3.2-165.23,64-174.45,90.71-13.76,160,24.61,301.51-35.4,165.57-70.22,245.81-292.5,233.84-500.94-8.6-149.91-210.31-481.42-210.31-481.42l-115.34,800.87Z"/><path class="cls-5" d="M1995,1547.65l-334.15,176.92-1.66-5.24-68-216.67c152-23.13,281.74-174.65,281.74-174.65l7.92,14.28Z"/><g class="cls-2"><path class="cls-3" d="M1995,1547.65l-334.15,176.92-1.66-5.24c109-99.89,193-302.07,221.66-377Z"/></g><path class="cls-3" d="M1648.25,1755.2l-84.62-269.76,24.41-3.71c142.55-21.71,267.59-166,268.84-167.48l19.8-23.12L2024,1556.26Zm-29.73-236.28,54.9,175L1966,1539.05l-97.38-175.26C1828,1405.17,1731.77,1492.31,1618.52,1518.92Z"/><path class="cls-5" d="M1681.16,1498s-124.75-187.69-218.05-253.4L1416.78,1305l161.88,269.11Z"/><path class="cls-3" d="M1573.39,1594.59a21.22,21.22,0,0,1-12.88-9.59l-161.87-269.11a21.17,21.17,0,0,1,1.34-23.81l46.33-60.37a21.19,21.19,0,0,1,29-4.43c95.45,67.23,218.31,251.2,223.49,259a21.17,21.17,0,0,1-5,28.72l-102.5,76.08a21.16,21.16,0,0,1-16.73,3.77C1574.16,1594.77,1573.77,1594.69,1573.39,1594.59Zm-131-288.17,142.42,236.75,67.4-50c-30.14-43.43-114.7-161-185.14-218.88Z"/><path class="cls-5" d="M1942.25,1141.45c-2,346-174.94,618.57-174.94,618.57-344.8,32.23-252.57,387.7-252.57,387.7s-250,70-179.74,222.18c61.18,132.53,393.63,83.78,449.23-72.33,0,0-9.91-175.54,84.4-210.55"/><path class="cls-5" d="M2705.38,1917.68c-34.24,126-105.32,233.22-211.28,278.19-141.47,60-210.76,21.64-301.48,35.38-31.11,4.74-43.54,32.65-50.06,67.82-13.27,37.8-12.63,93.17-21.56,136.19-.16.83-.37,1.65-.53,2.49-15.19,50.37-44,106.38-96.7,149.07-93.76,76-227.06,55.28-288.57-19.07-2.22-2.65-4.36-5.39-6.37-8.2-15.48-21.42-19.21-46-15.55-71.34,22.15-61.92,75.16-122.47,101.06-148.83,5.56-5.68,9.89-9.76,12.37-12,0,0-2.67-6-6.86-15.21-3.16-7-7.21-16-11.65-25.68-3.81-8.36-7.93-17.23-11.94-25.86a131.81,131.81,0,0,1-9.28-28.57,413.35,413.35,0,0,0-2.71,65.44c-55.61,156.14-388.07,204.88-449.27,72.33-11.14-24.07-14.23-46.07-11.56-66,14.1-106.52,191.33-156.13,191.33-156.13s-46-177.12,48.27-292.66c39.27-48.12,102.89-85.55,204.27-95,0,0,40.88-64.43,83.11-170.45,10.81-27.17,21.72-57.06,32.07-89.27a1277.31,1277.31,0,0,0,47.68-203.54l587.47-83.27.58,1,.72,1.23.91,1.54a22.46,22.46,0,0,0,1.18,2c2,3.47,4.85,8.35,8.43,14.63,16.67,29.16,48.93,87,82.58,154.44,53,106.28,109.39,236.43,113.43,316.4,1.17,22.87,1.25,46,.25,69A724.71,724.71,0,0,1,2705.38,1917.68Z"/><path class="cls-3" d="M1823.4,2105.62a15.87,15.87,0,0,1-11.9-14.52c-10.38-189.61-249-218.48-251.43-218.77a15.88,15.88,0,0,1,3.53-31.57c2.68.33,267.79,32.46,279.61,248.61a15.9,15.9,0,0,1-19.81,16.25Z"/><path class="cls-5" d="M1930.16,1296.77l12.1-155.35A1110.53,1110.53,0,0,1,1930.16,1296.77Z"/><path class="cls-3" d="M1424.18,2458.69c-52-13.37-90.44-41-108.41-79.91-18.4-39.86-19.24-78.44-2.5-114.68,34.29-74.25,134.49-116,176.78-130.68-9-48.89-23.82-178.31,45.68-277.35,46-65.6,119.64-104.6,218.88-116,28.51-48.66,164.69-296.85,166.46-598.73a21.18,21.18,0,0,1,42.36.25c-2,348.08-171,618.45-178.24,629.79l-5.57,8.77-10.34,1c-91.66,8.57-158.52,41.91-198.75,99.11-74.36,105.73-35.68,260.67-35.28,262.22l5.16,20.08-20,5.61c-1.32.37-134,38.47-168.76,113.8-11.43,24.78-10.6,50.66,2.53,79.1,20,43.22,82.69,67.77,163.75,64.1,98.67-4.46,213.44-50.81,244.92-131-1-30-1.26-190,98.37-227a21.17,21.17,0,0,1,14.74,39.7c-65.15,24.18-73.07,145-70.63,189.51l.23,4.26-1.42,4c-37.28,104.68-173.51,157.75-284.3,162.76C1484.68,2469,1452.42,2466,1424.18,2458.69ZM1767.31,1760l.07,0Z"/><path class="cls-5" d="M2357.69,1933.8,2283,1970.13,1706.7,1504.58s51-14.64,180.49-19.14c86.43-3,207.84-1.56,372.39,11.76l17.11,76.12Z"/><path class="cls-3" d="M2280.12,1995.06l-618.4-499.63,39.17-11.22c5.95-1.7,150.39-41.33,560.41-8.09l15.53,1.26L2382,1945.5ZM1756,1517.12,2285.8,1945.2l47.54-23.13-91-405C1973,1496.16,1823,1507.86,1756,1517.12Z"/><polygon class="cls-7" points="1816.54 1968.61 2296.79 1970.17 2204.36 1555.34 1728.2 1537.87 1816.54 1968.61"/><polygon class="cls-7" points="1816.54 1968.61 2296.79 1970.17 2204.36 1555.34 1728.2 1537.87 1816.54 1968.61"/><g class="cls-2"><path class="cls-3" d="M2263.1,2016.19,1894.56,2015c-24.64,78.83-66.77,213.18-86.36,271.55-3.81-8.36-7.93-17.23-11.94-25.86a131.81,131.81,0,0,1-9.28-28.57,413.35,413.35,0,0,0-2.71,65.44c-55.61,156.14-388.07,204.88-449.27,72.33-11.14-24.07-14.23-46.07-11.56-66,45.23,121.76,275.4,77.13,319.7,53.64,48.22-25.54,58.34-43.22,68.42-183.89,5.44-76,37.73-126.14,75-159h-3.66l-68.2-17.53-133.22-90.33L1563,1855c39.27-48.12,102.89-85.55,204.27-95,0,0,40.88-64.43,83.11-170.45l320.24,11.75Z"/></g><polygon class="cls-8" points="2296.79 1970.18 1816.57 1968.59 1810.68 1940.02 1728.2 1537.88 2204.35 1555.32 2225.6 1650.65 2296.79 1970.18"/><g class="cls-9"><path class="cls-5" d="M1777.67,1617.18l51,351.46-12.12-.06-5.89-28.57-82.48-402.13,476.15,17.44,3.79,16.94-395.73,4.32A35.5,35.5,0,0,0,1777.67,1617.18Z"/></g><g class="cls-2"><path class="cls-3" d="M2296.79,1970.18l-480.22-1.6-5.89-28.57c34.24-101.06,260.92-99.15,260.92-99.15-3.23-139.51,113.05-180.19,154-190.21Z"/></g><path class="cls-3" d="M1811.6,1987.83a19.86,19.86,0,0,1-14.51-15.24l-88.34-430.73a19.86,19.86,0,0,1,20.18-23.83l476.16,17.47a19.9,19.9,0,0,1,18.65,15.52l92.43,414.83a19.86,19.86,0,0,1-19.44,24.17l-480.25-1.56A20.14,20.14,0,0,1,1811.6,1987.83Zm-58.87-429.19,80,390.16,439.26,1.44-83.69-375.62Z"/><polygon class="cls-10" points="1728.2 1537.87 1642.06 1516.44 1748.36 1951.08 1816.54 1968.61 1728.2 1537.87"/><g class="cls-9"><polygon class="cls-5" points="1736.75 1579.49 1652.33 1558.5 1642.05 1516.44 1728.2 1537.88 1736.75 1579.49"/></g><path class="cls-3" d="M1811.6,1987.83l-68.19-17.52a19.86,19.86,0,0,1-14.34-14.51l-106.3-434.65a19.86,19.86,0,0,1,24.08-24L1733,1518.6a20.21,20.21,0,0,1,14.66,15.28L1836,1964.62a19.84,19.84,0,0,1-24.39,23.21Zm-46.79-53,25.9,6.66-79.44-387.36-42.13-10.48Z"/><polygon class="cls-10" points="1748.37 1951.06 1615.15 1860.73 1578.37 1757.58 1555.8 1694.39 1497.79 1532 1416.76 1304.94 1642.05 1516.44 1747.68 1948.2 1748.37 1951.06"/><g class="cls-9"><polygon class="cls-5" points="1748.37 1951.06 1723.79 1934.41 1613.39 1536.25 1437.39 1362.71 1416.76 1304.94 1642.05 1516.44 1747.68 1948.2 1748.37 1951.06"/></g><path class="cls-3" d="M1743.41,1970.3a19.84,19.84,0,0,1-6.2-2.79L1604,1877.16a19.91,19.91,0,0,1-7.55-9.75l-198.4-555.77a19.85,19.85,0,0,1,32.29-21.14L1655.64,1502a19.81,19.81,0,0,1,5.7,9.76l106.3,434.64a19.85,19.85,0,0,1-24.23,23.94ZM1631.69,1848l85.13,57.74-92.65-378.81-161.07-151.2Z"/><path class="cls-3" d="M1642.06,1516.44s13.75-47.26,54-42.83c33.27,3.67,41.63,64.61,41.63,64.61Z"/><path class="cls-5" d="M2706.33,1914c-.27,1.24-.63,2.46-.95,3.69-34.24,126-105.32,233.22-211.28,278.19-141.47,60-210.76,21.64-301.48,35.38-31.11,4.74-43.54,32.65-50.06,67.82-6.29,33.63-7.23,73.84-14,106.66-2.15,10.27-4.8,21-8.12,32-15.19,50.37-44,106.38-96.7,149.07-97.14,78.73-236.65,53.69-294.94-27.27-15.48-21.42-19.21-46-15.55-71.34.11-.85.28-1.73.44-2.56,11.14-68.64,75.21-142.25,106.13-173.44,6.49-6.53,11.53-11.25,14.27-13.61,0,0-15.84-34.29-30.8-65.42-37.88-78.88,5.5-238.27,106.34-297.35,27.59-16.14,58.41-25.87,89.17-31.36a360.1,360.1,0,0,1,142.17,3.42,382.46,382.46,0,0,1,115.68,46.74l68.39,41.63,77.23,18.1,51.56-357.95c22.95-13.34,44.81-38.44,54-83.86l2.37-49.63,11.21-236.48.78-17.07s49.28,62.63,99.77,151.37c49.46,86.78,100.1,198.56,107,301.14a1.16,1.16,0,0,0,0,.55c.42,18.8,0,37.66-1.17,56.44A688.3,688.3,0,0,1,2706.33,1914Z"/><g class="cls-2"><path class="cls-3" d="M2706.33,1914c-.27,1.24-.63,2.46-.95,3.69-34.24,126-105.32,233.22-211.28,278.19-141.47,60-210.76,21.64-301.48,35.38-31.11,4.74-43.54,32.65-50.06,67.82-6.29,33.63-7.23,73.84-14,106.66-2.15,10.27-4.8,21-8.12,32-15.19,50.37-44,106.38-96.7,149.07-97.14,78.73-236.65,53.69-294.94-27.27-15.48-21.42-19.21-46-15.55-71.34.11-.85.28-1.73.44-2.56,61.39,85.47,189.13,142.46,298.61,23.62,125.21-136,45.76-225.25,63.24-301.32s152.34-21.25,377.26-61.82C2586,2122.15,2664.49,2005.28,2706.33,1914Z"/></g><path class="cls-3" d="M2321.37,2002.3c-16.79-6.68-33.12-14.12-49.26-21.86-8.1-3.83-16.15-7.76-24.08-11.83-7.76-3.66-15.43-7.37-23.23-10.76-31.18-13.56-63.39-24-96.41-30a372.56,372.56,0,0,0-99.8-4.42c-33.16,3.08-66.2,10.48-95.3,24.41a136.61,136.61,0,0,0-20.64,12c-3.23,2.26-6.71,4.1-9.76,6.67l-9.15,7.69-4.59,3.83-4.19,4.36-8.44,8.68c-5.26,6.16-10.39,12.53-15.24,19.09-18.8,26.86-32.71,57.68-41.36,89.71s-11.21,65.72-6.21,96.54c2,7.32,3.27,15.07,6.38,21.6l2,5.12c.63,1.69,1.81,4,2.69,5.91l5.72,12.14,22.85,48.59L1860,2304l-12.14,10.66c-3.88,3.4-8.47,7.88-12.72,12.14s-8.58,8.82-12.76,13.37q-12.59,13.64-24.22,28.09c-15.42,19.27-29.65,39.44-41.15,60.53-11.32,21-20.52,43.16-23.07,64.66a84.71,84.71,0,0,0,1.42,30.6,66.22,66.22,0,0,0,13.25,26.34c27.15,35.29,72.17,56.87,118.12,61.8,46.28,5.44,93.9-7,131.85-33.3,4.63-3.52,9.48-6.56,14-10.41s9.07-7.62,13.24-11.83a255.89,255.89,0,0,0,24-26.26,284.9,284.9,0,0,0,36.6-61.41,338.39,338.39,0,0,0,21.72-69c4.58-23.12,6.2-48.59,9.25-74.72a379,379,0,0,1,6.49-40.31c3.33-13.76,7.46-28.21,16.67-42.55a74.06,74.06,0,0,1,18.24-19.61,68.27,68.27,0,0,1,25.23-11.42c2.08-.42,4.62-1,6.33-1.2l5.15-.62,10.31-1.23c6.85-.6,13.71-1,20.53-1.29,27.25-.8,53.38,1.26,78.46,2.16s49.39.62,73.44-2.52c24-2.95,47.69-8.89,70.94-16.61,11.69-3.58,23.08-8.43,34.56-12.89,5.65-2.32,10.86-4.93,16.31-7.36,5.21-2.87,10.55-5.48,15.67-8.52,41.08-24.15,75.92-59.12,103-99.72S2666,1975.4,2680.31,1928a658.92,658.92,0,0,0,26.09-146.65,697.78,697.78,0,0,0,.87-74.73l-.4-9.33c-.18-3-.53-5.81-.78-8.72-.34-5.72-1.53-11.66-2.37-17.52s-2.4-11.83-3.56-17.75l-4.53-17.83c-13.24-47.63-32.41-94.74-53.29-140.9C2600,1402,2545,1316.09,2511.62,1217.19a7.23,7.23,0,0,1,12.06-7.34c18.51,19,34.09,39.83,48.86,61.16s27.94,43.61,40.64,66.16c25.39,45.13,46.51,92.54,67.9,139.9,21.14,47.51,41.13,95.76,55.4,147.19l4.95,19.5c1.34,6.68,2.89,13.23,4,20s2.31,13.53,2.8,20.64c.3,3.49.71,7.1.9,10.47l.44,9.91a740.91,740.91,0,0,1-.93,79.28,701.67,701.67,0,0,1-27.8,156.11c-15.35,50.82-37.06,100.22-67.09,145.07C2624,2130.05,2584.66,2170,2537,2197.93c-5.92,3.51-12.12,6.58-18.18,9.87-6.25,2.83-12.56,5.94-18.79,8.5-12.45,4.86-24.73,10-37.6,14-25.46,8.46-51.89,15.09-78.87,18.42-26.92,3.52-54.18,3.92-80.38,2.84s-51.41-2.9-75.54-2.16c-6,.31-12,.62-17.91,1.13l-8.82,1.06-4.41.52c-1.48.17-2.05.42-3.13.59-7.43,1.78-12.44,5.39-17.36,12.79s-8.33,17.86-10.92,29a339.12,339.12,0,0,0-5.7,35.73c-3,24.86-4.45,50.82-9.79,78.15a381.69,381.69,0,0,1-24.49,77.72c-21.9,50-56.3,95.58-102.4,127.65-46.36,32.18-104.54,47.15-160.5,40.6a234,234,0,0,1-80.84-23.89c-25.28-12.91-48.49-31-66.34-54.21l-3.44-4.26-3.23-5a73.87,73.87,0,0,1-5.9-10.36,79,79,0,0,1-4.73-11,84.56,84.56,0,0,1-3.49-11.4,127.22,127.22,0,0,1-2.34-45.9c3.71-29.71,15.07-55.72,27.94-79.79,13.12-24,28.67-46,45.32-66.79q12.54-15.59,26.08-30.25,6.76-7.35,13.84-14.5c4.83-4.81,9.4-9.35,15.17-14.42l-5.42,24.93-22.65-48.14-5.66-12c-1-2.11-1.86-3.79-2.85-6.25l-2.91-7.31c-4.38-9.75-6.2-19.67-8.71-29.57-1.18-9.84-3.16-19.79-3.08-29.52-.11-4.88-.43-9.8-.33-14.65l.77-14.48a120,120,0,0,1,1.42-14.35l1.92-14.25c2-9.32,3.61-18.77,6.2-27.92,9.92-36.73,25.68-71.83,47.76-103.38,5.74-7.73,11.66-15.39,17.91-22.78l10-10.63,5-5.29,5.58-4.84,11.22-9.59c3.76-3.19,8.11-5.72,12.16-8.59,4.15-2.71,8.19-5.75,12.45-8.13s8.57-4.75,12.92-7c35-17.5,72.42-26.89,110.06-30.74a357.9,357.9,0,0,1,56.79-1.32,393.48,393.48,0,0,1,56.14,7.68c36.78,8.32,72.53,21.46,104.55,40.87,8.15,4.57,15.78,10,23.44,15.26,7.29,5.18,14.46,10.52,21.59,15.94,14.3,10.78,28.41,21.86,42.06,33.71a7.16,7.16,0,0,1-7.34,12.06Z"/><g class="cls-2"><path class="cls-3" d="M2717.67,1826.27a205.61,205.61,0,0,1-23.94,50c-83.25,125.86-271.6,164.52-401.06,131.25-77.89-20-124.61-46-151.67-99.61a213.8,213.8,0,0,1-12.58-31.22c-26.59-83.25,20.6-172.63,127.39-192.78,8.68-1.65,26,.72,26,.72l-13.22-58.72-4.4-19.66s11.87,6.12,28.78,14.56c38,19,101.19,49.9,111.54,49.61a105.05,105.05,0,0,0,49.35-14c22.95-13.34,44.81-38.44,54-83.86l38.31-42.26-9.42-236-14.53-24.88s49.28,62.63,99.77,151.37c49.46,86.78,100.1,198.56,107,301.14a1.16,1.16,0,0,0,0,.55,311.56,311.56,0,0,1-1.17,56.44A239.75,239.75,0,0,1,2717.67,1826.27Z"/></g><path class="cls-5" d="M2725.72,1773.68a205.6,205.6,0,0,1-23.94,50c-83.24,125.86-271.6,164.52-401.06,131.24-91.73-23.57-140.17-55.43-164.25-130.82-26.59-83.25,20.6-172.63,127.4-192.79,8.67-1.65,26,.73,26,.73l-13.22-58.72-4.4-19.66s11.87,6.11,28.78,14.56c38,19,101.2,49.9,111.55,49.61,31.33-.91,87.17-17.61,103.32-97.85l2.36-49.63,11.21-236.48.78-17.07s49.28,62.63,99.77,151.37C2697.05,1485.85,2766.28,1649.48,2725.72,1773.68Z"/><g class="cls-2"><path class="cls-3" d="M2725.72,1773.68a205.6,205.6,0,0,1-23.94,50c-83.24,125.86-271.6,164.52-401.06,131.24-91.73-23.57-140.17-55.43-164.25-130.82a148.32,148.32,0,0,1-6-64.47c26.49,57.7,73.71,84.92,154.52,105.69,129.47,33.28,317.82-5.38,401.06-131.24a205.23,205.23,0,0,0,23.94-50c10.72-32.77,13.78-68.28,11.24-105C2739.48,1646.79,2745,1714.68,2725.72,1773.68Z"/></g><path class="cls-3" d="M2535.82,1212.4c14.22,10.77,26.42,23,38,35.77a431.35,431.35,0,0,1,32.32,40.18,800.63,800.63,0,0,1,54.16,87.63q24.09,45.66,44.35,93.44c13.44,31.84,25.72,64.38,35.14,98.07s16.3,68.44,18.36,104.19-1,72.54-12.36,107.86c-2.4,9-6.35,17.42-10.09,26-3.33,8.72-8.72,16.47-13.23,24.63-1.21,2-2.29,4.1-3.61,6l-4.08,5.52-8.19,11c-5.17,7.6-11.75,13.94-17.85,20.71-25.06,26.46-54.69,47.9-86.31,64.65s-65.4,28.88-99.91,36.86a475.68,475.68,0,0,1-105.26,12.38,407.93,407.93,0,0,1-105.84-12.92,479.22,479.22,0,0,1-50.54-16c-16.76-6.44-33.5-14.25-49.31-24.62a175.06,175.06,0,0,1-42.35-38.67,203.77,203.77,0,0,1-40.63-104.82,157.88,157.88,0,0,1,6.07-57.57c5.55-18.59,14-36.56,25.94-51.9a180,180,0,0,1,41.91-39.46c4-2.63,8.16-4.9,12.25-7.34,2.07-1.18,4.1-2.44,6.2-3.53l6.45-3c4.31-1.9,8.56-4,13-5.69l13.31-4.54a108.87,108.87,0,0,1,13.47-3.7l6.78-1.61,3.39-.79,1.7-.4.85-.19,1.38-.23a84.92,84.92,0,0,1,17-.56c5,.26,9.32.66,14.39,1.3l-23.49,25.63-17.61-78.37-9.9-44.07,40.26,20.6c22.71,11.63,45.71,23.15,68.68,34.22,11.49,5.55,23,11,34.47,16.1,5.75,2.57,11.45,4.91,17.08,7.18,2.65.9,5.62,2,8,2.77l3.3,1,.41.12c.08,0-.13-.07-.19-.1a2.23,2.23,0,0,0-.59-.16,2.55,2.55,0,0,0-1.14.11,90,90,0,0,0,29.38-7.39,99.77,99.77,0,0,0,25.39-15.72,157,157,0,0,0,21.53-23.72c7.11-9,12.92-19.6,20.7-30.61l.42-.59a7.42,7.42,0,0,1,13.42,3.38c.85,7,1.51,14.2.71,21.3-.41,3.54-.67,7.17-1.28,10.75-.78,3.54-1.67,7.1-2.62,10.66a102.57,102.57,0,0,1-22.32,39.42,106.23,106.23,0,0,1-38.35,27.08,122.41,122.41,0,0,1-45.71,9,58.36,58.36,0,0,1-5.91-.63l-3-.54-1.38-.31-.74-.24-5.91-2c-3.72-1.34-6.71-2.68-10.09-4-6.27-2.65-12.43-5.35-18.42-8.08-12-5.41-23.86-11-35.57-16.61-23.46-11.31-46.53-22.87-69.7-34.72l30.36-23.47,17.61,78.37,6.62,29.45L2287,1653c-3.31-.42-7.38-.8-10.84-1a52.69,52.69,0,0,0-8.27.08l-10.59,2.51a79,79,0,0,0-10.95,3l-10.7,3.63c-3.52,1.3-6.81,3-10.23,4.52l-5.1,2.29c-1.65.86-3.19,1.86-4.8,2.78-3.15,1.91-6.44,3.63-9.5,5.65a137.66,137.66,0,0,0-31.59,29.71c-8.93,11.34-15,24.6-19.11,38.27a115.28,115.28,0,0,0-4.49,42.69,150.74,150.74,0,0,0,10.18,43c11,28.61,28.63,51.95,53.8,68.13,108.58,62.87,254.92,60.59,367.87,2.23,28.07-14.88,53.84-33.65,75.27-56.27,5.19-5.8,10.93-11.17,15.22-17.65l6.94-9.33,3.49-4.65c1.12-1.57,1.93-3.26,2.91-4.89,3.58-6.66,8.11-12.8,10.72-20,3-7,6.34-13.79,8.26-21.25,9.41-29.09,12.18-60.69,10.36-92.42s-8-63.74-16.85-95.13c-17.68-62.91-45.48-123.64-78.52-181.18q-24.48-43.37-49.77-86.5c-8.4-14.4-16.52-29-24.24-44s-15.31-30.17-21.78-46.13l-.07-.18a7.3,7.3,0,0,1,11.17-8.55Z"/><path class="cls-5" d="M1632.07,1167.52c432.06,683.17,1402,117.14,1059.15-581.75C2265.54-124,1263.47,462,1632.07,1167.52Z"/><path class="cls-5" d="M1632.07,1167.52c432.06,683.17,1402,117.14,1059.15-581.75C2265.54-124,1263.47,462,1632.07,1167.52Z"/><g class="cls-2"><path class="cls-3" d="M2630,1368.15q-8.72,10.29-18,20.14a607.73,607.73,0,0,1-93.79,82A613.9,613.9,0,0,1,2301,1568.2c-8.08,1.86-16.18,3.6-24.33,5.12l-17.11-76.12c-164.55-13.32-286-14.8-372.39-11.76a1275.06,1275.06,0,0,0,43-188.68l587.47-83.27.58,1,.72,1.23.91,1.54a22.46,22.46,0,0,0,1.18,2c2,3.47,4.85,8.35,8.43,14.63l.78-17.07S2579.52,1279.41,2630,1368.15Z"/></g><path class="cls-5" d="M1632.07,1167.52c432.06,683.17,1402,117.14,1059.15-581.75C2265.54-124,1263.47,462,1632.07,1167.52Z"/><path class="cls-3" d="M2004.79,1473.1c-154.28-39.66-287.23-142.17-385.48-297.51l-.62-1.08c-87.9-168.24-105.28-341.74-50.27-501.71,49.08-142.73,152.28-264,290.6-341.56,138-77.36,294.38-101.37,440.2-67.6,164.29,38,304.44,146.79,405,314.37l.6,1.12c81.89,166.9,95.74,338.06,40.07,495-49.79,140.34-152,259.48-287.9,335.48-135.55,75.82-289.58,99.94-433.7,67.92Q2014,1475.45,2004.79,1473.1ZM1645.16,1160c216.18,341.3,556,358.09,797,223.27C2677.68,1251.53,2851.8,948.08,2678,593c-211.85-352.7-565.3-369.29-804.16-235.41C1632.55,492.78,1458.19,801.48,1645.16,1160Z"/><g class="cls-2"><path class="cls-3" d="M1632.07,1167.5c362.91,596.57,1231.8,251.26,1119.57-410.42-34.22,216.17-108.32,226.79-218.82,339.37-338.51,368.78-892.12,119.3-972.89-313.5C1540.22,917.57,1567.22,1052.68,1632.07,1167.5Z"/></g><path class="cls-11" d="M2003.26,1479c-155.79-40-290-143.46-389.09-300.14l-.87-1.51c-88.69-169.76-106.2-344.91-50.64-506.51,49.57-144.15,153.77-266.63,293.39-344.88,139.37-78.11,297.24-102.34,444.54-68.22,166.08,38.61,307.42,148.13,408.79,317.16l.85,1.57c82.62,168.41,96.57,341.2,40.34,499.7-50.28,141.73-153.51,262-290.66,338.76-136.86,76.55-292.4,100.89-438,68.54Q2012.55,1481.36,2003.26,1479Zm-352.82-322c214,337.71,550.33,354.4,788.79,221,233-130.34,405.32-430.58,233.37-782-209.77-349-559.51-365.47-795.84-233C1638.06,496.66,1465.56,802.15,1650.44,1156.94Z"/><path class="cls-3" d="M2003.26,1479c-155.79-40-290-143.46-389.09-300.14l-.87-1.51c-88.69-169.76-106.2-344.91-50.64-506.51,49.57-144.15,153.77-266.63,293.39-344.88,139.37-78.11,297.24-102.34,444.54-68.22,166.08,38.61,307.42,148.13,408.79,317.16l.85,1.57c82.62,168.41,96.57,341.2,40.34,499.7-50.28,141.73-153.51,262-290.66,338.76-136.86,76.55-292.4,100.89-438,68.54Q2012.55,1481.36,2003.26,1479Zm-352.82-322c214,337.71,550.33,354.4,788.79,221,233-130.34,405.32-430.58,233.37-782-209.77-349-559.51-365.47-795.84-233C1638.06,496.66,1465.56,802.15,1650.44,1156.94Z"/><path class="cls-12" d="M1724.86,1291.47c600.24,378.66,1140.1-318.84,689-746.15C1879.48,97.4,1245.23,751.89,1724.86,1291.47Z"/><g class="cls-2"><path class="cls-13" d="M2512,665.93c85.76,389.33-360.14,786.93-845.56,480.7-38.76-43.6-70.2-88-95-132.42,23.31,91.79,72.5,186.16,153.48,277.26C2271.23,1636.15,2767.53,1089.17,2512,665.93Z"/></g><path class="cls-3" d="M1971.33,1459.81q-8.2-2.11-16.32-4.5C1819.83,1415.56,1703.25,1319,1617.87,1176l-.07-.11c-139.52-237.72-103-617.41,173.79-803.73l2.45-1.36c149.1-67.05,327.47-66.58,489.36,1.26,161.34,67.61,286.16,193.61,342.44,345.69,50.71,148.64,44,297.42-19.17,430.66-57.29,120.77-156.78,218.73-280.13,275.84C2212.4,1477.08,2086.94,1489.52,1971.33,1459.81Zm-325-300.71c187.72,314.31,476.27,323.1,666.33,235.12,218.45-101.13,385.47-362.16,282-665.39-53-143.11-171.13-262.17-324.05-326.26s-321.22-64.89-461.72-2.17C1548.62,576.59,1514.61,934.65,1646.31,1159.1Z"/><path class="cls-3" d="M1924.41,1402.31c-70.88-18.21-141.72-49.32-210.85-92.93l-2.54-1.6-2-2.24c-116.09-130.6-176.65-277.62-175.16-425.19a510.42,510.42,0,0,1,144.77-352c89.93-92.58,209.72-146.8,337.3-152.66,141.75-6.52,284,46.51,411.51,153.36l1,.86c106.24,100.63,166.12,222.64,173.17,352.85C2608,1000.71,2570,1119.05,2494.66,1216A530,530,0,0,1,2165,1413.65C2086.48,1427.12,2005.42,1423.14,1924.41,1402.31ZM1738.7,1275.16c305,190.92,582.51,95.06,722.52-85.13,127-163.51,157.23-421.32-61.47-628.89C2135.35,339.87,1862.37,400,1709,557.9,1551.45,720.11,1499.81,1004.53,1738.7,1275.16Z"/><path class="cls-5" d="M2839.08,1014.39c-47,281.12-332.69,257.69-314.89-15.21C2562.62,702.73,2868,727.74,2839.08,1014.39Z"/><g class="cls-2"><path class="cls-3" d="M2654.28,1215.26c-85.69-6.4-146-112.32-128.4-230.35,51.46,125.07,185.86-76.95,196.19-135.4C2941.25,909.49,2811.43,1230.38,2654.28,1215.26Z"/></g><path class="cls-3" d="M2629.6,1231.47c-72.15-18.54-135.6-94.76-126.54-233.67l.14-1.34c21.23-163.84,122.86-239.13,212.27-228.82,80.8,9.32,160.61,91.17,144.68,248.88l-.18,1.36c-27.22,162.86-128.59,226.72-211.25,217.14A141.57,141.57,0,0,1,2629.6,1231.47Zm-84.32-230.24C2537.49,1124.08,2594,1186,2653.59,1193c63.3,7.34,141.69-46.3,164.49-181.37,12.77-128.71-46.66-194.87-107.46-201.87C2641.94,801.79,2563.17,865,2545.28,1001.23Z"/><path class="cls-5" d="M2849.86,1030.32c-38.32,227.77-252.65,213.84-238.29-6.89C2641.93,780.36,2874.84,795.76,2849.86,1030.32Z"/><path class="cls-3" d="M2688.64,1213c-56.19-14.44-105.64-76.6-98.2-191l.12-1.25c17.23-138,98.16-201.82,169.2-193.6,63.32,7.29,125.07,74.72,111.15,205.36l-.17,1.27c-22.83,135.69-103.16,189.35-168.14,181.79A104.81,104.81,0,0,1,2688.64,1213Zm-56-187.59c-6,95.6,33.19,143.26,74.83,148.12,47.08,5.48,103.83-43,121.38-146.11,10.62-101.56-30.88-153.17-74-158.17C2704.66,863.46,2646.62,915.24,2632.66,1025.43Z"/><g class="cls-9"><path class="cls-5" d="M2471.54,875.26c-34.69,114.87-165.85,77.47-152.61-26.88C2343.07,717.71,2498.37,759.29,2471.54,875.26Z"/></g><g class="cls-9"><path class="cls-5" d="M2398.14,1055.27c-15.81,43.16-73.48,27.92-60.66-20.57C2353.28,991.54,2411,1006.78,2398.14,1055.27Z"/></g><g class="cls-9"><path class="cls-5" d="M1636.08,913.16C1564.41,460.31,2033.64,406.57,2174.69,504,1874.11,521.48,1739.17,705.54,1636.08,913.16Z"/></g><g class="cls-2"><path class="cls-3" d="M2599.49,1075.05c-3.77-32.28,1.3-65.7,13-96.18,39,154.83,195.05,88.44,232.29-21.91C2876.51,1185.66,2643.24,1289.76,2599.49,1075.05Z"/></g><path class="cls-3" d="M2533.78,833.06a36.17,36.17,0,0,1-7.29-2.75c-26.19-13.22-27.85-53.8-27.73-65.92a21.18,21.18,0,0,1,42.35.36h0c-.05,9.17,1.83,20.32,4.11,25.83a36.71,36.71,0,0,0,4.29-2.84A21.18,21.18,0,1,1,2575,821.58C2557.78,834.52,2543.84,835.65,2533.78,833.06Z"/><g class="cls-2"><path class="cls-3" d="M1748.37,1951.06l-133.22-90.33-36.78-103.15-22.57-63.19-58-162.39c1.17-7.52,2.49-15.21,4.1-23.16,0,0,80.12,40.87,114.07,135.69,15.77,44.12,9.73,87.39-6.57,106.16,28.94,57.12,41.26,126,138.31,197.51Z"/></g><path class="cls-5" d="M1473.1,1446.75s80.13,40.9,114.06,135.74c22.07,61.65,1.44,121.8-30.12,115.4S1437.93,1621.44,1473.1,1446.75Z"/><g class="cls-2"><path class="cls-3" d="M1557,1697.88c-30.09-6.1-111.29-70.2-88-228,8.3,101,66.62,144.43,91.14,149.42,13.14,2.66,24.45-6.24,31.47-22.09C1605.87,1653.36,1586.08,1703.76,1557,1697.88Z"/></g><path class="cls-3" d="M1549.93,1718c-47.68-12.25-133.84-95.32-97.59-275.39l5.51-27.38,24.87,12.69c3.58,1.83,88,45.88,124.38,147.46,17.16,47.94,12.86,100.23-10.46,127.15-11.71,13.53-27.68,19.42-43.81,16.14C1551.88,1718.45,1550.91,1718.23,1549.93,1718Zm-61.25-235.34c-17.25,140.13,54.84,190,71.91,194.35l.66.16c1,.2,2.54-1.4,3.38-2.36,9.44-10.9,16.79-45.5,2.6-85.16C1548.2,1536.44,1512.8,1501.49,1488.68,1482.63Z"/><path class="cls-3" d="M2628.35,1910.34a15.89,15.89,0,0,1-8.2-25.6c50.36-59.94,18.14-128.67-5.55-164.31-45.42-68.32-119.26-109.31-152.47-99a15.88,15.88,0,0,1-9.43-30.33c56.54-17.57,143,43.59,188.35,111.75,48.68,73.22,49.93,147,3.42,202.33A15.87,15.87,0,0,1,2628.35,1910.34Z"/><path class="cls-3" d="M2146,2286.48a17,17,0,0,1-2.48-.86,15.89,15.89,0,0,1-8.11-20.95c62.5-141.58,10.77-226.58-25.63-264.65-50.29-52.6-129.55-76.17-184.35-54.86a15.88,15.88,0,1,1-11.52-29.6c67.18-26.13,159.21.15,218.82,62.51,71.27,74.53,82.84,183.67,31.74,299.44A15.89,15.89,0,0,1,2146,2286.48Z"/><path class="cls-3" d="M1837.55,2268.94c4.32,4.44,9.54,10.08,14.5,15s10.18,10,15.46,14.77c10.63,9.43,21.65,18.36,33.78,25.63,12.07,7.46,25.32,12.47,39.34,15.81l10.73,2.13,11,.74c1.86.11,3.75.35,5.63.36l5.63-.31,11.58-.49.31,0a2.28,2.28,0,0,1,1,4.36c-3.64,1.59-7.33,3.23-11.12,4.74l-5.72,2.3c-2,.6-4,1-6,1.47-4,1-8.07,1.88-12.19,2.67l-12.54.9c-16.76.26-34.14-2.42-50-8.76a162.3,162.3,0,0,1-43.89-25.3,120.82,120.82,0,0,1-9.49-8.29,116.66,116.66,0,0,1-8.8-9,120.74,120.74,0,0,1-15.45-20.64,15.89,15.89,0,0,1,25.06-19.18Z"/><path class="cls-3" d="M1526.52,2126.59c0-.22.45.71.69,1.18l1,1.88c.56,1.29,1.47,2.63,2.16,4a93.13,93.13,0,0,0,5.05,8,128.2,128.2,0,0,0,12.34,15.11A149.15,149.15,0,0,0,1580.3,2182c12.22,7.5,26.09,12.8,40.21,18.12l21.9,6.76c7.48,1.77,15,3.71,22.65,5.87l.16.05a2.28,2.28,0,0,1,1.58,2.83,2.26,2.26,0,0,1-2,1.65q-11.83,1.3-23.92,2c-8,.1-16.09-.29-24.24-.61-16.12-1.89-32.63-4.44-48.46-10.69-15.82-5.92-31.58-14.21-44.61-26.59-6.43-6.24-12.54-13-17.26-20.92a80.88,80.88,0,0,1-6.45-12.32,71.71,71.71,0,0,1-2.47-6.75c-.37-1.2-.72-2.27-1-3.61s-.55-2.3-.94-4.42a15.88,15.88,0,1,1,31-6.72Z"/><path class="cls-14" d="M2163.39,2164.32s13.81-69.51-26.78-129c0,0-26.09-49.06-77.51-73.83s-74.18-23.4-74.18-23.4-40.41-19.23-108.4,53-65.37,172.82-65.37,172.82a132.7,132.7,0,0,0,3.45,36c3.69,15.39,9.89,28.59,15.87,41.3,10.13,21.57,10.3,21.91,10.3,21.91s7.92,15.92,7.22,16.29l-.83-.4h0s20.15,21.29,34.68,31.8c0,0,32,28.8,72.62,31.72s27.76.21,27.76.21,13,.75.24,6-18.71,6.73-18.71,6.73-44.18,8.4-83.09-8.72c0,0-26-11.76-39.89-25.41,0,0-46.81,46.29-66.7,79.63s-22.92,39.36-22.92,39.36-21.46,35.34-17.83,69.22c0,0,33.62,35.78,62.84,47.71l29.23,11.94s67.24,26.93,128.32-12.91,80-72.3,80-72.3,49.53-51.38,50.77-133.49c0,0-5.69-66.51-11-103.8s10.91-57.95,10.91-57.95S2097.49,2165.14,2163.39,2164.32Z"/><path class="cls-14" d="M1513.37,2170.31s-95.92,32.13-125.78,66.27c0,0-37,28.82-40.36,57.05,0,0-7.91,26.32-.46,46.86,0,0,26.42,30.88,83.54,39.56s74.32,4.87,74.32,4.87,73.34-5.6,101.55-14.54,48.87-14.76,62.17-28.79,26.78-14.83,33.68-74.57,14.74-131,14.74-131c9.83-25.63,31.37-79.92,44-94.35l20.78-23.43c.33-.36,5.66-6.35,5.66-6.35h0l-72.56-14.82-134.25-93.23-9.9-23.62s-54,63.24-45.61,175,10.48,86.38,10.48,86.38,24.33,39.66,77.08,55.4,41,12.57,41,12.57,26.62,3.88,3.78,8.41-55.39-1.37-55.39-1.37S1535.18,2202.7,1513.37,2170.31Z"/><path class="cls-15" d="M2148,2232.68s16.84-54.56,15.43-68.36c0,0-53.06.95-66.92,14,0,0-18.74,4.6-23.35,42,0,0-2.49,30.39,2.35,43.44l5.76,51.14s2.49,29,2.27,51.61-16,63.33-16,63.33-29.11,51.78-40.4,63.41-49.75,49.53-70.65,61.25-34.5,19.1-72.3,23.47-96.57-24.82-96.57-24.82-34.19-22.32-54.23-43.61c0,0-2.84,35.5,41.48,66.89s83.48,34.72,83.48,34.72,34.08,10.25,91.52-7.78,97.17-69.5,97.17-69.5,31.21-28.68,56.51-114c0,0,11.84-41.27,11.64-73.69s15-82.45,15-82.45S2137.18,2242.51,2148,2232.68Z"/><path class="cls-16" d="M1574.59,1874.25l-4.06,6,9.9,23.62,134.25,93.23,72.56,14.82-26.44,29.78s-16.57,19.65-44,94.35l-15.16,134.49s-4.81,44.48-20.83,59.5a246.8,246.8,0,0,1-34.76,26.52s-69.88,23.06-132.86,27.68-120.09-14-120.09-14-38-20.23-46.3-29.68c0,0,.22,30.67,41.29,58.44s114.86,26.55,114.86,26.55,85,1.7,161.17-36.28,90.09-77.13,90.09-77.13l8.71-17.91s0-68.13,8.26-96.93c0,0-12.64-76.76,28.58-164.9a146,146,0,0,0-31.87-55.74l-24.45-6.29-6.2-2.79-123-83.41Z"/><path class="cls-14" d="M1710.61,498.18s48.94-61.8,118.5-106.29c0,0,77.61-32.57,171.86-37.13s161.54,13.1,161.54,13.1,99.32,19.17,181.21,71c0,0,57.61,28.4,123.47,94.27s86.93,111,86.93,111,45.33,70.91,58.73,149.35l-21.12,16s-15.18-75.26-55.52-144.17-98.21-126-98.21-126S2364.55,466.9,2237.83,414s-245.1-36.69-245.1-36.69-92,9.86-145.88,36.26S1768.37,452.4,1710.61,498.18Z"/><path class="cls-15" d="M2534.32,1157.18l16.49,23.46s-33,51.46-54.81,75.15c0,0-29.4,34.79-58.48,58s-37.19,29.15-37.19,29.15-53.58,36.09-82.45,48.78-79,32.29-112.2,38.47-41.79,7.42-41.79,7.42-53.3,9.55-110.1,2.69-75-12.75-75-12.75-32-4.48-78.69-32c0,0,41.07,14.17,112.13,22.71s135.24-1.93,135.24-1.93,88.21-12.76,141.79-40,63.58-33.27,63.58-33.27,54.4-34.63,82-62,39.32-40,63.53-69.92S2534.32,1157.18,2534.32,1157.18Z"/><path class="cls-16" d="M2632.66,1025.43s-13.86,93,45,137,114.18-33.36,114.18-33.36,47.51-74.35,38.57-140.75c0,0-29.63,53.31-87.85,75.21S2632.66,1025.43,2632.66,1025.43Z"/><path class="cls-14" d="M2830.42,988.3s1.58-99.83-68.86-117.9-106.42,72.85-106.42,72.85-16.45,32.43-22.48,82.18c0,0,36.07,44.16,91.4,43.3S2830.42,988.3,2830.42,988.3Z"/></svg>