<svg id="Layer_1" data-name="Layer 1" xmlns="http://www.w3.org/2000/svg" viewBox="0 0 4000 4000"><defs><style>.cls-1{fill:#bcbec0;}.cls-2{opacity:0.35;}.cls-3{fill:#371a45;}.cls-4{opacity:0.4;}.cls-5{fill:#fff;}.cls-6{fill:#a7a9ac;}</style></defs><path class="cls-1" d="M2749.53,2977C2213.48,3351.76,1475.24,3221,1100.46,2685a1182.54,1182.54,0,0,1-149.75-294,1169.25,1169.25,0,0,1-37.58-134.8c-93.88-436.37,65-905.16,438.61-1190.31,13.3-10.28,26.9-20.2,40.78-29.89a1185.31,1185.31,0,0,1,587.2-210.31c10.25-.8,20.52-1.41,30.8-1.95a1188.87,1188.87,0,0,1,495.81,81.36c209,82.33,396.85,225,535.24,422.89a1181.67,1181.67,0,0,1,166.9,348C3346.18,2149.8,3176.34,2678.66,2749.53,2977Z"/><g class="cls-2"><path class="cls-3" d="M928.91,2103q6.55,57.38,18.69,114.28a1169.25,1169.25,0,0,0,37.58,134.8,1182.71,1182.71,0,0,0,149.75,294c374.78,536,1113,666.77,1649.07,292.05,360.29-251.92,537.39-668,501-1076.63-4-36.71-9.52-73.35-17-109.76,1.37,375.1-175,744.64-505.73,975.84-536,374.71-1274.29,244-1649.07-292a1182.88,1182.88,0,0,1-149.75-294,1169.25,1169.25,0,0,1-37.58-134.8c-.76-3.69-1.54-7.38-2.31-11.07a1186.36,1186.36,0,0,0,9,141Q930.53,2119.89,928.91,2103Z"/></g><g class="cls-4"><path class="cls-5" d="M3069.36,1318.83c-137.24-189.71-320.48-327.15-523.88-407.28a1189,1189,0,0,0-495.81-81.36c-10.27.55-20.54,1.15-30.79,1.95a1185.4,1185.4,0,0,0-587.21,210.32c-13.88,9.69-27.48,19.6-40.78,29.88-373.6,285.15-532.48,753.94-438.61,1190.31a1169.41,1169.41,0,0,0,37.58,134.81c3.46,10.07,7.18,20.09,10.92,30.1-124.48-474.73,50.3-997.46,476.1-1295.15a1200.29,1200.29,0,0,1,124.31-76.23,83.73,83.73,0,0,0,2.83,9.44c24.12,66.25,127,89.61,229.93,52.15S2000.66,996.28,1976.55,930l-.08-.21C2374.53,866,2790.45,1004.92,3069.36,1318.83Z"/></g><path class="cls-3" d="M2117.42,3236.42a1232.6,1232.6,0,0,1-653.31-187.76c-139-87.22-257.47-200.18-352.24-335.75S951.7,2427.25,917.5,2266.79a1229.56,1229.56,0,0,1,160.82-908.08c87.22-139,200.18-257.46,335.75-352.24S1699.74,846.3,1860.2,812.11a1229.61,1229.61,0,0,1,908.07,160.81c139,87.22,257.47,200.19,352.24,335.75s160.17,285.67,194.37,446.13a1229.55,1229.55,0,0,1-160.82,908.07c-87.22,139-200.18,257.47-335.75,352.25s-285.67,160.16-446.12,194.36A1221.09,1221.09,0,0,1,2117.42,3236.42Zm-3.66-2368.88c-232.09,0-458.25,70.75-652.44,206.51C1211.11,1249,1044,1510.87,990.75,1811.48s13.78,604,188.7,854.18,436.81,417.33,737.43,470.57A1156.63,1156.63,0,0,0,2118.62,3154c232.09,0,458.25-70.75,652.44-206.51,250.21-174.92,417.33-436.81,470.57-737.43s-13.78-604-188.7-854.18S2616.12,938.59,2315.5,885.35A1157.6,1157.6,0,0,0,2113.76,867.54Z"/><g class="cls-2"><ellipse class="cls-3" cx="1766.59" cy="1316.55" rx="262.81" ry="164.63" transform="translate(-260.94 454.42) rotate(-13.66)"/></g><ellipse class="cls-6" cx="1776.36" cy="1367.89" rx="229.82" ry="103.34" transform="translate(-272.79 458.18) rotate(-13.66)"/><path class="cls-3" d="M1973.76,1171.2a149.09,149.09,0,0,1,30.32,22,136.78,136.78,0,0,1,12.87,14.36,129.73,129.73,0,0,1,10.68,16.44,117.16,117.16,0,0,1,7.86,18.25l1.49,4.77c.45,1.6.8,3.23,1.2,4.85l1.15,4.88c.3,1.64.54,3.3.8,5a128.69,128.69,0,0,1-.34,39.91,159.37,159.37,0,0,1-11.33,37.66,207,207,0,0,1-19,33.61,246.46,246.46,0,0,1-24.08,29.34c-4.28,4.63-8.82,8.94-13.38,13.26l-7,6.22c-2.33,2.1-4.79,4-7.18,6a324.4,324.4,0,0,1-30.14,21.94c-5.16,3.46-10.53,6.51-15.82,9.73-5.41,3-10.75,6.12-16.28,8.87a417.55,417.55,0,0,1-68.39,27.85c-5.88,1.82-11.82,3.41-17.75,5-6,1.44-11.92,3.06-18,4.27-12,2.74-24.21,4.66-36.46,6.31-24.54,2.92-49.43,4.11-74.39,2.23a305.8,305.8,0,0,1-74.34-14.1c-24.28-8.15-48.22-19.75-69-37.22a149.62,149.62,0,0,1-27.8-30.47,129.62,129.62,0,0,1-17.66-38.32,125.75,125.75,0,0,1-4.21-41.75,144.5,144.5,0,0,1,8.51-39.88,179.87,179.87,0,0,1,17.63-35.1c1.8-2.66,3.52-5.4,5.39-8l5.71-7.68,6.05-7.33c2-2.43,4.2-4.69,6.29-7a272.53,272.53,0,0,1,27.2-25.54,334.48,334.48,0,0,1,29.84-21.5c10.34-6.47,20.89-12.47,31.72-17.85s21.85-10.26,33.13-14.39a383,383,0,0,1,68.9-19.06,7.55,7.55,0,0,1,3.92,14.52l-.18.07c-10.78,3.9-21.55,7.66-32,12.27-5.27,2.13-10.41,4.56-15.58,6.86-2.57,1.19-5.1,2.48-7.64,3.71s-5.09,2.46-7.57,3.82l-7.47,4-7.35,4.17-3.67,2.06-3.6,2.19c-2.4,1.47-4.81,2.89-7.18,4.38-9.42,6-18.61,12.37-27.4,19.13s-17.13,14-25,21.55a264.87,264.87,0,0,0-21.87,24c-13.38,16.7-24,35.15-29.61,54.14a101.45,101.45,0,0,0-4.54,28.39,86.52,86.52,0,0,0,4,27.18c5.54,17.34,17,32.47,32.27,44.48s34,20.89,53.88,27.1a272.83,272.83,0,0,0,62.56,11,362.33,362.33,0,0,0,64.87-2,416.11,416.11,0,0,0,64.21-13.09c5.25-1.57,10.52-3,15.7-4.82,5.23-1.63,10.34-3.56,15.49-5.41,10.21-3.9,20.31-8.1,30.16-12.8,5-2.23,9.76-4.83,14.64-7.27,4.74-2.65,9.6-5.15,14.21-8a308.48,308.48,0,0,0,27.12-17.84,268.56,268.56,0,0,0,24.8-20.53,216.62,216.62,0,0,0,21.68-23.23,167.34,167.34,0,0,0,17.24-25.91,123.89,123.89,0,0,0,11.19-28.16,97,97,0,0,0,3.12-29.46l-.18-3.72-.47-3.69c-.17-1.22-.28-2.47-.49-3.7l-.72-3.66a107.59,107.59,0,0,0-4.32-14.4,103.86,103.86,0,0,0-6.71-13.75,110.53,110.53,0,0,0-8.94-12.83,126.17,126.17,0,0,0-10.76-11.86c-3.88-3.75-8-7.28-12.33-10.73l-.16-.14a9.37,9.37,0,0,1,10.4-15.51Z"/><path class="cls-3" d="M1851.49,1567.2a190.26,190.26,0,0,1-27.42,18.4,235,235,0,0,1-30.15,14.08,264.25,264.25,0,0,1-64.92,15.65,308.79,308.79,0,0,1-66.93.29,329,329,0,0,1-65.49-13.86,312.45,312.45,0,0,1-61.42-27.12q-7.29-4.25-14.38-8.87T1507,1556a247.76,247.76,0,0,1-25.69-22.29c-16-16.13-30-34.8-39.44-55.88-9.5-20.92-14.23-44.36-11.8-66.7a7.63,7.63,0,0,1,15-.95l0,.15c9.2,38.84,33.93,69,64,92.13s65.62,40,102.53,51.28a392.76,392.76,0,0,0,114.54,17,350.84,350.84,0,0,0,58.25-4.94c9.69-1.62,19.34-3.72,29-6.21s19.23-5.47,28.92-8.7l.16-.05a9.49,9.49,0,0,1,9,16.36Z"/><g class="cls-2"><ellipse class="cls-3" cx="1326.87" cy="2188.84" rx="164.94" ry="263.36" transform="translate(-298.76 211.73) rotate(-8.2)"/></g><ellipse class="cls-6" cx="1378.57" cy="2183.5" rx="103.34" ry="229.82" transform="translate(-297.47 219.06) rotate(-8.2)"/><path class="cls-3" d="M1201.54,1968.29a148.9,148.9,0,0,1,24.82-28.09,138.26,138.26,0,0,1,15.51-11.45,131.46,131.46,0,0,1,17.39-9.07,117.14,117.14,0,0,1,18.91-6.09l4.89-1c1.64-.3,3.29-.49,4.94-.74l5-.68c1.67-.14,3.33-.22,5-.33a129,129,0,0,1,39.7,4.14,159.05,159.05,0,0,1,36.41,14.86,207.07,207.07,0,0,1,31.66,22,248.39,248.39,0,0,1,26.92,26.77c4.2,4.7,8.06,9.63,11.92,14.57l5.53,7.58c1.86,2.52,3.53,5.15,5.3,7.72a324.24,324.24,0,0,1,19,32.08c2.95,5.47,5.49,11.1,8.18,16.68,2.46,5.67,5.08,11.29,7.29,17a417.91,417.91,0,0,1,21.22,70.74c1.26,6,2.27,12.09,3.33,18.15.86,6.09,1.91,12.15,2.54,18.29,1.58,12.21,2.34,24.55,2.81,36.89.58,24.71-.61,49.6-4.85,74.27a305.74,305.74,0,0,1-21.1,72.66c-10.42,23.4-24.25,46.12-43.62,65.19a149.78,149.78,0,0,1-33,24.77,130.1,130.1,0,0,1-39.82,13.94,126.11,126.11,0,0,1-42,.22,144.45,144.45,0,0,1-38.89-12.27,179,179,0,0,1-33.26-20.89c-2.48-2-5-4-7.44-6.12l-7.1-6.42L1242,2417c-2.22-2.24-4.27-4.62-6.41-6.93a271.81,271.81,0,0,1-22.84-29.5,335.68,335.68,0,0,1-18.57-31.75c-5.45-10.91-10.42-22-14.75-33.28s-8.13-22.72-11.17-34.34a384.55,384.55,0,0,1-12.43-70.4,7.55,7.55,0,0,1,14.84-2.52l0,.18c2.86,11.11,5.57,22.19,9.17,33,1.62,5.44,3.55,10.79,5.35,16.16.94,2.67,2,5.31,3,8s2,5.29,3.09,7.89l3.23,7.82L1198,2289l1.71,3.85,1.83,3.79c1.23,2.53,2.42,5.06,3.68,7.56,5.13,10,10.55,19.71,16.44,29.1s12.28,18.38,19.07,27a267.64,267.64,0,0,0,21.8,24.05c15.35,14.9,32.71,27.18,51.07,34.62a101.48,101.48,0,0,0,27.83,7.22,86.53,86.53,0,0,0,27.44-1.44c17.79-3.87,34-13.83,47.35-27.9s24-31.87,32.11-51.05a273.19,273.19,0,0,0,16.89-61.24,363.69,363.69,0,0,0,4.17-64.76,417.18,417.18,0,0,0-6.93-65.17c-1.07-5.37-2-10.76-3.31-16.08-1.12-5.36-2.55-10.64-3.91-15.94-2.91-10.53-6.13-21-9.87-31.23-1.75-5.18-3.88-10.18-5.84-15.27-2.2-5-4.22-10-6.63-14.9a311.57,311.57,0,0,0-15.18-28.71,268.52,268.52,0,0,0-18.08-26.64,216.56,216.56,0,0,0-21.06-23.78,167.51,167.51,0,0,0-24.16-19.62,123,123,0,0,0-27-13.82,96.82,96.82,0,0,0-29-5.91l-3.72-.18-3.71.13c-1.24,0-2.49,0-3.73.13l-3.72.37a106.16,106.16,0,0,0-14.74,2.93,103.86,103.86,0,0,0-14.33,5.37,112,112,0,0,0-13.62,7.68,126.87,126.87,0,0,0-12.83,9.58c-4.1,3.51-8,7.32-11.85,11.25l-.15.15a9.37,9.37,0,0,1-14.46-11.82Z"/><path class="cls-3" d="M1584.12,2127.65a189.39,189.39,0,0,1,15.71,29,235,235,0,0,1,11.15,31.36,264.22,264.22,0,0,1,9.41,66.12,308.75,308.75,0,0,1-6.07,66.65,329,329,0,0,1-20,63.87,312.09,312.09,0,0,1-32.84,58.57c-3.28,4.57-6.66,9.07-10.19,13.47s-7.26,8.64-11.08,12.81a248.45,248.45,0,0,1-24.63,23.46c-17.58,14.41-37.5,26.56-59.38,33.95s-45.51,9.94-67.52,5.4a7.64,7.64,0,0,1,.48-15h.15c39.54-5.48,71.92-27.22,97.8-55s46-61.53,60.8-97.2a392.53,392.53,0,0,0,27.85-112.4,349.71,349.71,0,0,0,.63-58.45c-.7-9.8-1.87-19.61-3.43-29.44s-3.62-19.67-5.91-29.62l0-.16a9.49,9.49,0,0,1,17.14-7.4Z"/><g class="cls-2"><ellipse class="cls-3" cx="2228.48" cy="1964.81" rx="221.78" ry="189.17" transform="matrix(0.97, -0.26, 0.26, 0.97, -428.71, 635.92)"/></g><ellipse class="cls-6" cx="2202" cy="2040.69" rx="134.46" ry="166.64" transform="translate(92.63 4176.99) rotate(-88.19)"/><path class="cls-3" d="M2282.55,2145.32l7.83-3.26c2.6-1.09,5.24-2,7.79-3.23l7.6-3.62c2.52-1.23,5.09-2.31,7.5-3.74l7.37-4,3.68-2,3.55-2.19c4.72-2.93,9.5-5.72,13.94-9l6.78-4.74,6.5-5.08,3.24-2.53a40,40,0,0,0,3.16-2.63l6.15-5.44,3.07-2.71,2.9-2.88,5.81-5.72c1.92-1.92,3.64-4,5.48-6s3.67-4,5.34-6.09l5.05-6.32c.83-1,1.69-2.08,2.5-3.15l2.31-3.3,4.61-6.58c1.47-2.23,2.79-4.55,4.2-6.81,2.94-4.45,5.27-9.23,7.77-13.88,1.33-2.3,2.26-4.77,3.37-7.16s2.22-4.78,3.17-7.22l2.72-7.36c.44-1.23.95-2.44,1.35-3.68l1.1-3.75,2.22-7.47c.58-2.52,1.27-5,1.74-7.56a165.83,165.83,0,0,0,3.48-30.47,150.49,150.49,0,0,0-11.08-59.07,152.23,152.23,0,0,0-33-50c-14-14.59-31.17-26.23-49.61-35.41a193.69,193.69,0,0,0-28.86-11.45l-3.72-1.18-3.78-1c-2.53-.63-5-1.42-7.58-1.94l-7.64-1.72-7.73-1.39c-82.65-13.62-174.66,18.72-227.42,85.36a202.27,202.27,0,0,0-17.72,26.22,182.47,182.47,0,0,0-13,28.73,162.83,162.83,0,0,0-9.47,62.12,163,163,0,0,0,32.28,90.12,192.86,192.86,0,0,0,22.07,25.08l0,0A7.55,7.55,0,0,1,2060,2122a189.44,189.44,0,0,1-27.88-23.78,183.36,183.36,0,0,1-22.85-29.35,179.43,179.43,0,0,1-25.51-70.78c-3.6-25.28-1.5-51.4,5.26-76.09s18.2-48,32.79-68.94c29.51-41.71,71.72-73.65,118.85-92.43a290.68,290.68,0,0,1,73.61-18.93,275,275,0,0,1,76.5,1.25,247.85,247.85,0,0,1,37.59,8.78,244,244,0,0,1,36,14.43,230.14,230.14,0,0,1,33.47,20.28,210.12,210.12,0,0,1,29.62,26,204.32,204.32,0,0,1,24.25,31.45,182.57,182.57,0,0,1,17.48,35.77,189.74,189.74,0,0,1,11.21,78.08,193.73,193.73,0,0,1-6.55,38.66c-.8,3.16-1.83,6.23-2.77,9.34l-3.3,9.12-1.67,4.55c-.59,1.5-1.29,3-1.93,4.43l-4,8.81a235,235,0,0,1-44.14,61.63,250.68,250.68,0,0,1-59.82,44.06c-5.36,3-11,5.49-16.56,8.06l-4.18,1.91-4.27,1.68-8.54,3.32c-2.82,1.15-5.78,1.95-8.67,2.89l-8.71,2.71c-5.85,1.62-11.78,2.95-17.64,4.35a9.35,9.35,0,0,1-5.77-17.72Z"/><path class="cls-3" d="M1933,1934a271.86,271.86,0,0,0-4.69,32.61,234.17,234.17,0,0,0-.67,32.52,236.61,236.61,0,0,0,11.53,62.87c1.53,5.08,3.63,10,5.46,14.91.87,2.49,2.09,4.85,3.15,7.27l3.27,7.19a231.92,231.92,0,0,0,15.77,27.27c1.49,2.16,2.88,4.37,4.42,6.5l4.73,6.27,2.35,3.14,2.53,3,5.06,6c1.69,2,3.57,3.84,5.34,5.76s3.52,3.87,5.43,5.67l5.66,5.45c1,.9,1.86,1.84,2.84,2.7l3,2.58,5.93,5.15c2,1.66,4.13,3.23,6.18,4.85,4.06,3.32,8.43,6.25,12.69,9.31,2.1,1.57,4.33,3,6.55,4.36l6.64,4.24,6.84,3.93c2.3,1.26,4.51,2.69,6.89,3.83a308,308,0,0,0,58.6,23.61,324,324,0,0,0,62.41,11.66,358.15,358.15,0,0,0,63.75,0,376.52,376.52,0,0,0,123.3-33,343.67,343.67,0,0,0,104-73.92l2.8-2.87,2.67-3,5.36-6c3.49-4,6.81-8.25,10.18-12.41,6.4-8.57,12.71-17.26,18.24-26.44,11.12-18.28,20.6-37.72,27.12-58.22a252.57,252.57,0,0,0,12.08-63.52c.14-5.42.59-10.88.32-16.33l-.16-8.2-.63-8.19c-.22-5.51-1.12-10.92-1.79-16.41-.27-2.76-.9-5.44-1.38-8.17l-1.48-8.19-.1-.55a7.53,7.53,0,0,1,14.53-3.77c1.9,5.57,4.08,11.11,5.66,16.83s3.32,11.43,4.42,17.29l1.8,8.78,1.27,8.87c1,5.92,1.28,11.9,1.83,17.9.33,3,.23,6,.37,9s.22,6,.14,9l-.33,9-.18,4.53-.41,4.51-.85,9c-.34,3-.88,6-1.32,9-.8,6-2.12,11.91-3.37,17.84-.57,3-1.37,5.91-2.15,8.83l-2.39,8.79-2.82,8.64c-1,2.88-1.83,5.8-3,8.61-2.21,5.64-4.24,11.39-6.85,16.87l-3.75,8.31-4.13,8.12a314.92,314.92,0,0,1-40.58,60.41,356.34,356.34,0,0,1-52.69,50.25c-2.36,1.93-4.83,3.7-7.29,5.48l-7.39,5.35c-5,3.5-10.11,6.74-15.17,10.12q-7.8,4.73-15.69,9.3c-5.37,2.84-10.69,5.8-16.11,8.54a399.48,399.48,0,0,1-139.46,40.1c-48.51,4.66-98.19.28-145.11-14.33a339.45,339.45,0,0,1-67.52-29.44,296.44,296.44,0,0,1-59-44.6,263.14,263.14,0,0,1-45.46-58.48,271.39,271.39,0,0,1-16.11-33.35c-1.08-2.89-2.08-5.81-3.12-8.71s-2.14-5.77-2.92-8.75c-1.67-5.93-3.55-11.77-4.84-17.78a245.21,245.21,0,0,1,9.82-142.63,9.38,9.38,0,0,1,18,5.21Z"/><g class="cls-2"><ellipse class="cls-3" cx="2572.25" cy="1253.65" rx="117.69" ry="100.39" transform="translate(-46.84 101.06) rotate(-2.23)"/></g><ellipse class="cls-6" cx="2549.75" cy="1289.88" rx="71.35" ry="88.43" transform="translate(665.71 3438.23) rotate(-75.58)"/><path class="cls-3" d="M2579.29,1352.39c23.49-3.92,45.69-12.78,63.42-26.84,2.14-1.83,4.43-3.47,6.42-5.45l3.06-2.85c1-1,1.91-2,2.88-3a99,99,0,0,0,10.34-12.8c1.39-2.34,3-4.51,4.23-6.93l1.94-3.54c.57-1.21,1.19-2.4,1.71-3.63a86.44,86.44,0,0,0,5.06-15,78.26,78.26,0,0,0-10.16-59.55c-11-17.71-28.76-31.38-48.87-39.49-40.26-16.29-90.7-10.51-125.18,17.06-17.23,13.58-30.13,32.76-34.19,54.48a84.47,84.47,0,0,0-1.5,16.56,90.75,90.75,0,0,0,1.87,16.76,96.83,96.83,0,0,0,13.4,31.92l0,0a4.83,4.83,0,0,1-7.57,5.93,99.81,99.81,0,0,1-12-15.55,95.76,95.76,0,0,1-14.18-58.16,101.42,101.42,0,0,1,11.47-39.59,118.57,118.57,0,0,1,25.23-32.62c20.38-18.6,46.34-30.55,73.35-34.95a153.27,153.27,0,0,1,81.17,8.25,138.81,138.81,0,0,1,36.16,20.95,120.51,120.51,0,0,1,27.89,32,106.62,106.62,0,0,1,14.08,40.66,102.76,102.76,0,0,1-3.45,42.74,104.58,104.58,0,0,1-8.12,19.66c-.81,1.57-1.72,3.07-2.59,4.59l-2.85,4.42c-1.82,3-4.06,5.68-6.13,8.47a125.86,125.86,0,0,1-30.67,27,136.83,136.83,0,0,1-75.5,20.31,6,6,0,0,1-.81-11.9Z"/><path class="cls-3" d="M2423.64,1204c-9.18,21.45-13.22,44.36-10.61,66.43a119.26,119.26,0,0,0,7.93,31.91,124.5,124.5,0,0,0,15.88,28.52c12.95,17.59,30.21,32,49.6,42.51a181.17,181.17,0,0,0,63,20.27,198.91,198.91,0,0,0,66.75-2.65,181.62,181.62,0,0,0,61.71-25.56,155.82,155.82,0,0,0,26-21.22,143.6,143.6,0,0,0,20.79-26.46,131,131,0,0,0,13.83-31,138.3,138.3,0,0,0,5.4-34.17v-.08a4.83,4.83,0,0,1,9.59-.6,126,126,0,0,1,.16,38.15c-.47,3.18-1.07,6.35-1.74,9.52l-1.21,4.69c-.37,1.58-.82,3.14-1.33,4.67l-1.47,4.64c-.52,1.54-1.13,3-1.69,4.56-1.09,3.07-2.44,6-3.76,9a149.47,149.47,0,0,1-20.86,33,168.51,168.51,0,0,1-28.2,27.08,194.17,194.17,0,0,1-70.25,33.55,212.68,212.68,0,0,1-77.8,4.81,198,198,0,0,1-74.46-24.59,182.14,182.14,0,0,1-32-23.48,158.53,158.53,0,0,1-25.66-30.48,140.82,140.82,0,0,1-16.86-36.2,146.79,146.79,0,0,1-4.43-19.46c-.37-3.31-.84-6.59-1.05-9.9s-.43-6.6-.38-9.91a133.69,133.69,0,0,1,5.9-38.73,137.1,137.1,0,0,1,7.1-18,130.58,130.58,0,0,1,9.61-16.56,6,6,0,0,1,10.45,5.77Z"/><path class="cls-3" d="M2864.33,1529a223.66,223.66,0,0,0-33.77,26.89,211.55,211.55,0,0,0-27,32.41,200.44,200.44,0,0,0-30.62,76.08,230.64,230.64,0,0,0,.3,81.89,261.56,261.56,0,0,0,27.29,78,293.39,293.39,0,0,0,49.62,67.2c10,9.78,20.37,19.36,31.66,27.76l8.45,6.34,8.8,5.84c5.78,4.09,12,7.39,18.12,10.95,3,1.87,6.21,3.36,9.38,4.94l9.51,4.76,9.8,4.11,4.9,2.11c1.62.75,3.33,1.21,5,1.84l10.07,3.54c1.67.64,3.38,1.11,5.1,1.59l5.14,1.47,5.15,1.48a49.36,49.36,0,0,0,5.19,1.33q5.23,1.1,10.49,2.28c3.49.89,7,1.31,10.59,1.85s7.11,1.15,10.69,1.58l10.77.9c1.8.13,3.61.37,5.42.45l5.42.1,10.91.22,10.92-.53,5.52-.21,5.45-.64c3.64-.45,7.32-.84,11-1.21l.65-.06a7.54,7.54,0,0,1,3.3,14.6c-3.71,1.34-7.46,2.66-11.24,3.92l-5.68,1.92-5.78,1.49-11.67,2.87c-3.94.71-7.9,1.3-11.87,1.93l-6,.94c-2,.25-4,.36-6,.53l-12.07.91c-4,.18-8.06.08-12.11.09s-8.11,0-12.13-.36-8.08-.6-12.13-.94a60.73,60.73,0,0,1-6-.74l-6-.91-6-.92a52.8,52.8,0,0,1-6-1.11l-11.9-2.72c-2-.5-4-.84-5.94-1.46l-5.85-1.76-11.7-3.61-11.43-4.37c-3.81-1.48-7.68-2.85-11.34-4.67a305,305,0,0,1-142.43-131.65,286.16,286.16,0,0,1-20.12-45.5,279.82,279.82,0,0,1-11.78-48.52c-4.82-33-3.59-67.2,5-99.68s24.35-63.13,46.52-87.93c2.66-3.18,5.66-6.07,8.56-9s6-5.72,9-8.47,6.3-5.29,9.53-7.82,6.47-5,9.88-7.27a193.93,193.93,0,0,1,21-12.43,187.6,187.6,0,0,1,22.27-9.43,9.42,9.42,0,0,1,8.16,16.82Z"/><g class="cls-2"><ellipse class="cls-3" cx="2990.57" cy="1744.03" rx="152.12" ry="183.54" transform="translate(-457.91 1438.9) rotate(-25.19)"/></g><path class="cls-6" d="M3036.72,1893.83c-52.07,14.75-114.8-6.42-158.26-58.78-57.82-69.75-59.56-168.43-3.89-220.44a112.62,112.62,0,0,1,25.58-18.07c42.58,5.25,85.83,28.76,119,68.71C3077.88,1736.09,3084.14,1834,3036.72,1893.83Z"/><path class="cls-3" d="M3103.59,1651.42a210.49,210.49,0,0,0-39.69-27.59,177.9,177.9,0,0,0-43.87-16.46c-30-6.9-61.35-4.95-87.45,6.84l-4.84,2.31-2.42,1.14L2923,1619c-3.07,1.73-6,3.62-8.93,5.6a103.75,103.75,0,0,0-8.32,6.4c-2.69,2.24-5.16,4.78-7.66,7.22A108.66,108.66,0,0,0,2875.5,1673a122.36,122.36,0,0,0-8.55,41.24,144.66,144.66,0,0,0,5.3,42.91c7.81,28.2,24.09,54.45,45.82,75.21l4.06,3.9c1.41,1.24,2.87,2.41,4.3,3.63l4.31,3.63,4.54,3.33,4.52,3.37,4.73,3c1.59,1,3.13,2.09,4.75,3l4.92,2.74a162.94,162.94,0,0,0,41.92,16.16,141.82,141.82,0,0,0,44.64,3.15c1.86-.19,3.74-.29,5.59-.54l5.52-1a97.49,97.49,0,0,0,11-2.36,120.34,120.34,0,0,0,57.61-35.29,131.18,131.18,0,0,0,24.81-40.45l0-.11a7.57,7.57,0,0,1,14.51,4,132.57,132.57,0,0,1-20,51.3,138.37,138.37,0,0,1-40.16,39.95,142.46,142.46,0,0,1-25.64,13.27,113.47,113.47,0,0,1-13.72,4.63l-7,1.93c-2.35.56-4.73,1-7.09,1.45a172.06,172.06,0,0,1-57.62,1.17c-38.1-5.78-74.14-23.18-102.87-48.76-1.79-1.6-3.63-3.16-5.38-4.8l-5.1-5.1c-1.7-1.71-3.41-3.4-5.08-5.14l-4.77-5.42a217.79,217.79,0,0,1-17.35-23.2,206,206,0,0,1-14.05-25.53,212.59,212.59,0,0,1-10.19-27.49,176.66,176.66,0,0,1-5.95-28.92,183,183,0,0,1-1.27-29.73,165.89,165.89,0,0,1,13.28-58.59,152.62,152.62,0,0,1,34.92-49.59,146.62,146.62,0,0,1,51.23-31.34,159.11,159.11,0,0,1,57.94-9.54,67.11,67.11,0,0,1,7.24.34l7.21.58a65.42,65.42,0,0,1,7.14.92l7.09,1.15a185.79,185.79,0,0,1,114.86,72.76,9.4,9.4,0,0,1-13.77,12.62Z"/><path class="cls-6" d="M2768.42,2508.89c58.43,23.45,106.1,61.55,135.91,113.4,54,94,34.18,206-36.08,310.1-46.1,68.29-115.12,130.75-202,176.88-219.39,116.43-469.74,84.67-559.18-70.93-33.27-57.9-39.58-124.8-23.08-192,27.85-113.35,123.44-221.9,261.19-295"/><path class="cls-3" d="M2913.85,2616.82a229,229,0,0,1,33,73.47,255.68,255.68,0,0,1,6.68,81.32,325.53,325.53,0,0,1-16.51,79.68,383.34,383.34,0,0,1-14.95,37.62c-5.61,12.23-11.64,24.26-18.33,35.88a487,487,0,0,1-45.37,66.34,539.71,539.71,0,0,1-55.12,58.29c-4.92,4.51-10,8.85-15,13.24-5.18,4.21-10.29,8.5-15.53,12.64-10.51,8.2-21.2,16.19-32.2,23.71a648.33,648.33,0,0,1-68.63,40.73,609.84,609.84,0,0,1-150.06,53.43q-19.56,4.13-39.38,7c-13.21,1.86-26.5,3.14-39.83,4a498.74,498.74,0,0,1-80.13-1.12c-13.33-1.26-26.61-3.21-39.79-5.68a391.15,391.15,0,0,1-39.16-9.38,354.31,354.31,0,0,1-74.38-31.07,284.62,284.62,0,0,1-64-48.87,254.24,254.24,0,0,1-25.68-30.86,238.7,238.7,0,0,1-20-34.42,8.88,8.88,0,0,1,15.29-8.9l.06.08a252.41,252.41,0,0,0,23.09,28.35,236.76,236.76,0,0,0,26.59,24.51,282.27,282.27,0,0,0,61.54,36.79c43.87,19.23,91.79,28.42,139.84,30.07s96.51-4,143.45-15.55q17.59-4.38,34.94-9.71c11.56-3.55,23-7.54,34.3-11.83s22.53-8.85,33.59-13.78,22-10.2,32.72-15.77a631.93,631.93,0,0,0,62.45-37,566,566,0,0,0,57.55-43.86,550.62,550.62,0,0,0,51.29-50.72,472.69,472.69,0,0,0,43.45-57.38,418.6,418.6,0,0,0,33.69-63.24,309.29,309.29,0,0,0,20-67.94,240,240,0,0,0,1.66-70.44,233.21,233.21,0,0,0-20.1-68.72l0-.08a11,11,0,0,1,19.08-10.86Z"/><g class="cls-2"><ellipse class="cls-3" cx="2505.38" cy="2828.29" rx="341.62" ry="248.28" transform="translate(-838.48 1069.09) rotate(-20.72)"/></g><ellipse class="cls-6" cx="2496.28" cy="2898.91" rx="289.59" ry="182.6" transform="matrix(0.96, -0.28, 0.28, 0.96, -704.31, 803.36)"/><path class="cls-3" d="M2301.28,3084.49a232.13,232.13,0,0,1-23.41-9c-3.87-1.65-7.62-3.6-11.42-5.45s-7.51-3.92-11.14-6.13a216,216,0,0,1-40.83-31.24,197.26,197.26,0,0,1-52.2-90.27,215.86,215.86,0,0,1-6.86-52.58,242.6,242.6,0,0,1,5.52-52.36,294.39,294.39,0,0,1,15.59-49.75l2.52-6c.83-2,1.69-4,2.64-5.92,1.86-3.89,3.69-7.81,5.62-11.67l6.13-11.38c2-3.79,4.35-7.4,6.53-11.11s4.53-7.3,6.89-10.88,4.67-7.2,7.22-10.63,5-7,7.55-10.39l7.94-10.06a449.94,449.94,0,0,1,34.6-37.61,469.2,469.2,0,0,1,80.6-61.83c57.79-35,122.78-58.92,190.74-67a461.6,461.6,0,0,1,51.31-3,380,380,0,0,1,51.64,3.87c34.32,4.91,68.49,15.13,100,32a236.93,236.93,0,0,1,44.43,30.49,216.84,216.84,0,0,1,36.2,40.74,203.22,203.22,0,0,1,24.53,48.74,209.36,209.36,0,0,1,10.83,53.09,231.66,231.66,0,0,1-2.55,53.18,258.81,258.81,0,0,1-13.68,50.33,310.29,310.29,0,0,1-22.06,46.26,351.61,351.61,0,0,1-28.68,41.65,366.49,366.49,0,0,1-33.72,37c-5.91,5.84-12.18,11.28-18.38,16.76-3.13,2.69-6.39,5.25-9.59,7.86-1.61,1.29-3.2,2.61-4.83,3.87l-4.95,3.71a439.09,439.09,0,0,1-40.89,27.48l-10.64,6.11c-3.58,2-7.22,3.83-10.82,5.74-7.14,4-14.65,7.19-22,10.71a8.85,8.85,0,0,1-8.64-15.4l.35-.23c13.19-8.51,26.31-17,38.63-26.54a434.69,434.69,0,0,0,35.7-29.77l4.26-3.92c1.39-1.33,2.74-2.72,4.11-4.07l8.18-8.14c5.28-5.6,10.61-11.12,15.54-17l3.78-4.32c1.24-1.45,2.4-3,3.61-4.45,2.38-3,4.86-5.88,7.16-8.91l6.83-9.14c2.26-3,4.32-6.24,6.49-9.34a339.51,339.51,0,0,0,22.76-38.93,292,292,0,0,0,16.4-41.21,230.12,230.12,0,0,0,8.9-42.48,185.92,185.92,0,0,0-.25-42.26,158.82,158.82,0,0,0-10.05-40,160.69,160.69,0,0,0-19.81-35.69,162.85,162.85,0,0,0-28.27-29.58,183.34,183.34,0,0,0-34.94-22.56,240.25,240.25,0,0,0-39.59-15.39,262.68,262.68,0,0,0-42.34-8.78,359.14,359.14,0,0,0-43.73-2.68,401,401,0,0,0-44.13,2.89c-58.81,7.33-116.34,27.9-168,58.19a433.27,433.27,0,0,0-37.54,24.51c-12.12,8.73-23.52,18.36-34.67,28.21a394.52,394.52,0,0,0-31.21,31.76,351.45,351.45,0,0,0-27,35.11,289,289,0,0,0-21.72,38.16,253.88,253.88,0,0,0-15.22,40.68,196.18,196.18,0,0,0-7.18,42.27,173.32,173.32,0,0,0,2.44,42.39,161.78,161.78,0,0,0,13,40.5l2.26,4.88,2.55,4.74c.82,1.6,1.73,3.15,2.68,4.68s1.83,3.11,2.81,4.62c2,3,3.95,6,6.16,8.92,2.06,3,4.39,5.78,6.64,8.65a185.3,185.3,0,0,0,32.11,30.31c11.83,9.17,25,16.73,38.69,23.58l.28.14a11,11,0,0,1-8.46,20.24Z"/></svg>