<svg xmlns="http://www.w3.org/2000/svg" xmlns:xlink="http://www.w3.org/1999/xlink" viewBox="0 0 993.5 485.37"><defs><style>.cls-1{fill:url(#Degradado_sin_nombre_20);}.cls-2{fill:url(#Degradado_sin_nombre_20-2);}.cls-3{fill:url(#Degradado_sin_nombre_20-3);}.cls-4{fill:url(#Degradado_sin_nombre_20-4);}.cls-5{fill:url(#Degradado_sin_nombre_20-5);}.cls-6{fill:url(#Degradado_sin_nombre_20-6);}.cls-7{fill:url(#Degradado_sin_nombre_20-7);}.cls-8{fill:url(#Degradado_sin_nombre_20-8);}</style><linearGradient id="Degradado_sin_nombre_20" x1="179.66" y1="347.06" x2="75.88" y2="167.31" gradientUnits="userSpaceOnUse"><stop offset="0" stop-color="#041c64"/><stop offset="0.48" stop-color="#3d46f2"/><stop offset="1" stop-color="#1fb4e6"/></linearGradient><linearGradient id="Degradado_sin_nombre_20-2" x1="211.28" y1="156.6" x2="116.53" y2="-7.5" xlink:href="#Degradado_sin_nombre_20"/><linearGradient id="Degradado_sin_nombre_20-3" x1="379.74" y1="408.99" x2="252.37" y2="188.38" xlink:href="#Degradado_sin_nombre_20"/><linearGradient id="Degradado_sin_nombre_20-4" x1="426.03" y1="414.94" x2="331.88" y2="251.85" xlink:href="#Degradado_sin_nombre_20"/><linearGradient id="Degradado_sin_nombre_20-5" x1="503.55" y1="445.18" x2="418.84" y2="298.44" xlink:href="#Degradado_sin_nombre_20"/><linearGradient id="Degradado_sin_nombre_20-6" x1="651.32" y1="445.18" x2="566.6" y2="298.44" xlink:href="#Degradado_sin_nombre_20"/><linearGradient id="Degradado_sin_nombre_20-7" x1="813.33" y1="422.46" x2="734.59" y2="286.07" xlink:href="#Degradado_sin_nombre_20"/><linearGradient id="Degradado_sin_nombre_20-8" x1="978.59" y1="413.88" x2="895.15" y2="269.36" xlink:href="#Degradado_sin_nombre_20"/></defs><g id="Capa_2" data-name="Capa 2"><g id="Capa_1-2" data-name="Capa 1"><path class="cls-1" d="M117.4,242.88c-.19,10.73-2.21,115.84-9.21,121.13a1,1,0,0,0-.33.48c-1.73,4.7-21.86,55.18-90.08,65a1.06,1.06,0,0,1-1.23-1V242.1a1.15,1.15,0,0,1,0-.19c.46-2.2,9.33-43.57,40.52-63.67,31.57-20.34,98.8-14.55,100.83-14.37h.1L283,163a1,1,0,0,1,1.07,1.18c-1.24,7.28-8.83,45.91-31.79,58.94l-.12.08c-1.34,1.08-28.79,22.77-69.24,19.27-36.76-3.18-59.82-1.08-64.6-.56A1,1,0,0,0,117.4,242.88Z"/><path class="cls-2" d="M0,206.59s28.08-56.16,55.15-72.2,87.25-18,87.25-18H259.72s55.16-3,80.23-48.13S361,0,361,0H171.48s-58.16-1-89.25,13C69,19,55.9,28,45.26,36.19a87.48,87.48,0,0,0-31,47.06L9,103.3Z"/><path class="cls-3" d="M296.37,163h24.22a21.13,21.13,0,0,1,16.14,7.37,26.11,26.11,0,0,1,6.73,18.24V429.94H296.37Z"/><path class="cls-4" d="M362.2,234.35h20.36a19.29,19.29,0,0,1,19.23,19.23v11.88H362.2Zm0,44.12h20.36a19.31,19.31,0,0,1,19.23,19.23V428.93H362.2Z"/><path class="cls-5" d="M448,466.14a19.29,19.29,0,0,1-19.23,19.23H409.51V344.52q0-39.58,23.19-54A93.59,93.59,0,0,1,483,276.08a81.49,81.49,0,0,1,28.57,5.37Q526,286.84,534.52,297q17,22,17,56.56,0,35.64-17,57.7-17,21.51-43.56,21.5-14.15,0-24.89-5.09A42.66,42.66,0,0,1,448,410.14Zm64.49-110.87q0-22.06-8.49-33.94t-24.32-11.88q-15.27,0-23.76,11.88Q448,332.09,448,355.27q0,21.51,8.49,32.24,8.48,11.88,24.32,11.88,14.7,0,23.19-11.88T512.46,355.27Z"/><path class="cls-6" d="M595.74,466.14a19.31,19.31,0,0,1-19.23,19.23H557.27V344.52q0-39.58,23.19-54a93.62,93.62,0,0,1,50.35-14.42,81.53,81.53,0,0,1,28.57,5.37q14.42,5.39,22.9,15.56,17,22,17,56.56,0,35.64-17,57.7-17,21.51-43.55,21.5-14.15,0-24.89-5.09a42.55,42.55,0,0,1-18.1-17.54Zm64.48-110.87q0-22.06-8.48-33.94t-24.32-11.88q-15.28,0-23.76,11.88-7.93,10.76-7.92,33.94,0,21.51,8.48,32.24,8.49,11.88,24.33,11.88,14.7,0,23.19-11.88T660.22,355.27Z"/><path class="cls-7" d="M812.69,383.55H841q-6.24,23.76-23.76,36.21-17.54,13-44.12,13-32.25,0-50.35-20.93-18.11-20.37-18.1-58.27,0-36.19,17.54-56.56,18.09-20.92,50.34-20.93,33.94,0,52.61,20.36,18.09,20.94,18.1,58.26v6.23a9.61,9.61,0,0,1-.57,4H744.81q.57,17.53,8.49,26,7.35,9,22.06,9,9.61,0,16.4-4a7.91,7.91,0,0,0,3.12-2l3.11-3.11q.56-1.7,4.24-4.53T812.69,383.55Zm-67.88-44.12h57.7q-1.14-15.27-7.92-22.62-7.35-7.92-20.93-7.92-12.45,0-20.36,7.92T744.81,339.43Z"/><path class="cls-8" d="M955,234.79h19.24a18.08,18.08,0,0,1,13.57,5.93A18.85,18.85,0,0,1,993.5,254v110.3q0,40.17-23.19,54.3A94.86,94.86,0,0,1,920,432.77,89.19,89.19,0,0,1,891.11,428a47.45,47.45,0,0,1-22.62-15.56q-16.41-20.91-16.41-57.13,0-35.64,16.41-57.13,17-22.06,43.55-22.06,14.15,0,24.89,5.65A53.81,53.81,0,0,1,955,299.27ZM890.55,353.57q0,22.64,8.48,34.51T923.36,400q15.27,0,23.76-11.88Q955,376.2,955,353.57q0-20.35-8.48-32.24Q937.49,310,922.23,310q-14.72,0-23.2,11.88Q890.56,333.21,890.55,353.57Z"/></g></g></svg>